<svg width="189" height="189" viewBox="0 0 189 189" fill="none" xmlns="http://www.w3.org/2000/svg">
<rect x="1" y="1" width="187" height="187" rx="15" fill="#F2F1FF"/>
<path d="M112.395 91.872C112.085 95.1973 111.853 98.4067 111.699 101.5C111.621 104.593 111.583 106.952 111.583 108.576C111.583 110.355 111.621 112.017 111.699 113.564C111.776 115.111 111.853 116.464 111.931 117.624H109.263C108.412 111.824 107.252 107.261 105.783 103.936C104.313 100.533 102.341 98.136 99.8668 96.744C97.3921 95.2747 94.1055 94.54 90.0068 94.54H85.0188C82.6988 94.54 80.9201 94.7333 79.6828 95.12C78.4454 95.5067 77.5948 96.3187 77.1308 97.556C76.7441 98.7933 76.5508 100.688 76.5508 103.24V161.24C76.5508 164.179 76.8601 166.383 77.4788 167.852C78.0974 169.321 79.2961 170.288 81.0748 170.752C82.8534 171.216 85.4054 171.487 88.7308 171.564V174C86.4881 173.845 83.5881 173.768 80.0308 173.768C76.4734 173.691 72.8001 173.652 69.0108 173.652C65.7628 173.652 62.6308 173.691 59.6148 173.768C56.5988 173.768 53.9694 173.845 51.7268 174V171.68C54.2788 171.525 56.1734 171.216 57.4108 170.752C58.7254 170.288 59.5761 169.36 59.9628 167.968C60.4268 166.576 60.6588 164.488 60.6588 161.704V104.168C60.6588 101.307 60.4268 99.2187 59.9628 97.904C59.5761 96.512 58.7254 95.584 57.4108 95.12C56.1734 94.5787 54.2788 94.2693 51.7268 94.192V91.872C54.8201 91.9493 58.0681 92.0267 61.4708 92.104C64.9508 92.104 68.3534 92.1427 71.6788 92.22C75.0814 92.22 78.2134 92.22 81.0748 92.22C84.0134 92.22 86.3721 92.22 88.1508 92.22C91.7081 92.22 95.7295 92.22 100.215 92.22C104.777 92.1427 108.837 92.0267 112.395 91.872ZM94.8788 132.24C94.8788 132.24 94.8788 132.627 94.8788 133.4C94.8788 134.173 94.8788 134.56 94.8788 134.56H73.0708C73.0708 134.56 73.0708 134.173 73.0708 133.4C73.0708 132.627 73.0708 132.24 73.0708 132.24H94.8788ZM97.5468 116.928C97.2375 121.336 97.0828 124.7 97.0828 127.02C97.1601 129.34 97.1988 131.467 97.1988 133.4C97.1988 135.333 97.2375 137.46 97.3148 139.78C97.3921 142.1 97.5854 145.464 97.8948 149.872H95.2268C94.9174 147.243 94.3374 144.768 93.4868 142.448C92.6361 140.051 91.3215 138.156 89.5428 136.764C87.8414 135.295 85.3668 134.56 82.1188 134.56V132.24C84.5161 132.24 86.4881 131.737 88.0348 130.732C89.5814 129.727 90.7801 128.451 91.6308 126.904C92.5588 125.28 93.2548 123.617 93.7188 121.916C94.2601 120.137 94.6468 118.475 94.8788 116.928H97.5468ZM147.19 90.48C151.521 90.48 154.846 90.944 157.166 91.872C159.486 92.8 161.497 93.8053 163.198 94.888C164.126 95.4293 164.861 95.8547 165.402 96.164C166.021 96.396 166.601 96.512 167.142 96.512C167.916 96.512 168.457 96.0867 168.766 95.236C169.153 94.3853 169.462 93.1093 169.694 91.408H172.362C172.285 92.8773 172.169 94.5787 172.014 96.512C171.937 98.4453 171.86 101.036 171.782 104.284C171.782 107.455 171.782 111.669 171.782 116.928H169.114C168.882 112.984 167.993 109.195 166.446 105.56C164.977 101.925 162.85 98.948 160.066 96.628C157.36 94.2307 153.88 93.032 149.626 93.032C145.837 93.032 142.666 94.1533 140.114 96.396C137.64 98.6387 136.402 101.655 136.402 105.444C136.402 108.692 137.214 111.437 138.838 113.68C140.462 115.845 142.744 117.972 145.682 120.06C148.698 122.071 152.256 124.391 156.354 127.02C160.144 129.495 163.546 131.969 166.562 134.444C169.578 136.841 171.937 139.509 173.638 142.448C175.417 145.387 176.306 148.983 176.306 153.236C176.306 158.263 175.069 162.439 172.594 165.764C170.12 169.089 166.794 171.564 162.618 173.188C158.442 174.812 153.88 175.624 148.93 175.624C144.368 175.624 140.733 175.16 138.026 174.232C135.397 173.304 133.116 172.337 131.182 171.332C129.481 170.249 128.166 169.708 127.238 169.708C126.465 169.708 125.885 170.133 125.498 170.984C125.189 171.835 124.918 173.111 124.686 174.812H122.018C122.173 173.033 122.25 170.945 122.25 168.548C122.328 166.151 122.366 163.057 122.366 159.268C122.444 155.401 122.482 150.529 122.482 144.652H125.15C125.46 149.601 126.31 154.241 127.702 158.572C129.172 162.825 131.376 166.267 134.314 168.896C137.33 171.525 141.313 172.84 146.262 172.84C148.969 172.84 151.405 172.376 153.57 171.448C155.813 170.443 157.592 168.935 158.906 166.924C160.221 164.836 160.878 162.207 160.878 159.036C160.878 155.865 160.144 153.081 158.674 150.684C157.205 148.287 155.156 146.044 152.526 143.956C149.897 141.868 146.804 139.741 143.246 137.576C139.612 135.256 136.209 132.897 133.038 130.5C129.868 128.103 127.316 125.396 125.382 122.38C123.526 119.287 122.598 115.575 122.598 111.244C122.598 106.449 123.758 102.544 126.078 99.528C128.398 96.4347 131.414 94.1533 135.126 92.684C138.916 91.2147 142.937 90.48 147.19 90.48Z" fill="#201036"/>
<path d="M1 13L1.00001 176" stroke="#201036"/>
<path d="M188 13L188 176" stroke="#201036"/>
<path d="M13 188L176 188" stroke="#201036"/>
<path d="M13 1.00002L176 1" stroke="#201036"/>
</svg>
