<svg width="40" height="39" viewBox="0 0 40 39" fill="none" xmlns="http://www.w3.org/2000/svg">
<path d="M15.1614 33.6419V37.1144C15.0436 37.5774 14.525 38.3645 13.3936 37.8089C11.9794 37.1144 6.91929 36.0032 2.43321 27.3913C-1.3655 20.099 1.72613 1 19.7577 1C24.354 1.00016 34.4659 3.57008 38.143 13.8485C39.9108 19.9834 40.1231 33.295 26.8292 37.4617C26.122 37.5775 24.7078 37.5312 24.7078 36.42C24.7078 35.0309 25.7685 30.8639 23.6471 28.4331C28.1255 27.6229 35.7389 23.5716 30.3648 13.8485C30.7183 12.9225 31.1426 10.6537 30.0112 8.98691C29.7284 8.46913 26.3577 9.92868 24.7078 10.7232C22.4684 10.3759 17.4241 9.88977 15.1614 10.7232C14.3365 10.0287 12.1917 8.7091 10.2117 8.98691C9.85817 9.79716 9.29247 11.9038 9.85817 13.8485C7.50109 17.6683 5.54471 25.9329 16.5759 28.4331C16.2223 28.6646 15.5152 29.4054 15.5152 30.5166C14.2188 31.0954 11.3431 31.6973 10.2117 29.4749C9.62246 28.5489 7.94894 26.8358 5.96899 27.3914C5.85113 27.6229 5.82756 28.1553 6.67611 28.4331C7.7368 28.7804 8.09036 29.4749 9.50461 32.2529C10.636 34.4753 13.7472 34.1049 15.1614 33.6419Z" fill="#201036" stroke="#201036"/>
</svg>
