<svg width="47" height="34" viewBox="0 0 47 34" fill="none" xmlns="http://www.w3.org/2000/svg">
<path d="M2.90793 3.01754C3.49572 2.3777 4.23912 2.07908 4.72379 2C15.8459 2 38.8166 2 41.722 2C42.961 2 43.7487 2.43111 44.2329 3.01754M2.90793 3.01754C2.39463 3.5763 2 4.39529 2 5.55556V29.1111C2.04501 29.6839 2.2935 30.5975 2.90793 31.2438M2.90793 3.01754L17.176 16.8889M44.2329 3.01754C44.8842 3.80621 44.9865 4.87581 44.8997 5.55556C44.9754 12.5185 45.0813 26.9778 44.8997 29.1111C44.8344 29.8784 44.5322 30.4579 44.1262 30.8889M44.2329 3.01754C40.4921 6.64944 34.2204 12.7213 29.8695 16.8889M2.90793 31.2438C3.32638 31.6839 3.91457 32 4.72379 32C6.72124 32 30.2215 32 41.722 32C42.3518 31.9526 43.4035 31.6561 44.1262 30.8889M2.90793 31.2438L17.176 16.8889M17.176 16.8889L21.7475 21.3333C22.3528 21.7778 23.8811 22.4 25.1522 21.3333C25.6078 20.951 27.439 19.2171 29.8695 16.8889M44.1262 30.8889L29.8695 16.8889" stroke="#201036" stroke-width="3" stroke-linejoin="round"/>
</svg>
