<svg width="39" height="39" viewBox="0 0 39 39" fill="none" xmlns="http://www.w3.org/2000/svg">
<path d="M32.5588 24.9411V32.5587H27.1176V22.7646C26.5735 17.8676 21.1324 18.9558 21.1324 22.7646V32.5587H15.6912V15.147H21.1324V17.3235C21.1324 15.147 28.2059 12.9705 30.9265 16.2352C31.3799 16.7794 32.5588 18.1019 32.5588 20.0441M32.5588 24.9411C32.5588 24.0613 32.5588 22.2205 32.5588 20.0441M32.5588 24.9411V20.0441M1 5.35306V33.6471C1 34.9167 1.87059 37.5647 5.35294 38H34.1912C35.8235 37.9999 38 37.5647 38 33.6471V6.44129C38 4.99031 37.2366 1.00038 33.6471 1.00013C29.8382 0.999864 12.4265 1.00003 4.26471 1.00039C3.17647 1.00033 1 2.08825 1 5.35306ZM6.44118 15.147V32.5587H12.4265V15.147H6.44118ZM9.70588 6.44116C8.07353 6.44116 6.44118 7.52939 6.44118 9.70585C6.44118 12.3176 8.61765 12.9705 9.70588 12.9705C10.7941 12.9705 12.9706 12.4264 12.9706 9.70585C12.9706 7.52939 11.3382 6.44116 9.70588 6.44116Z" stroke="#201036"/>
</svg>
