<svg width="37" height="37" viewBox="0 0 37 37" fill="none" xmlns="http://www.w3.org/2000/svg">
<path fill-rule="evenodd" clip-rule="evenodd" d="M0 4.35306V32.6471C0 33.9167 0.870588 36.5647 4.35294 37H33.1912C34.8235 36.9999 37 36.5647 37 32.6471V5.44129C37 3.99031 36.2366 0.000384914 32.6471 0.000132237C28.8382 -0.000135877 11.4265 3.10774e-05 3.26471 0.000387799C2.17647 0.000325033 0 1.08825 0 4.35306ZM5.44118 31.5587V14.147H11.4265V31.5587H5.44118ZM5.44118 8.70585C5.44118 6.52939 7.07353 5.44116 8.70588 5.44116C10.3382 5.44116 11.9706 6.52939 11.9706 8.70585C11.9706 11.4264 9.79412 11.9705 8.70588 11.9705C7.61765 11.9705 5.44118 11.3176 5.44118 8.70585ZM14.6912 31.5587V14.147H20.1324V16.3235C20.1324 14.147 27.2059 11.9705 29.9265 15.2352C30.3799 15.7794 31.5588 17.1019 31.5588 19.0441V23.9411V31.5587H26.1176V21.7646C25.5735 16.8676 20.1324 17.9558 20.1324 21.7646V31.5587H14.6912Z" fill="#201036"/>
</svg>
