<svg width="38" height="37" viewBox="0 0 38 37" fill="none" xmlns="http://www.w3.org/2000/svg">
<path d="M14.1614 32.6419V36.1144C14.0436 36.5774 13.525 37.3645 12.3936 36.8089C10.9794 36.1144 5.91929 35.0032 1.43321 26.3913C-2.3655 19.099 0.726128 4.88329e-09 18.7577 0C23.3541 0.000159843 33.4659 2.57008 37.143 12.8485C38.9108 18.9834 39.1231 32.295 25.8292 36.4617C25.122 36.5775 23.7078 36.5312 23.7078 35.42C23.7078 34.0309 24.7685 29.8639 22.6471 27.4331C27.1255 26.6229 34.7389 22.5716 29.3648 12.8485C29.7183 11.9225 30.1426 9.65372 29.0112 7.98691C28.7284 7.46913 25.3577 8.92868 23.7078 9.72318C21.4684 9.37592 16.4241 8.88977 14.1614 9.72318C13.3365 9.02867 11.1917 7.7091 9.21173 7.98691C8.85817 8.79716 8.29247 10.9038 8.85817 12.8485C6.50109 16.6683 4.54471 24.9329 15.5759 27.4331C15.2223 27.6646 14.5152 28.4054 14.5152 29.5166C13.2188 30.0954 10.3431 30.6973 9.21173 28.4749C8.62246 27.5489 6.94894 25.8358 4.96899 26.3914C4.85113 26.6229 4.82756 27.1553 5.67611 27.4331C6.7368 27.7804 7.09036 28.4749 8.50461 31.2529C9.63601 33.4753 12.7472 33.1049 14.1614 32.6419Z" fill="#201036"/>
</svg>
