<svg width="45" height="32" viewBox="0 0 45 32" fill="none" xmlns="http://www.w3.org/2000/svg">
<path d="M1.90793 2.01754C2.49572 1.3777 3.23912 1.07908 3.72379 1C14.8459 1 37.8166 1 40.722 1C41.961 1 42.7487 1.43111 43.2329 2.01754M1.90793 2.01754C1.39463 2.5763 1 3.39529 1 4.55556V28.1111C1.04501 28.6839 1.2935 29.5975 1.90793 30.2438M1.90793 2.01754L16.176 15.8889M43.2329 2.01754C43.8842 2.80621 43.9865 3.87581 43.8997 4.55556C43.9754 11.5185 44.0813 25.9778 43.8997 28.1111C43.8344 28.8784 43.5322 29.4579 43.1262 29.8889M43.2329 2.01754C39.4921 5.64944 33.2204 11.7213 28.8695 15.8889M1.90793 30.2438C2.32638 30.6839 2.91457 31 3.72379 31C5.72124 31 29.2215 31 40.722 31C41.3518 30.9526 42.4035 30.6561 43.1262 29.8889M1.90793 30.2438L16.176 15.8889M16.176 15.8889L20.7475 20.3333C21.3528 20.7778 22.8811 21.4 24.1522 20.3333C24.6078 19.951 26.439 18.2171 28.8695 15.8889M43.1262 29.8889L28.8695 15.8889" stroke="#201036" stroke-linejoin="round"/>
</svg>
