<svg width="39" height="39" viewBox="0 0 39 39" fill="none" xmlns="http://www.w3.org/2000/svg">
<path d="M37.7158 33.6471C37.7158 37.5647 35.5394 37.9999 33.907 38H5.06876C1.58641 37.5647 0.71582 34.9167 0.71582 33.6471V5.35306C0.71582 2.08825 2.89229 1.00033 3.98053 1.00039C12.1423 1.00003 29.5541 0.999864 33.3629 1.00013C36.9524 1.00038 37.7158 4.99031 37.7158 6.44129M37.7158 33.6471C37.7158 29.7294 37.7158 13.8775 37.7158 6.44129M37.7158 33.6471V6.44129" stroke="#201036"/>
<path d="M32.2746 24.9411V32.5587H26.8335V22.7646C26.2893 17.8676 20.8482 18.9558 20.8482 22.7646V32.5587H15.407V15.147H20.8482V17.3235C20.8482 15.147 27.9217 12.9705 30.6423 16.2352C31.0957 16.7794 32.2746 18.1019 32.2746 20.0441M32.2746 24.9411C32.2746 24.0613 32.2746 22.2205 32.2746 20.0441M32.2746 24.9411V20.0441M0.71582 5.35306V33.6471C0.71582 34.9167 1.58641 37.5647 5.06876 38H33.907C35.5394 37.9999 37.7158 37.5647 37.7158 33.6471V6.44129C37.7158 4.99031 36.9524 1.00038 33.3629 1.00013C29.5541 0.999864 12.1423 1.00003 3.98053 1.00039C2.89229 1.00033 0.71582 2.08825 0.71582 5.35306ZM6.157 15.147V32.5587H12.1423V15.147H6.157ZM9.4217 6.44116C7.78935 6.44116 6.157 7.52939 6.157 9.70585C6.157 12.3176 8.33347 12.9705 9.4217 12.9705C10.5099 12.9705 12.6864 12.4264 12.6864 9.70585C12.6864 7.52939 11.0541 6.44116 9.4217 6.44116Z" stroke="#201036"/>
</svg>
