<svg width="52" height="52" viewBox="0 0 52 52" fill="none" xmlns="http://www.w3.org/2000/svg">
<g clip-path="url(#clip0_514_2004)">
<path d="M30.9232 25.2769C30.8379 26.1918 30.7741 27.0748 30.7317 27.9259C30.7103 28.7769 30.6998 29.4259 30.6998 29.8727C30.6998 30.3622 30.7103 30.8194 30.7317 31.2451C30.7529 31.6707 30.7741 32.043 30.7956 32.3621H30.0615C29.8274 30.7663 29.5082 29.5109 29.1041 28.5961C28.6996 27.6598 28.157 27.0003 27.4763 26.6173C26.7954 26.2131 25.8912 26.011 24.7635 26.011H23.3911C22.7528 26.011 22.2635 26.0641 21.923 26.1705C21.5826 26.2769 21.3486 26.5003 21.2209 26.8408C21.1145 27.1812 21.0613 27.7025 21.0613 28.4046V44.3623C21.0613 45.1709 21.1464 45.7773 21.3167 46.1815C21.4868 46.5856 21.8166 46.8517 22.306 46.9793C22.7954 47.107 23.4975 47.1816 24.4124 47.2027V47.873C23.7954 47.8303 22.9975 47.8091 22.0188 47.8091C21.04 47.788 20.0294 47.7772 18.9868 47.7772C18.0932 47.7772 17.2315 47.788 16.4017 47.8091C15.5719 47.8091 14.8485 47.8303 14.2314 47.873V47.2347C14.9336 47.192 15.4548 47.107 15.7953 46.9793C16.157 46.8517 16.391 46.5964 16.4974 46.2134C16.6251 45.8304 16.6889 45.2559 16.6889 44.4899V28.6599C16.6889 27.8728 16.6251 27.2982 16.4974 26.9365C16.391 26.5535 16.157 26.2982 15.7953 26.1705C15.4548 26.0216 14.9336 25.9365 14.2314 25.9152V25.2769C15.0825 25.2982 15.9761 25.3195 16.9123 25.3407C17.8698 25.3407 18.806 25.3514 19.7209 25.3727C20.6571 25.3727 21.5188 25.3727 22.306 25.3727C23.1145 25.3727 23.7635 25.3727 24.2529 25.3727C25.2316 25.3727 26.338 25.3727 27.5721 25.3727C28.8273 25.3514 29.9443 25.3195 30.9232 25.2769ZM26.104 36.3834C26.104 36.3834 26.104 36.4899 26.104 36.7026C26.104 36.9153 26.104 37.0217 26.104 37.0217H20.1039C20.1039 37.0217 20.1039 36.9153 20.1039 36.7026C20.1039 36.4899 20.1039 36.3834 20.1039 36.3834H26.104ZM26.838 32.1706C26.7529 33.3834 26.7103 34.3089 26.7103 34.9473C26.7316 35.5856 26.7423 36.1708 26.7423 36.7026C26.7423 37.2344 26.7529 37.8196 26.7742 38.4579C26.7954 39.0962 26.8486 40.0218 26.9338 41.2346H26.1997C26.1146 40.5113 25.955 39.8303 25.721 39.192C25.4869 38.5325 25.1252 38.0111 24.6358 37.6281C24.1677 37.224 23.4869 37.0217 22.5933 37.0217V36.3834C23.2528 36.3834 23.7954 36.2451 24.2209 35.9685C24.6465 35.692 24.9763 35.341 25.2103 34.9153C25.4656 34.4685 25.6571 34.011 25.7848 33.543C25.9337 33.0535 26.0401 32.5962 26.104 32.1706H26.838ZM40.4965 24.8939C41.6881 24.8939 42.6029 25.0216 43.2412 25.2769C43.8795 25.5322 44.4328 25.8088 44.9008 26.1067C45.1561 26.2556 45.3583 26.3727 45.5072 26.4578C45.6775 26.5216 45.837 26.5535 45.9859 26.5535C46.1988 26.5535 46.3477 26.4365 46.4327 26.2024C46.5392 25.9684 46.6242 25.6173 46.688 25.1492H47.4221C47.4009 25.5535 47.369 26.0216 47.3263 26.5535C47.3052 27.0854 47.284 27.7982 47.2625 28.6918C47.2625 29.5643 47.2625 30.7237 47.2625 32.1706H46.5285C46.4646 31.0855 46.22 30.043 45.7944 29.0429C45.3902 28.0428 44.805 27.2237 44.0391 26.5854C43.2945 25.9259 42.3371 25.5961 41.1667 25.5961C40.1242 25.5961 39.2518 25.9046 38.5496 26.5216C37.8689 27.1386 37.5283 27.9685 37.5283 29.011C37.5283 29.9046 37.7517 30.6599 38.1985 31.277C38.6454 31.8727 39.2732 32.4579 40.0816 33.0323C40.9114 33.5856 41.8903 34.2239 43.0178 34.9473C44.0605 35.6282 44.9965 36.3089 45.8263 36.9898C46.6561 37.6493 47.3052 38.3834 47.7732 39.192C48.2626 40.0006 48.5072 40.99 48.5072 42.1601C48.5072 43.5432 48.1669 44.6922 47.4859 45.607C46.8052 46.5218 45.8901 47.2027 44.7412 47.6496C43.5922 48.0964 42.3371 48.3198 40.9752 48.3198C39.72 48.3198 38.7199 48.1921 37.9751 47.9368C37.2518 47.6815 36.6242 47.4154 36.0921 47.1389C35.6241 46.8409 35.2623 46.6921 35.007 46.6921C34.7943 46.6921 34.6348 46.809 34.5283 47.0432C34.4433 47.2773 34.3687 47.6284 34.3049 48.0964H33.5708C33.6135 47.6069 33.6347 47.0324 33.6347 46.3729C33.6561 45.7135 33.6666 44.8622 33.6666 43.8197C33.688 42.7558 33.6985 41.4153 33.6985 39.7984H34.4325C34.5178 41.16 34.7517 42.4366 35.1347 43.6282C35.5391 44.7984 36.1455 45.7454 36.9538 46.4687C37.7836 47.192 38.8795 47.5538 40.2411 47.5538C40.9859 47.5538 41.6561 47.4262 42.2518 47.1708C42.8689 46.8943 43.3584 46.4794 43.7199 45.9261C44.0817 45.3517 44.2625 44.6283 44.2625 43.7559C44.2625 42.8834 44.0605 42.1175 43.6561 41.458C43.2519 40.7985 42.6882 40.1814 41.9646 39.6069C41.2412 39.0324 40.3903 38.4472 39.4113 37.8516C38.4115 37.2132 37.4752 36.5642 36.6028 35.9047C35.7306 35.2452 35.0285 34.5004 34.4964 33.6706C33.9857 32.8197 33.7304 31.7984 33.7304 30.6068C33.7304 29.2875 34.0496 28.2131 34.6879 27.3833C35.3262 26.5323 36.156 25.9046 37.1773 25.5003C38.22 25.0961 39.3263 24.8939 40.4965 24.8939Z" fill="#201036"/>
<path d="M0.275391 3.57666L0.275401 48.4232" stroke="#201036"/>
<path d="M51.7246 3.57666V48.4232" stroke="#201036"/>
<path d="M3.57715 51.7249H48.4237" stroke="#201036"/>
<path d="M3.57715 0.27516L48.4237 0.275146" stroke="#201036"/>
</g>
<defs>
<clipPath id="clip0_514_2004">
<rect width="52" height="52" fill="white"/>
</clipPath>
</defs>
</svg>
