<svg width="176" height="133" viewBox="0 0 176 133" fill="none" xmlns="http://www.w3.org/2000/svg">
<path d="M40.4846 86.0997H20.0731V93.4706H12.3769V99.1662H6.01923V105.532H2.00385V109.887H1V113.573H4.68077V118.934H11.0385V126.639H20.0731V132H25.0923M40.4846 86.0997V76.7187H33.4577V41.8747M40.4846 86.0997H50.1885V89.7852H59.5577V96.1509M138.192 86.0997H154.588V93.4706H162.285V99.1662H169.312V105.532H172.323V109.887H175V113.573H170.65V118.934H162.285V126.639H154.588V132H152.246M138.192 86.0997V76.7187H144.885V41.8747M138.192 86.0997H128.823V89.7852H118.45V96.1509M152.246 132V108.882H143.212V101.512H128.823V96.1509H118.45M152.246 132H128.823M118.45 96.1509H59.5577M25.0923 132V108.882H35.4654V101.512H50.1885V96.1509H59.5577M25.0923 132H50.1885M33.4577 41.8747H21.0769V36.8491H17.3962V15.7417H22.4154V5.02047H27.1V1.33504H48.85V5.02047M33.4577 41.8747V27.8031H37.1385V22.4425H41.8231V15.7417H48.85V5.02047M144.885 41.8747H157.6V36.8491H160.946V15.7417H155.927V5.02047H151.242V1H130.162V5.02047M144.885 41.8747V27.8031H141.538V22.4425H136.519V15.7417H130.162V5.02047M130.162 5.02047H118.785V1.33504H59.8923V5.02047H48.85M50.1885 132V118.934H70.6V112.233H107.073V118.934H128.823V132M50.1885 132H128.823M74.6154 34.8389V50.5857H53.5346V41.8747H63.2385V29.4783H66.25M74.6154 34.8389H79.6346V29.8133H75.9538V26.1279H71.2692V24.4527H66.25V22.4425H61.5654V20.7673H56.5462V25.7928H61.5654V27.8031H66.25V29.4783M74.6154 34.8389V31.4885H71.2692V29.4783H66.25M112.092 29.4783H115.438V41.8747H124.808V50.5857H104.062V34.8389M112.092 29.4783V27.8031H116.777V26.1279H121.796V21.1023H116.777V22.7775H112.092V24.4527H107.408V25.7928H102.388V29.4783H99.0423V34.8389H104.062M112.092 29.4783H107.408V31.4885H104.062V34.8389M74.6154 78.7289H77.6269V82.4143H84.3192V78.7289H87.6654V76.7187H89.1712M103.727 78.7289H100.715V82.4143H94.3577V78.7289H90.6769V76.7187H89.1712M89.1712 69.6829H87.6654H86.6615V68.0077H84.6538V64.6573H82.6462V57.6215H95.3615V64.6573H94.0231V68.0077H92.0154V69.6829H90.6769H89.1712ZM89.1712 69.6829V76.7187" stroke="#201036"/>
</svg>
