<svg width="199" height="173" viewBox="0 0 199 173" fill="none" xmlns="http://www.w3.org/2000/svg">
<path d="M29.9374 28.2172C51.0355 53.9705 84.3388 61.4308 98.3533 61.9418C92.238 22.4687 135.428 11.7383 154.156 32.0496C160.883 31.4364 170.719 26.4288 174.796 24.0017C172.35 32.8927 164.603 39.7143 161.036 42.0137C166.846 42.0137 175.433 38.9478 179 37.4149C174.108 45.3861 166.26 51.9777 162.947 54.2771C162.947 150.469 64.3365 169.63 20 137.822C43.5442 139.968 61.6611 129.519 67.7764 124.026C46.6784 121.879 38.601 107.802 37.1995 101.032C43.6207 101.645 49.3029 101.032 51.3413 100.648C30.8548 96.0496 25.7332 77.0156 25.7332 68.0735C30.9312 70.8328 37.5817 71.5226 40.2571 71.5226C20.6879 57.1131 25.2235 36.6484 29.9374 28.2172Z" stroke="#201036"/>
</svg>
