<svg width="163" height="175" viewBox="0 0 163 175" fill="none" xmlns="http://www.w3.org/2000/svg">
<path d="M129.608 8.14503L131.048 5.26893L126.009 1.43414C112.332 2.62904 112.572 8.86406 106.094 14.8559C100.911 19.6494 92.4173 19.5695 88.8182 18.9304L81.1401 26.3603L73.462 18.9304C63.4805 20.0808 58.8256 15.5715 55.2265 12.2161C44.9091 2.14969 39.7904 0.315658 36.0313 1.19447L31.4724 5.50861L32.9121 7.66568M129.608 8.14503L142.565 21.0875M129.608 8.14503C127.609 7.02655 121.69 5.26893 117.851 10.059C113.858 15.0409 104.174 24.4429 90.2578 23.9636L84.0194 29.7158V58.4768C88.1783 58.5566 97.9359 57.5181 103.694 52.7246C102.927 56.5594 107.214 61.1931 109.453 63.0306C105.038 65.5232 102.975 69.342 102.495 70.9398V79.3284H131.288C129.368 76.9317 123.849 58.4768 126.009 41.9392C127.475 30.71 137.526 23.344 142.565 21.0875M142.565 21.0875C145.604 21.1674 152.162 22.8611 154.082 28.9967C156.481 36.6663 151.95 43.4974 144.724 46.9724C143.609 47.5087 142.658 47.9172 141.845 48.2614M137.046 55.8403C138.406 56.3996 141.989 56.5114 145.444 52.4849L141.845 48.2614M137.046 55.8403C137.245 50.0861 137.937 49.917 141.845 48.2614M137.046 55.8403C135.687 55.0112 132.583 52.8438 131.048 50.8072C130.888 48.4104 132.727 42.4185 139.686 40.2615C143.285 40.0218 147.844 38.8234 148.083 33.0712C148.383 25.8872 138.246 29.7158 138.006 30.6745C134.807 32.7516 129.128 41.364 132.007 59.1958C135.607 81.4855 147.124 102.337 162 113.123C155.842 119.274 142.565 133.687 138.726 142.123L130.328 136.131C129.128 138.928 122.794 146.006 107.054 151.95C87.3785 159.38 83.5395 167.768 83.7794 174H78.5007C78.9006 168.647 73.462 157.508 57.1461 152.909C49.228 150.272 36.4632 143.609 33.392 136.131C30.9925 137.729 25.8098 141.308 24.2742 142.842C19.4754 134.534 8.10224 117.053 1 113.602C11.1575 104.494 31.4724 80.1913 31.4724 55.8403C31.8723 47.9311 30.4647 31.3935 21.6349 28.5174C18.6756 27.7984 12.6611 27.5587 12.2772 32.3522C11.8933 37.1457 17.8758 39.3028 20.9151 39.7821C24.5142 40.6609 31.4244 43.9525 30.2727 50.0881C29.4648 54.3923 26.9188 56.13 24.0343 56.0214M21.155 48.4104L17.3159 52.7246C19.3164 54.7228 21.7788 55.9365 24.0343 56.0214M21.155 48.4104C23.7943 49.6496 28.0653 52.9067 24.0343 56.0214M21.155 48.4104C16.2762 46.493 6.80656 40.4532 7.95827 31.6332C9.10999 22.8131 15.7963 21.407 18.9955 21.8065M18.9955 21.8065L32.9121 7.66568M18.9955 21.8065C28.5931 24.4395 32.9121 29.233 36.0313 41.9392C38.8373 53.3693 34.6716 71.4991 31.9523 79.5681H58.8256V70.9398C58.5057 69.1023 56.5702 65.0438 51.3875 63.5099C55.9943 60.4421 57.6259 55.0414 57.8659 52.7246C63.2405 57.1346 73.7019 58.3969 78.2608 58.4768V29.7158L72.2623 23.4842C60.7452 24.6826 45.6289 11.2573 41.5499 8.62438C38.1223 6.4119 34.6716 6.70698 32.9121 7.66568M61.7049 109.527C65.9279 106.843 74.6617 105.373 78.5007 104.974V161.537C76.9011 159.06 71.5905 153.34 63.1446 150.272C57.546 147.954 45.197 142.359 40.5902 138.525C35.9833 134.69 35.1515 128.461 35.3115 125.825L25.7139 134.454C22.3547 129.341 14.3887 118.108 9.39791 114.081C14.9965 107.77 26.7216 93.0378 28.8331 84.6013H58.8256V93.4693C58.1858 95.7062 56.3303 100.324 54.0268 100.899C56.5062 103.615 61.465 109.144 61.465 109.527M133.927 84.6013H102.495V91.7915C102.735 94.1084 104.702 99.557 107.773 100.899C105.454 103.695 100.767 109.336 100.575 109.527C100.335 109.767 96.2563 106.172 83.7794 104.974V161.537C87.6185 155.305 101.295 149.553 114.972 143.082C125.913 137.905 127.689 129.74 127.209 126.305L136.806 134.454C140.069 127.551 149.043 117.676 153.122 113.602C147.172 109.575 137.846 92.5905 133.927 84.6013ZM68.6632 97.1096H76.5812L74.6617 95.1922V83.2085H87.6185V95.1922L85.699 97.1096H93.3771L91.6975 95.4319V69.3073C92.1773 68.4285 93.569 66.623 95.2966 66.4312H84.2593C85.619 67.1503 88.1943 68.7321 87.6185 69.3073V78.8943H74.6617V68.5883C74.8217 68.109 75.6215 67.0064 77.541 66.4312H66.7437C68.1033 66.9106 70.7267 68.0131 70.3428 68.5883V95.1922L68.6632 97.1096Z" stroke="#201036"/>
</svg>
