<svg width="119" height="186" viewBox="0 0 119 186" fill="none" xmlns="http://www.w3.org/2000/svg">
<g clip-path="url(#clip0_506_42)">
<path d="M85.6369 97.4914C84.9759 95.7288 84.0801 93.2036 83.1789 90.1128C82.2284 86.8552 81.6112 84.74 81.4037 82.8707C81.1579 80.6435 81.1742 75.891 85.6369 69.5782C85.8581 69.4853 86.1858 69.3514 86.5928 69.2065C89.7117 68.0915 92.3117 68.1298 93.1474 68.1134C95.529 68.0697 101.677 67.2662 103.935 63.8775C106.213 60.456 103.924 55.3073 103.253 53.9026C100.177 49.6312 98.3529 45.9008 97.2441 43.2445C96.392 41.2031 95.0647 37.6367 92.1533 33.6276C90.6157 31.5097 89.6598 30.8511 88.6411 30.2635C87.6142 29.6705 85.5304 29.7251 81.4037 29.8536C78.9757 29.9301 77.7576 30.064 75.9414 29.5803C74.7479 29.2633 73.8166 28.8178 73.2103 28.4872C74.3383 26.9021 74.6605 26.2107 74.7124 25.891C74.7315 25.7789 74.7889 25.369 74.9063 24.9071C74.9855 24.5847 74.9855 24.7049 74.9855 23.978C74.9855 23.978 75.8049 23.978 76.3511 22.6115C76.8973 21.2451 76.3511 16.0527 76.3511 16.0527C76.3511 16.0527 76.3511 15.2329 75.2586 14.6863C75.0647 13.4237 74.7234 11.8769 74.0979 10.1771C73.4889 8.51827 72.7706 7.14912 72.1179 6.07784C71.6672 5.47388 71.0254 4.76881 70.1378 4.13206C67.7262 2.39944 65.1208 2.35025 64.0611 2.3885H61.8762C61.8926 2.2546 61.8981 2.05237 61.8161 1.82827C61.6058 1.24618 61.005 1.04941 60.9203 1.02208C60.71 0.975625 60.4697 0.937365 60.2048 0.918236C59.6749 0.882709 59.2188 0.945564 58.872 1.02208C58.872 1.02208 53.956 -1.43748 51.498 1.84194C49.04 5.12135 48.2206 3.75493 47.1282 9.22061C47.1282 9.22061 45.2164 10.8603 43.5778 13.3199C43.5778 13.3199 43.0315 14.9596 41.9391 17.1459C41.9391 17.1459 41.1198 23.4314 39.208 24.7978C39.208 24.7978 40.8466 24.2512 41.666 22.6115C41.666 22.6115 41.3929 29.4436 36.75 32.1765L44.124 29.1704C43.6078 31.2309 42.6464 32.4143 41.8681 33.1002C41.8025 33.1603 41.7343 33.215 41.666 33.2696C44.124 32.0863 46.582 30.9003 49.04 29.7169C47.4013 30.8101 47.9475 32.4498 47.9475 32.4498C47.9475 32.4498 47.9475 31.0834 51.498 29.9902C55.0484 28.8971 55.8678 25.0711 55.8678 25.0711C55.8678 25.0711 55.8678 23.978 56.6871 23.7047C56.6871 23.7047 58.0526 28.2221 57.0968 30.4712C56.0425 31.1763 54.7671 31.9141 53.2732 32.5864C50.9053 33.6468 48.7259 34.2015 46.9916 34.4994C45.9265 34.7809 44.8313 35.1389 43.7143 35.5925C36.0918 38.6889 31.5226 44.6219 29.1029 48.5736C28.8024 49.1092 28.4447 49.6749 28.0104 50.246C26.6176 52.088 25.0253 53.2822 23.7772 54.0392C22.9169 54.4601 22.1522 54.6186 21.6415 54.6897C21.1226 54.758 19.6915 54.8782 18.0692 54.2114C17.3427 53.9108 16.8347 53.5009 16.5397 53.2221L15.9935 52.6755C15.9935 52.6755 15.4473 51.0358 13.5355 49.1229C13.5355 49.1229 13.5355 47.2099 12.7162 47.2099C12.7162 47.2099 11.6237 47.4831 11.3506 49.1229L9.16575 47.7564C9.16575 47.7564 5.34219 42.564 3.97664 42.2907C3.97664 42.2907 2.61108 41.7442 3.1573 43.9304C3.1573 43.9304 0.153079 40.651 1.24552 44.7503C1.24552 44.7503 0.153079 44.2037 0.699302 46.39C0.699302 46.39 3.70352 50.7626 4.24975 51.0358C4.24975 51.0358 2.06486 49.6694 1.24552 48.8496C1.16086 48.7648 0.917793 48.5544 0.650144 48.5981C0.407075 48.6391 0.204971 48.8824 0.153079 49.1229C0.0738772 49.4781 0.322408 49.8061 0.426191 49.9427C1.17998 50.9429 5.25753 54.0447 5.6153 54.3153C5.6153 54.3153 9.16575 58.1412 11.6237 57.8679C12.8937 59.0485 14.2347 60.2455 15.6521 61.4534C17.299 62.8581 18.9213 64.1672 20.4999 65.3833C21.0488 65.6456 22.0675 66.0473 23.4003 66.0665C24.8451 66.0883 25.9484 65.6511 26.5083 65.3833C36.1601 58.4883 39.0714 56.1681 38.9349 55.955C38.9349 55.955 38.9239 55.9386 38.9239 55.9358C38.9731 55.8511 43.3593 58.3079 44.9433 63.0603C43.0561 66.46 41.1662 70.5183 39.6176 75.2215C38.6536 78.1484 36.9166 84.0786 36.3021 91.859C35.9061 96.8793 36.0781 101.369 36.4769 105.146C36.5342 108.245 36.4059 111.59 36.171 115.154C35.7941 120.789 34.9748 127.692 33.1995 132.748C32.2191 134.844 30.7388 138.397 29.7856 142.996C27.8247 152.441 29.9604 157.218 28.0104 166.089C27.4096 168.816 26.1997 172.956 23.444 177.812C23.444 177.812 21.7289 181.119 21.7289 181.392C21.7289 181.578 21.3465 184.688 22.9251 185.609C24.0448 186.262 25.547 185.511 26.6449 184.945C27.9858 184.256 30.7224 182.521 32.7899 178.25C33.1941 176.659 33.571 174.924 33.8823 173.057C34.2155 171.062 34.4313 169.188 34.5651 167.455C34.5651 167.455 45.2164 146.139 44.9433 138.76C46.7704 136.202 49.2503 132.3 51.3614 127.146C52.9755 123.205 53.2787 121.21 54.9119 117.034C56.1218 113.938 58.0608 109.647 61.1934 104.736C65.5359 111.669 69.7882 116.405 72.9372 119.494C74.8818 121.401 76.4166 122.688 78.6725 125.233C82.6299 129.693 85.178 133.926 86.7293 136.847C86.7293 136.847 88.0949 149.418 92.1915 154.064L98.7462 167.455C99.5901 170.1 99.4618 171.609 99.1559 172.511C99.0821 172.729 98.8227 173.423 98.6097 174.424C98.5195 174.845 98.3693 175.55 98.3365 176.337C98.3065 177.036 98.3557 178.195 98.8828 179.616C100.934 180.422 104.023 181.461 107.895 182.076C110.091 182.425 118.148 183.693 118.82 181.802C119.202 180.723 117.042 179.007 116.089 178.25C113.674 176.331 111.981 176.408 108.988 174.424C107.745 173.601 106.828 172.787 106.257 172.237C104.517 163.41 103.146 156.417 102.843 154.884C102.761 154.471 102.551 153.504 102.395 152.197C102.198 150.558 102.22 149.429 102.029 147.74C101.636 144.302 100.292 139.386 99.0221 135.207C96.3619 126.454 97.2168 127.307 95.335 121.68C94.1934 118.264 92.4018 113.525 89.5997 108.016L85.6396 97.4942H85.6369V97.4914Z" stroke="#201036" stroke-miterlimit="10"/>
</g>
<defs>
<clipPath id="clip0_506_42">
<rect width="119" height="186" fill="white" transform="matrix(-1 0 0 1 119 0)"/>
</clipPath>
</defs>
</svg>
