<svg width="129" height="176" viewBox="0 0 129 176" fill="none" xmlns="http://www.w3.org/2000/svg">
<path d="M38.3981 39.9429C36.7785 36.8978 33.9412 34.4751 30.2434 38.2449C29.9719 40.4515 29.5945 44.9247 30.1951 45.5976C30.2112 45.6125 30.2273 45.6272 30.2434 45.6419C32.3195 47.5224 35.2407 47.2948 38.3981 39.9429Z" fill="#201036"/>
<path d="M60.7742 33.807C58.8927 33.7059 57.3581 34.4299 56.1447 35.5455C55.5877 36.9265 55.3034 40.3467 56.1447 42.4286C60.3666 45.778 63.2552 44.2351 65.021 41.6C64.7694 38.2857 62.085 35.0237 60.7742 33.807Z" fill="#201036"/>
<path d="M41.1052 141.029C39.9911 144.067 38.2644 151.137 40.2697 155.114C42.7762 160.086 39.434 167.543 37.7629 168.371M46.1182 161.743C46.9537 160.914 48.959 159.257 50.2958 159.257C51.9669 159.257 53.6379 159.257 56.98 162.571M63.6642 171.686C61.7147 168.648 58.8182 160.583 62.8287 152.629C66.4493 147.381 73.1892 135.726 71.184 131.086M70.3484 166.714C71.184 168.648 71.8524 172.68 67.8419 173.343M76.1971 168.371C77.3112 169.752 78.7037 172.846 75.3616 174.171M27.7366 164.229C26.6226 165.886 25.3971 169.863 29.4077 172.514M22.7237 163.4C21.0527 165.333 18.8804 169.863 23.5592 172.514M21.0523 155.114C17.1532 156.495 10.1914 160.086 12.6974 166.714C12.9759 167.543 14.2013 169.531 16.875 170.857M19.3816 150.971C22.7237 134.4 21.0526 126.943 21.0523 113.686C21.331 103.19 26.4002 78.5543 37.7632 70.6C25.2303 69.7714 5.84605 61.1543 28.5724 33.3143M78.7039 160.086C80.1576 160.536 81.872 161.363 83.2439 162.571M82.0461 175C87.4506 169.194 86.0778 165.068 83.2439 162.571M83.2439 162.571C86.7438 159.81 93.7434 152.297 93.7434 144.343C93.7434 134.4 95.4145 117.829 87.8947 106.229C80.375 94.6286 82.8816 68.9429 85.3882 64.8M91.2368 161.743C102.099 162.019 124.658 156.606 128 132.743C123.822 139.225 113.128 152.112 103.77 151.8C104.327 147.657 103.937 137.714 97.9211 131.086M91.2368 32.4857C92.6294 45.4667 86.5579 71.0971 51.1316 69.7714M14.3684 16.7429L11.8618 8.45714C17.989 9.28571 31.4132 12.2686 36.0921 17.5714C40.8268 13.7048 53.6382 7.96 67.0066 15.9143C69.7917 11.219 77.2 1.66286 84.5526 1C88.1732 6.52381 93.2421 21.2171 84.5526 35.8M1 55.6857C4.34211 52.6476 14.3684 47.2343 27.7368 49.8857M6.84868 63.9714C8.79825 60.3809 15.3711 53.0343 26.0658 52.3714M26.9013 54.0286C23.0022 56.7905 15.0368 63.64 14.3684 68.9429M59.4868 49.0571C65.614 46.019 81.7118 41.9314 97.0855 49.8857M64.5 50.7143C71.7412 50.7143 88.0618 52.3714 95.4145 59M62.8289 54.0286C67.5636 54.581 79.2053 57.84 87.8947 66.4571M39.4342 42.4286C39.1817 41.6273 38.834 40.7626 38.3981 39.9429M52.8026 41.6C53.6094 38.3154 56.1397 33.5579 60.7742 33.807M38.3981 39.9429C36.7785 36.8978 33.9412 34.4751 30.2434 38.2449M38.3981 39.9429C35.2407 47.2948 32.3195 47.5223 30.2434 45.6419M30.2434 38.2449C29.4466 39.0572 28.6099 40.157 27.7368 41.6C28.2634 43.0189 29.1121 44.5934 30.1951 45.5976M30.2434 38.2449C29.9719 40.4515 29.5945 44.9247 30.1951 45.5976M30.2434 45.6419C30.2273 45.6272 30.2112 45.6125 30.1951 45.5976M30.2434 45.6419C30.2267 45.6297 30.2106 45.6149 30.1951 45.5976M60.7742 33.807C62.5394 33.9019 64.6098 34.7231 67.0066 36.6286C66.6988 38.1547 66.0509 40.0631 65.021 41.6M60.7742 33.807C62.085 35.0237 64.7694 38.2857 65.021 41.6M60.7742 33.807C58.8927 33.7059 57.3581 34.4299 56.1447 35.5455C55.5877 36.9265 55.3034 40.3467 56.1447 42.4286C60.3666 45.778 63.2552 44.2351 65.021 41.6M43.1941 54.8571C45.8678 51.5429 46.9828 49.0905 46.1184 48.2286C44.1132 46.9029 40.8268 47.6762 39.4342 48.2286C38.5987 48.781 37.9303 50.88 41.9408 54.8571M43.1941 54.8571H41.9408M43.1941 54.8571C44.7259 58.1714 50.1289 63.9714 59.4868 60.6571M41.9408 54.8571C42.2193 55.9619 41.6066 58.3371 36.9276 59" stroke="#201036" stroke-linecap="round" stroke-linejoin="round"/>
</svg>
