<svg width="199" height="173" viewBox="0 0 199 173" fill="none" xmlns="http://www.w3.org/2000/svg">
<path d="M51.4846 106.1H31.0731V113.471H23.3769V119.166H17.0192V125.532H13.0038V129.887H12V133.573H15.6808V138.934H22.0385V146.639H31.0731V152H36.0923M51.4846 106.1V96.7187H44.4577V61.8747M51.4846 106.1H61.1885V109.785H70.5577V116.151M149.192 106.1H165.588V113.471H173.285V119.166H180.312V125.532H183.323V129.887H186V133.573H181.65V138.934H173.285V146.639H165.588V152H163.246M149.192 106.1V96.7187H155.885V61.8747M149.192 106.1H139.823V109.785H129.45V116.151M163.246 152V128.882H154.212V121.512H139.823V116.151H129.45M163.246 152H139.823M129.45 116.151H70.5577M36.0923 152V128.882H46.4654V121.512H61.1885V116.151H70.5577M36.0923 152H61.1885M44.4577 61.8747H32.0769V56.8491H28.3962V35.7417H33.4154V25.0205H38.1V21.335H59.85V25.0205M44.4577 61.8747V47.8031H48.1385V42.4425H52.8231V35.7417H59.85V25.0205M155.885 61.8747H168.6V56.8491H171.946V35.7417H166.927V25.0205H162.242V21H141.162V25.0205M155.885 61.8747V47.8031H152.538V42.4425H147.519V35.7417H141.162V25.0205M141.162 25.0205H129.785V21.335H70.8923V25.0205H59.85M61.1885 152V138.934H81.6V132.233H118.073V138.934H139.823V152M61.1885 152H139.823M85.6154 54.8389V70.5857H64.5346V61.8747H74.2385V49.4783H77.25M85.6154 54.8389H90.6346V49.8133H86.9538V46.1279H82.2692V44.4527H77.25V42.4425H72.5654V40.7673H67.5462V45.7928H72.5654V47.8031H77.25V49.4783M85.6154 54.8389V51.4885H82.2692V49.4783H77.25M123.092 49.4783H126.438V61.8747H135.808V70.5857H115.062V54.8389M123.092 49.4783V47.8031H127.777V46.1279H132.796V41.1023H127.777V42.7775H123.092V44.4527H118.408V45.7928H113.388V49.4783H110.042V54.8389H115.062M123.092 49.4783H118.408V51.4885H115.062V54.8389M85.6154 98.7289H88.6269V102.414H95.3192V98.7289H98.6654V96.7187H100.171M114.727 98.7289H111.715V102.414H105.358V98.7289H101.677V96.7187H100.171M100.171 89.6829H98.6654H97.6615V88.0077H95.6538V84.6573H93.6462V77.6215H106.362V84.6573H105.023V88.0077H103.015V89.6829H101.677H100.171ZM100.171 89.6829V96.7187" stroke="#201036"/>
</svg>
