<svg width="304" height="85" viewBox="0 0 304 85" fill="none" xmlns="http://www.w3.org/2000/svg">
<path d="M94.3583 68.2189V81.9442H103.553M110.272 68.2189V82.6481M118.759 83V68.5708L130.075 82.6481V68.2189M149.878 71.7382C148.11 67.867 137.855 67.859 137.855 75.6094C137.855 84.7597 150.939 84.4077 150.585 75.9614H144.22M167.913 68.9227H157.658V75.6094M167.913 82.2961H157.658V75.6094M157.658 75.6094H166.852M174.632 82.6481V75.9614M174.632 75.9614V68.9227C178.522 68.9227 184.534 68.3987 184.534 72.794C184.534 76.3881 181.992 75.9029 179.23 75.9614M174.632 75.9614C175.693 75.9614 177.686 75.994 179.23 75.9614M179.23 75.9614L184.534 82.6481M192.314 68.2189V82.6481M210.349 82.2961H200.801V75.9614M210.349 68.5708H200.801V75.9614M200.801 75.9614H209.995M39.2747 21.0868L48.1154 17.9194C46.9834 13.4147 43.1643 9.00379 41.3964 7.36145C37.6243 3.72483 27.1097 -2.21108 15.2277 3.13827C3.34574 8.48763 0.446376 18.5966 1.08216 25.6619C1.7746 42.5279 15.2277 49.5665 25.129 48.8893C39.2742 48.8893 45.9932 38.3314 48.4686 31.2928L39.9815 29.1812C37.7775 34.0815 34.9485 40.0644 25.129 40.0644C13.0584 40.0644 10.6306 30.589 10.277 25.6619C9.92337 20.7348 13.4383 10.1769 25.129 10.1769C33.9549 10.1769 38.2136 17.2156 39.2747 21.0868ZM56.8735 2.40773V48.8893H67.1288V29.8584H88.7002V48.8893H98.2482V2.40773H88.7002V21.0868H67.1288V2.40773H56.8735ZM103.906 48.8893L124.063 2.40773H132.904L153.061 48.8893H142.806L138.562 39.7124H118.052L114.515 48.8893H103.906ZM122.295 29.8584H135.379L128.66 14.3734L122.295 29.8584ZM158.719 48.8893V2.40773H166.852L192.667 32.6738V2.40773H201.862V48.8893H194.082L168.621 20.0043V48.8893H158.719ZM257.382 13.6695C252.431 5.92704 243.944 1 234.749 1.35193C223.795 1.77123 211.189 9.80622 210.703 24.5794C209.995 46.0472 229.799 49.5665 233.335 49.5665C234.749 49.5665 252.077 52.382 258.443 30.5622V21.412H233.335V29.5064H249.248C249.13 33.2604 246.278 40.8386 235.81 41.1202C222.726 41.4721 219.897 31.2661 219.897 24.9313C219.897 18.9072 225.909 9.79828 234.749 9.79828C241.822 9.79828 247.362 14.9599 249.248 17.5408L257.382 13.6695ZM267.283 2.40773V48.8893H303V40.4163H277.185V29.5064H300.525V21.412H277.185V10.8541H302.293V2.40773H267.283Z" stroke="#201036"/>
</svg>
