<svg width="73" height="167" viewBox="0 0 73 167" fill="none" xmlns="http://www.w3.org/2000/svg">
<path d="M22.0624 61.513L21.1792 54.9073C21.0428 53.8805 20.8561 52.8538 20.6263 51.8414L19.8078 48.2298C19.5349 47.0235 19.1975 45.8316 18.7954 44.6612L17.0722 39.6208L15.191 34.6736L14.6812 33.252C14.4155 32.5052 14.3509 31.6939 14.5017 30.9184L14.5232 30.7892C14.6237 30.2507 14.9109 29.7624 15.3274 29.4034L15.4925 29.267C15.9736 28.8505 16.5911 28.6279 17.2301 28.6208H17.6753C18.3574 28.6136 19.3626 28.8434 19.9658 29.1521L21.0356 29.6619C21.4161 29.8558 22.2706 30.423 22.6152 30.6671L24.3672 32.0888C24.7406 32.3616 25.8176 33.2663 26.1479 33.5894L27.6126 35.0542L28.984 36.7128C29.5872 37.4452 30.6785 39.0822 31.1237 39.9295L31.655 40.9419C32.4449 42.4426 33.206 44.5679 33.3926 46.2696L33.5721 48.1939" stroke="#201036" stroke-miterlimit="10"/>
<path d="M54.5595 101.607L51.271 106.389" stroke="#201036" stroke-miterlimit="10" stroke-linecap="round"/>
<path d="M38.713 94.1973L35.1157 98.7495" stroke="#201036" stroke-miterlimit="10" stroke-linecap="round"/>
<path d="M23.8786 84.3604L20.2383 88.8838" stroke="#201036" stroke-miterlimit="10" stroke-linecap="round"/>
<path d="M20.3248 155.853C20.2458 156.636 20.2889 157.426 20.5402 158.172C20.8274 159.027 21.2941 159.702 22.0265 160.19C23.8143 161.382 28.4096 163.141 31.971 164.405C38.1603 166.602 45.6707 166.092 47.1857 165.776C50.4383 165.101 54.4736 164.678 57.6328 159.637C58.8176 157.749 59.9951 153.821 60.9213 150.985C61.4455 149.37 61.8476 147.718 62.1276 146.045L62.7666 142.204C62.9174 141.278 63.0826 139.798 63.1256 138.858L63.2333 136.029C63.298 134.801 63.1903 133.566 62.9174 132.367L61.8045 127.851C61.5101 126.565 61.3593 125.251 61.345 123.937V123.435C61.3091 122.092 61.4455 120.749 61.7471 119.443L61.7758 119.299C62.0343 118.15 62.4938 117.052 63.1256 116.061L69.6452 105.786L71.2392 103.208C71.4546 102.864 71.6198 102.462 71.749 102.031C71.9644 101.334 72.0218 100.595 71.9931 99.8624V99.6254C71.9572 99.2593 71.9141 98.412 71.7346 97.8735C71.4833 97.1124 71.3756 96.6313 70.9089 95.9708L70.4566 95.2815C69.9611 94.585 69.3006 94.0178 68.5323 93.6372C67.8143 93.2782 67.046 93.0341 66.2562 92.9048L65.9044 92.8474C65.3156 92.7253 64.1524 92.6822 63.5421 92.6966L61.7542 92.7397C61.0003 92.7612 60.2967 93.1418 59.873 93.7664L51.3861 106.289L64.7412 86.3996L65.0715 85.8755C65.3084 85.5021 65.5095 85.0928 65.6387 84.6692C66.0623 83.3193 65.9905 82.3931 65.8972 81.4453C65.8972 81.4453 65.8326 80.2606 65.1935 78.8245L64.8632 78.2142C64.7053 78.0132 64.5904 77.848 64.4755 77.7044C64.0088 77.0798 63.4487 76.5269 62.8169 76.0745L62.4938 75.8448C61.7399 75.3206 61.0578 75.1052 59.9664 74.8252L59.6792 74.7821C58.2862 74.5595 56.8646 74.5308 55.4572 74.7031L53.5042 74.9329L35.3097 98.5412L55.3495 72.506C56.8789 70.431 56.9866 68.6575 56.9076 67.2071C56.9076 67.2071 56.8502 65.5054 56.2542 64.1052C56.0532 63.6242 55.8019 63.1575 55.5003 62.7267L55.486 62.7051C55.048 62.0804 54.2223 61.1542 53.655 60.6516L53.576 60.5798C52.9729 60.1131 52.0969 59.6033 51.3861 59.3233L50.4958 58.9643C49.7131 58.6627 48.4853 58.3898 47.6524 58.3324L44.8737 58.1529L20.3391 88.7547L60.7203 38.3716C60.9572 38.0772 61.2516 37.5961 61.4958 37.1151C61.7686 36.5981 61.9409 36.0309 62.0414 35.4564L62.1779 34.5446C62.3215 32.9865 62.3071 31.5074 61.3019 30.057C61.2301 29.9493 61.1008 29.7626 60.8854 29.461C60.7275 29.2384 60.5336 29.023 60.3254 28.8435L59.9592 28.5276C59.5284 28.147 59.4135 28.104 58.9181 27.8168C58.7745 27.7378 58.6381 27.6588 58.5232 27.6085C57.7836 27.2639 57.001 27.0413 56.1896 26.9408H56.1106C55.3567 26.8403 54.5884 26.8833 53.8489 27.0628C52.2549 27.4506 51.8959 27.6157 50.7183 28.5061L49.2321 30.0426L44.9527 34.9897L6.64658 79.3559C5.59109 80.5837 4.60741 81.8689 3.74579 83.2403C3.42269 83.7501 3.1283 84.2527 2.92726 84.6692C2.25232 86.055 1.82151 87.2038 1.49123 88.6757C0.457285 93.2423 1.3189 97.7083 1.69227 99.1659C2.18052 101.054 12.2543 125.144 15.4064 132.604C15.9233 133.817 18.3071 139.576 19.097 141.73L19.499 142.857C19.5996 143.18 19.7647 143.704 19.9227 144.229C20.3319 145.543 20.5904 146.907 20.6694 148.285C20.6981 148.809 20.7197 150.82 20.6981 151.165L20.5114 153.958L20.3248 155.853Z" stroke="#201036" stroke-miterlimit="10" stroke-linecap="round"/>
<path d="M37 29L41.6786 26.1722C43.9762 24.7649 45.9221 23.3504 47.9541 21.3472L49.9932 19.0782C51.0918 17.7068 52.2047 15.7251 52.6858 13.9588L52.9443 12.7812C53.0089 12.5587 53.0591 12.1997 53.1022 11.8119C53.2315 10.5913 53.1884 9.75122 53.052 8.52341L52.9299 7.72642C52.6212 6.21859 51.896 4.97642 50.8189 3.74143C50.7543 3.66963 50.6825 3.59065 50.6107 3.51885C50.1727 3.08086 49.7132 2.67159 49.2106 2.31258C48.4926 1.80279 47.7171 1.39352 46.8483 1.19966C45.5631 0.912454 44.2347 0.933994 42.9638 1.27146L42.9208 1.28582C42.1022 1.50123 41.334 1.88177 40.6734 2.41311L39.8548 3.0665C39.4815 3.36089 39.1368 3.69117 38.8281 4.05018L37.5 5.5" stroke="#201036" stroke-miterlimit="10"/>
<path d="M37.5 29L33.2492 26.1722C30.9515 24.7649 29.0057 23.3504 26.9737 21.3472L24.9346 19.0782C23.836 17.7068 22.7231 15.7251 22.242 13.9588L21.9835 12.7812C21.9189 12.5587 21.8686 12.1997 21.8256 11.8119C21.6963 10.5913 21.7394 9.75122 21.8758 8.52341L21.9979 7.72642C22.3066 6.21859 23.0318 4.97642 24.1089 3.74143C24.1735 3.66963 24.2453 3.59065 24.3171 3.51885C24.7551 3.08086 25.2146 2.67159 25.7172 2.31258C26.4352 1.80279 27.2107 1.39352 28.0795 1.19966C29.3647 0.912454 30.6931 0.933994 31.9639 1.27146L32.007 1.28582C33.0625 1.48687 34.7857 2.78647 34.7857 2.78647C35.1591 3.08086 36.7387 4.33021 37.0475 4.68921L38 5.5" stroke="#201036" stroke-miterlimit="10"/>
</svg>
