<svg width="70" height="101" viewBox="0 0 70 101" fill="none" xmlns="http://www.w3.org/2000/svg">
<path d="M28.5234 0.666992H41.5625C44.4605 0.666992 45.7707 0.675715 46.8652 1.11719C47.8496 1.51372 48.7151 2.15708 49.3809 2.98535H49.3818C50.1226 3.90582 50.512 5.15917 51.3535 7.93555L69.1807 66.5947C62.705 63.3544 55.7998 61.0565 48.6729 59.7705L36.9326 20.0234C36.8088 19.6002 36.551 19.2284 36.1982 18.9639C35.8452 18.6991 35.4159 18.5561 34.9746 18.5566C34.5333 18.5572 34.1044 18.7012 33.752 18.9668C33.4435 19.1993 33.2084 19.5139 33.0723 19.873L33.0195 20.0293L21.4209 59.75C14.262 61.0312 7.32533 63.3329 0.821289 66.585L18.7314 7.92383C19.5798 5.1508 19.9688 3.89952 20.709 2.97852L20.71 2.97949C21.3772 2.15304 22.2434 1.51008 23.2275 1.11328C24.3181 0.675017 25.6281 0.666992 28.5234 0.666992Z" stroke="#201036"/>
<path d="M18.8613 69.7266C20.08 71.2433 22.1644 72.5107 24.7471 73.4404C27.8715 74.5652 31.8136 75.2314 36.0859 75.2314C42.6034 75.2314 48.3974 73.6792 51.667 71.2705C51.8871 72.1333 52.0172 73.0168 52.0508 73.9072L52.0596 74.3936V74.3945C52.0618 76.4859 51.5417 78.5443 50.5469 80.3828V80.3838C48.698 83.8057 46.0178 85.5158 43.5088 87.1084C41.9474 88.1002 40.4127 89.0705 39.2832 90.3975C38.1315 91.7507 37.4152 93.4543 37.415 95.8818C37.4139 96.9948 37.5939 98.0974 37.9443 99.1475C34.5358 97.2417 32.2305 93.5941 32.2305 89.4053V89.123C32.2321 87.5526 32.241 85.6612 31.6348 84.1689C31.3247 83.4059 30.8463 82.7245 30.1113 82.2383C29.3777 81.7529 28.4308 81.4902 27.2314 81.4902C26.5411 81.4902 25.8575 81.6261 25.2197 81.8906C24.5818 82.1552 24.0019 82.5433 23.5137 83.0322C23.0254 83.5213 22.6373 84.1023 22.373 84.7412C22.2567 85.0227 22.1665 85.3134 22.1006 85.6094C20.159 83.3308 19.2101 80.7147 18.7539 78.5693C18.4994 77.3722 18.3989 76.3294 18.3623 75.5879C18.344 75.2176 18.3417 74.9229 18.3438 74.7227C18.3448 74.6226 18.3468 74.5456 18.3486 74.4951C18.3496 74.4701 18.35 74.4514 18.3506 74.4395C18.3509 74.4336 18.3514 74.4293 18.3516 74.4268C18.3516 74.4255 18.3515 74.4242 18.3516 74.4238L18.3525 74.4092V74.3936C18.3526 73.1773 18.4563 71.4116 18.8613 69.7266Z" stroke="#201036"/>
</svg>
