<svg width="56" height="80" viewBox="0 0 56 80" fill="none" xmlns="http://www.w3.org/2000/svg">
<path d="M22.8184 0.5H33.25C35.5767 0.5 36.601 0.508605 37.4541 0.852539L37.4551 0.853516C38.1301 1.12549 38.7337 1.54542 39.2236 2.08105L39.4268 2.31738C40.0042 3.03494 40.3116 4.01395 40.9873 6.24316V6.24414L55.1797 52.9473C50.0699 50.4149 44.6291 48.6143 39.0166 47.5957L29.6416 15.8564C29.5364 15.4974 29.3178 15.1815 29.0186 14.957C28.7188 14.7324 28.3541 14.6109 27.9795 14.6113C27.6048 14.6118 27.2407 14.7345 26.9414 14.96C26.6795 15.1574 26.4798 15.4245 26.3643 15.7295L26.3193 15.8623L17.0576 47.5791C11.4198 48.594 5.95363 50.3969 0.821289 52.9385L15.0811 6.23438C15.7623 4.00742 16.0682 3.02966 16.6455 2.31152C17.1685 1.66397 17.848 1.16058 18.6191 0.849609C19.4692 0.507951 20.4935 0.500001 22.8184 0.5Z" stroke="#201036"/>
<path d="M15.1416 55.8667C16.1477 57.0314 17.7796 57.9991 19.7637 58.7134C22.2757 59.6177 25.4416 60.1519 28.8691 60.1519C34.0143 60.1518 38.6122 58.9446 41.2725 57.0493C41.4254 57.6875 41.5162 58.3392 41.541 58.9956L41.5479 59.3813V59.3823C41.5496 61.0388 41.1376 62.6693 40.3496 64.1255C39.0674 66.4988 37.2819 67.8345 35.5107 68.9849L34.7539 69.4692C33.5077 70.2609 32.2658 71.0452 31.3506 72.1206C30.4133 73.222 29.8322 74.6074 29.832 76.5718C29.8312 77.3865 29.9511 78.1945 30.1836 78.9702C27.6089 77.431 25.8848 74.6134 25.8848 71.3911V71.1655L25.8789 70.1841C25.8588 69.1678 25.7718 68.0764 25.4014 67.1646C25.1475 66.5397 24.753 65.9763 24.1445 65.5737C23.5375 65.1722 22.7592 64.9585 21.7852 64.9585C21.2198 64.9585 20.66 65.0701 20.1377 65.2866C19.6151 65.5034 19.1401 65.8217 18.7402 66.2222C18.3403 66.6227 18.023 67.0984 17.8066 67.6216C17.7365 67.7912 17.6777 67.9647 17.6299 68.1411C16.1748 66.3702 15.4534 64.3598 15.1006 62.7007C14.8983 61.7492 14.8191 60.9204 14.79 60.3315C14.7755 60.0377 14.7737 59.8043 14.7754 59.646C14.7762 59.5668 14.7778 59.5059 14.7793 59.4663C14.78 59.4469 14.7798 59.4325 14.7803 59.4233C14.7805 59.4189 14.7811 59.4154 14.7812 59.4136V59.4116L14.7822 59.397V59.3813C14.7823 58.459 14.8576 57.1436 15.1416 55.8667Z" stroke="#201036"/>
</svg>
