<svg width="85" height="102" viewBox="0 0 85 102" fill="none" xmlns="http://www.w3.org/2000/svg">
<path d="M55.2374 2.68822L37.9797 32.4009C12.9393 28.0115 -13.1162 62.4513 9.89382 89.4628C14.9696 95.4279 30.4394 105.332 48.808 98.9169C73.4142 91.4887 74.2081 60.9282 65.3889 47.5949L82.3081 18.2199L84 17.2069C78.8566 10.7242 62.6818 3.70115 55.2374 1V2.68822Z" stroke="#201036"/>
<path d="M5.49489 59.4125C9.01409 60.2228 15.5336 59.7501 18.3535 59.4125C19.0303 57.4992 20.9414 54.6855 23.7676 54.6855C26.1363 54.6855 26.8131 56.3737 27.4899 57.049C28.1666 57.7243 31.2121 57.7243 31.2121 57.049C31.2121 56.3737 31.5505 46.582 38.6565 47.5949C44.3414 48.4053 45.3114 54.2353 45.0858 57.049H49.4848C49.4848 56.1486 50.8384 55.0231 52.1919 55.3607C54.4358 55.9205 54.4478 57.9493 54.2222 58.7372C58.5535 59.2774 64.8249 63.014 67.4192 64.8148C66.3363 96.1482 41.3806 98.5792 28.7476 96.2157C5.73745 89.1252 4.02856 70.3296 5.49489 59.4125Z" stroke="#201036"/>
<path d="M56.2525 46.582C56.2525 43.5432 54.2222 41.855 51.8535 41.855C48.4697 41.855 47.1161 44.4157 47.1161 46.582C47.1161 49.9584 49.1464 51.6467 51.8535 51.6467C54.2222 51.6467 56.2525 49.5533 56.2525 46.582Z" stroke="#201036"/>
<path d="M42.3788 41.855C42.3788 40.5044 41.3636 39.8291 40.3484 39.8291C38.9949 39.8291 37.9798 40.842 37.9798 42.1926C37.9798 43.5432 38.9949 44.2185 40.3484 44.2185C41.7428 44.2185 42.3788 43.2471 42.3788 41.855Z" stroke="#201036"/>
</svg>
