<svg width="80" height="82" viewBox="0 0 80 82" fill="none" xmlns="http://www.w3.org/2000/svg">
<path d="M50.3899 2.35058L36.5838 26.1207C16.5514 22.6092 -4.29299 50.161 14.1151 71.7703C18.1757 76.5423 30.5515 84.4657 45.2464 79.3335C64.9313 73.391 65.5665 48.9426 58.5111 38.2759L72.0465 14.7759L73.4 13.9655C69.2853 8.77933 56.3454 3.16092 50.3899 1V2.35058Z" stroke="#201036"/>
<path d="M10.5957 47.7299C13.4111 48.3782 18.6267 48 20.8826 47.7299C21.424 46.1993 22.9529 43.9483 25.2139 43.9483C27.1089 43.9483 27.6503 45.2989 28.1917 45.8391C28.7331 46.3794 31.1695 46.3794 31.1695 45.8391C31.1695 45.2989 31.4402 37.4655 37.125 38.2759C41.6729 38.9242 42.4489 43.5882 42.2685 45.8391H45.7877C45.7877 45.1188 46.8705 44.2184 47.9533 44.4885C49.7484 44.9363 49.758 46.5594 49.5776 47.1897C53.0426 47.6219 58.0597 50.6112 60.1351 52.0518C59.2689 77.1185 39.3043 79.0633 29.1979 77.1725C10.7898 71.5001 9.42265 56.4637 10.5957 47.7299Z" stroke="#201036"/>
<path d="M51.2018 37.4655C51.2018 35.0345 49.5776 33.6839 47.6826 33.6839C44.9755 33.6839 43.8927 35.7325 43.8927 37.4655C43.8927 40.1667 45.517 41.5173 47.6826 41.5173C49.5776 41.5173 51.2018 39.8426 51.2018 37.4655Z" stroke="#201036"/>
<path d="M40.1028 33.6839C40.1028 32.6035 39.2907 32.0632 38.4786 32.0632C37.3957 32.0632 36.5836 32.8736 36.5836 33.954C36.5836 35.0345 37.3957 35.5747 38.4786 35.5747C39.594 35.5747 40.1028 34.7976 40.1028 33.6839Z" stroke="#201036"/>
</svg>
