<svg width="80" height="80" viewBox="0 0 80 80" fill="none" xmlns="http://www.w3.org/2000/svg">
<path d="M79 38.8577C79 13.5649 55.0691 1 40.2548 1C11.4401 1 0.447505 26.4667 1.02125 38.8577C2.81197 77.5314 37.8129 79 40.2548 79C42.6967 79 79 75.7364 79 38.8577Z" stroke="#201036"/>
<path d="M49.3711 16.5021C50.0223 14.805 48.9829 14.9291 48.3944 15.523C40.4717 23.5189 24.1379 39.8368 22.6728 41.1423C21.1523 42.497 22.3472 42.6109 23.1612 42.6109H39.6034C41.8174 42.6109 41.0686 43.7532 40.5802 44.4059C36.5103 49.8452 28.2204 61.1924 27.231 62.8452C26.2543 64.477 27.0682 64.6402 28.045 63.8243C36.9445 55.3389 55.426 38.1589 57.0225 36.7364C58.4876 35.431 57.8365 34.9546 56.6969 34.9414C51.9758 34.887 42.1815 34.9414 40.743 34.9414C39.2778 34.9414 39.7429 34.0849 40.0918 33.4728C42.9136 28.523 48.7199 18.1992 49.3711 16.5021Z" stroke="#201036"/>
</svg>
