<svg width="80" height="80" viewBox="0 0 80 80" fill="none" xmlns="http://www.w3.org/2000/svg">
<path d="M28.6246 54.637C33.7324 59.5096 31.5433 64.8695 29.8407 67.0622C27.8949 69.4172 22.4465 72.5195 16.2198 66.0876M28.6246 54.637C25.2194 50.739 23.3573 45.1355 23.0303 40.5065C22.8689 38.2217 23.4194 32.0671 27.8949 25.8562M28.6246 54.637C33.7324 59.7533 40.0564 62.2708 44.4346 61.9459C51.0018 61.4587 51.7315 60.9714 54.1638 59.7533C56.4264 58.6201 60.1635 55.774 61.704 54.3934C66.5686 51.0801 71.19 53.9874 72.8926 55.8552C77.1734 61.3125 73.379 66.8997 70.9467 69.0112C67.055 72.3408 56.1583 79 43.7049 79C31.2515 79 20.1926 70.3918 16.2198 66.0876M28.6246 54.637C27.1652 53.5001 23.0789 51.8597 18.4089 54.3934C16.382 55.6116 13.1064 59.6558 16.2198 66.0876M16.2198 66.0876C8.43641 58.0479 6.13747 48.6553 6.00411 40.5065C5.80952 28.6174 12.5714 17.1181 17.4359 12.6374M27.8949 25.8562C28.2321 25.6379 28.554 25.4014 28.8679 25.1568C34.4622 20.0406 37.3809 19.4222 39.3268 18.8225C41.6983 18.0916 48.25 18.0469 52.4612 19.5534C55.8665 20.7715 59.5149 23.7763 60.9743 25.1568C66.0335 28.86 70.8657 26.0501 72.6494 24.1823C78.2923 17.5556 72.4061 12.2452 69.2441 9.56527C63.8931 4.69264 53.1909 1.28217 46.3805 1.03873C37.8674 0.55153 27.976 4.77316 23.76 7.37187C22.4509 8.15046 20.4316 9.58243 18.6522 11.336M27.8949 25.8562C25.8804 27.1604 23.3193 27.8145 18.6522 25.6441C16.2198 24.1834 14.2254 21.21 15.0037 17.1171C15.2959 15.5806 16.237 14.0418 17.4359 12.6374M27.8949 25.8562C30.6515 23.8368 34.754 18.2875 29.111 12.2455C27.8138 10.9083 23.906 8.85431 18.6522 11.336M18.6522 11.336C18.2289 11.7531 17.8193 12.1884 17.4359 12.6374" stroke="#201036"/>
</svg>
