<svg width="91" height="102" viewBox="0 0 91 102" fill="none" xmlns="http://www.w3.org/2000/svg">
<path d="M30.1825 69.7654C36.7708 76.0124 33.9472 82.884 31.7511 85.6951C29.2412 88.7144 22.2136 92.6916 14.1821 84.4457M30.1825 69.7654C25.7902 64.7679 23.3884 57.584 22.9666 51.6494C22.7584 48.7202 23.4685 40.8296 29.2412 32.8669M30.1825 69.7654C36.7708 76.3247 44.9279 79.5523 50.5751 79.1358C59.0458 78.5111 59.987 77.8864 63.1243 76.3247C66.0427 74.872 70.8631 71.2231 72.85 69.4531C79.1247 65.2052 85.0856 68.9325 87.2817 71.3272C92.8034 78.3237 87.9092 85.4868 84.7719 88.1938C79.7522 92.4626 65.6969 101 49.6339 101C33.5708 101 19.3064 89.9638 14.1821 84.4457M30.1825 69.7654C28.3001 68.3078 23.0294 66.2047 17.0057 69.4531C14.3912 71.0148 10.1662 76.1998 14.1821 84.4457M14.1821 84.4457C4.14262 74.1383 1.17732 62.0966 1.0053 51.6494C0.754311 36.4069 9.47616 21.6642 15.7507 15.9198M29.2412 32.8669C29.6762 32.587 30.0913 32.2838 30.4962 31.9703C37.7121 25.411 41.4768 24.6182 43.9867 23.8493C47.0456 22.9123 55.4964 22.855 60.9282 24.7863C65.3205 26.3481 70.0265 30.2003 71.9089 31.9703C78.4345 36.718 84.6673 33.1156 86.968 30.7209C94.2466 22.2251 86.6543 15.4169 82.5758 11.9811C75.6737 5.73416 61.8694 1.36176 53.0849 1.04966C42.1043 0.425039 29.3459 5.83738 23.9079 9.16907C22.2192 10.1673 19.6147 12.0031 17.3195 14.2513M29.2412 32.8669C26.6428 34.539 23.3394 35.3776 17.3195 32.595C14.1821 30.7222 11.6095 26.9103 12.6135 21.6629C12.9903 19.6931 14.2043 17.7203 15.7507 15.9198M29.2412 32.8669C32.7968 30.278 38.0885 23.1635 30.8099 15.4173C29.1367 13.7029 24.0961 11.0696 17.3195 14.2513M17.3195 14.2513C16.7735 14.786 16.2451 15.3441 15.7507 15.9198" stroke="#201036"/>
</svg>
