<svg width="68" height="102" viewBox="0 0 68 102" fill="none" xmlns="http://www.w3.org/2000/svg">
<path d="M50.0973 34.2235C44.0928 34.4256 38.6962 34.4912 34.0843 34.4896M50.0973 34.2235C50.348 34.2151 50.5951 34.2036 50.8387 34.1892M50.0973 34.2235C37.9985 35.0616 34.3808 45.1484 34.0843 50.087M17.3298 34.2235C11.2346 34.2235 1.02023 28.8359 1.02023 16.8635C1.02023 9.38072 7.3958 1.29932 18.516 1H34.0843M17.3298 34.2235C11.8439 34.2235 1.52536 39.3118 1.02023 49.3387C0.723687 55.2252 3.57044 67.058 17.3298 67.2974M17.3298 34.2235C18.9998 34.2235 25.0301 34.4863 34.0843 34.4896M17.3298 67.2974L34.0843 67.5967M17.3298 67.2974C12.348 67.7763 8.13715 70.3903 6.65448 71.6374C-0.462438 78.2223 0.872002 85.7051 1.7616 89.2968C4.87527 99.4734 14.3645 101.269 18.9608 100.97C30.2293 100.236 34.0843 90.0451 34.0843 83.7595V67.5967M34.0843 67.5967V50.087M34.0843 34.4896V1M34.0843 34.4896V50.087M34.0843 1H48.7629C56.0281 1 66.2587 4.74139 67 16.8635C67 25.0945 63.5898 32.8766 50.8387 34.1892M50.8387 34.1892C56.4729 34.1892 67 39.1622 67 50.087C67 57.1208 63.4416 67.2974 50.8387 67.5967C45.0562 67.4471 33.6098 63.7356 34.0843 50.087" stroke="black"/>
</svg>
