<svg width="80" height="80" viewBox="0 0 80 80" fill="none" xmlns="http://www.w3.org/2000/svg">
<path d="M52.451 27.5854C47.9931 27.7349 43.9866 27.7835 40.5626 27.7823M52.451 27.5854C52.6371 27.5792 52.8206 27.5707 53.0014 27.56M52.451 27.5854C43.4686 28.2056 40.7827 35.6698 40.5626 39.3244M28.1237 27.5854C23.5984 27.5854 16.015 23.5986 16.015 14.739C16.015 9.20173 20.7484 3.22149 29.0043 3H40.5626M28.1237 27.5854C24.0508 27.5854 16.39 31.3508 16.015 38.7707C15.7949 43.1266 17.9084 51.8829 28.1237 52.0601M28.1237 27.5854C29.3635 27.5854 33.8406 27.7799 40.5626 27.7823M28.1237 52.0601L40.5626 52.2816M28.1237 52.0601C24.425 52.4145 21.2988 54.3488 20.198 55.2717C14.9143 60.1445 15.905 65.6817 16.5654 68.3396C18.8771 75.8703 25.9221 77.1992 29.3345 76.9777C37.7005 76.4347 40.5626 68.8933 40.5626 64.2421V52.2816M40.5626 52.2816V39.3244M40.5626 27.7823V3M40.5626 27.7823V39.3244M40.5626 3H51.4603C56.8542 3 64.4496 5.76863 65 14.739C65 20.83 62.4682 26.5887 53.0014 27.56M53.0014 27.56C57.1844 27.56 65 31.24 65 39.3244C65 44.5294 62.3581 52.0601 53.0014 52.2816C48.7084 52.1708 40.2103 49.4244 40.5626 39.3244" stroke="#201036"/>
</svg>
