<svg width="73" height="102" viewBox="0 0 73 102" fill="none" xmlns="http://www.w3.org/2000/svg">
<path d="M46.895 1L1.78453 27.378L13.3564 33.874L58.4669 7.69291L46.895 1Z" stroke="#201036"/>
<path d="M1 41.5512V28.5591L12.3757 35.0551V48.2441L1 41.5512Z" stroke="#201036"/>
<path d="M58.8591 9.07087L13.9448 35.0551V48.2441L58.8591 22.2598V9.07087Z" stroke="#201036"/>
<path d="M40.8149 34.6614L14.1409 50.2126V63.4016L40.8149 47.8504V34.6614Z" stroke="#201036"/>
<path d="M12.3757 50.0157L1 43.5197V56.7087L12.3757 63.4016V50.0157Z" stroke="#201036"/>
<path d="M12.3757 64.9764L1 58.4803V72.4567L12.3757 78.9528V64.9764Z" stroke="#201036"/>
<path d="M58.8591 24.2283L42.384 33.874V46.8661L58.8591 37.4173V24.2283Z" stroke="#201036"/>
<path d="M72 30.3307L60.4282 23.6378L60.6243 37.4173L72 43.9134V30.3307Z" stroke="#201036"/>
<path d="M72 45.685L60.6243 39.189V52.1811L72 58.874V45.685Z" stroke="#201036"/>
<path d="M72 61.0394L60.6243 54.3465V67.3386L72 74.0315V61.0394Z" stroke="#201036"/>
<path d="M30.616 55.3307L14.1409 64.9764V77.9685L30.616 68.5197V55.3307Z" stroke="#201036"/>
<path d="M58.8591 39.189L32.1851 54.5433V67.5354L58.8591 52.1811V39.189Z" stroke="#201036"/>
<path d="M14.1409 80.1339V93.126L58.8591 67.3386V54.3465L14.1409 80.1339Z" stroke="#201036"/>
<path d="M14.9254 94.3071L26.4972 101L71.2155 75.2126L59.6436 68.5197L14.9254 94.3071Z" stroke="#201036"/>
</svg>
