<svg width="80" height="82" viewBox="0 0 80 82" fill="none" xmlns="http://www.w3.org/2000/svg">
<path d="M48.8453 1L12.6298 22.1024L21.9199 27.2992L58.1354 6.35433L48.8453 1Z" stroke="#201036"/>
<path d="M12 33.4409V23.0472L21.1326 28.2441V38.7953L12 33.4409Z" stroke="#201036"/>
<path d="M58.4503 7.45669L22.3923 28.2441V38.7953L58.4503 18.0079V7.45669Z" stroke="#201036"/>
<path d="M43.9641 27.9291L22.5497 40.3701V50.9213L43.9641 38.4803V27.9291Z" stroke="#201036"/>
<path d="M21.1326 40.2126L12 35.0157V45.5669L21.1326 50.9213V40.2126Z" stroke="#201036"/>
<path d="M21.1326 52.1811L12 46.9843V58.1654L21.1326 63.3622V52.1811Z" stroke="#201036"/>
<path d="M58.4503 19.5827L45.2238 27.2992V37.6929L58.4503 30.1339V19.5827Z" stroke="#201036"/>
<path d="M69 24.4646L59.7099 19.1102L59.8674 30.1339L69 35.3307V24.4646Z" stroke="#201036"/>
<path d="M69 36.748L59.8674 31.5512V41.9449L69 47.2992V36.748Z" stroke="#201036"/>
<path d="M69 49.0315L59.8674 43.6772V54.0709L69 59.4252V49.0315Z" stroke="#201036"/>
<path d="M35.7762 44.4646L22.5497 52.1811V62.5748L35.7762 55.0157V44.4646Z" stroke="#201036"/>
<path d="M58.4503 31.5512L37.0359 43.8346V54.2283L58.4503 41.9449V31.5512Z" stroke="#201036"/>
<path d="M22.5497 64.3071V74.7008L58.4503 54.0709V43.6772L22.5497 64.3071Z" stroke="#201036"/>
<path d="M23.1796 75.6457L32.4696 81L68.3702 60.3701L59.0801 55.0157L23.1796 75.6457Z" stroke="#201036"/>
</svg>
