<svg width="104" height="102" viewBox="0 0 104 102" fill="none" xmlns="http://www.w3.org/2000/svg">
<path d="M39.0123 89.2212V98.6065C38.6959 99.8578 37.304 101.985 34.2671 100.484C30.471 98.6065 16.8886 95.6031 4.84703 72.3278C-5.34951 52.6188 2.94908 1 51.3497 1C63.6872 1.00043 90.8296 7.94615 100.7 35.7256C105.445 52.3065 106.015 88.2838 70.3309 99.5452C68.4328 99.858 64.6367 99.7329 64.6367 96.7296C64.6367 92.9755 67.4838 81.7132 61.7896 75.1436C73.8107 72.9537 94.2466 62.0042 79.8212 35.7256C80.7703 33.2228 81.9091 27.0911 78.8722 22.5862C78.113 21.1868 69.0655 25.1316 64.6367 27.2789C58.6258 26.3403 45.0858 25.0264 39.0123 27.2789C36.798 25.4018 31.0408 21.8354 25.7262 22.5862C24.7772 24.7761 23.2587 30.4698 24.7772 35.7256C18.4503 46.0493 13.199 68.3862 42.8089 75.1436C41.8598 75.7692 39.9618 77.7714 39.9618 80.7747C36.482 82.3389 28.7631 83.9657 25.7262 77.9591C24.1445 75.4564 19.6524 70.8264 14.3378 72.328C14.0215 72.9537 13.9582 74.3927 16.2359 75.1436C19.083 76.0821 20.032 77.9591 23.8282 85.4673C26.8651 91.4739 35.2163 90.4727 39.0123 89.2212Z" stroke="#201036"/>
</svg>
