<svg width="82" height="80" viewBox="0 0 82 80" fill="none" xmlns="http://www.w3.org/2000/svg">
<path d="M30.8136 69.8126V77.1331C30.5654 78.1091 29.4737 79.7684 27.0919 78.5971C24.1145 77.1331 13.4617 74.7904 4.01728 56.6357C-3.98001 41.2627 2.52869 1 40.49 1C50.1664 1.00034 71.4545 6.418 79.1957 28.0859C82.9175 41.0191 83.3644 69.0814 55.3772 77.8652C53.8885 78.1093 50.9111 78.0117 50.9111 75.6691C50.9111 72.7409 53.1441 63.9563 48.6781 58.832C58.1064 57.1239 74.1346 48.5833 62.8206 28.0859C63.5649 26.1338 64.4581 21.3511 62.0762 17.8373C61.4808 16.7457 54.3847 19.8226 50.9111 21.4975C46.1967 20.7655 35.5771 19.7406 30.8136 21.4975C29.0769 20.0334 24.5614 17.2516 20.3931 17.8373C19.6488 19.5454 18.4578 23.9865 19.6488 28.0859C14.6865 36.1385 10.5678 53.5612 33.7913 58.832C33.0469 59.32 31.5582 60.8817 31.5582 63.2243C28.829 64.4444 22.775 65.7132 20.3931 61.0281C19.1526 59.076 15.6293 55.4646 11.461 56.6358C11.2129 57.1239 11.1633 58.2463 12.9497 58.832C15.1827 59.564 15.9271 61.0281 18.9044 66.8845C21.2863 71.5696 27.8363 70.7887 30.8136 69.8126Z" stroke="#201036"/>
</svg>
