<svg width="80" height="82" viewBox="0 0 80 82" fill="none" xmlns="http://www.w3.org/2000/svg">
<path d="M40.205 1C34.8002 1.00011 32.5567 7.22446 33.7804 10.0817L17.2602 19.6732C11.7534 14.8773 6.21222 19.163 5.32892 22.3263C3.77887 27.8774 8.08229 30.7617 10.4278 31.51V50.4897C2.98344 53.1428 4.70005 60.3877 6.96054 62.3265C11.4288 66.1588 15.5946 63.9931 17.2602 62.3265L33.6785 71.8163C32.3528 78.0408 37.6556 81 40.7149 81C46.4256 81 48.4651 74.6734 47.2414 71.6122L63.5577 62.2244C69.8803 67.8367 75.387 62.0203 75.8969 58.755C76.6676 53.8199 72.9396 51.204 70.5941 50.4897V31.51C73.9594 30.7957 75.8969 27.9386 75.9989 24.8773C75.9989 17.1222 67.1269 15.4896 63.7617 19.6732L47.3434 10.1837C48.0572 8.34667 47.3434 0.999851 40.205 1Z" stroke="#201036"/>
<path d="M35.4121 13.1426L35.616 13.3467L14.0989 50.5917L13.793 50.4897V31.51C19.4221 29.6324 19.5377 24.8093 18.8918 22.6324L35.4121 13.1426Z" stroke="#201036"/>
<path d="M18.9938 59.0611L18.8918 59.3672L35.4121 69.0612C39.1852 64.8775 43.8762 67.1224 45.8137 69.0612L62.13 59.5713L62.0281 59.1632L18.9938 59.0611Z" stroke="#201036"/>
<path d="M67.2289 50.4897L66.9229 50.5917L45.4058 13.3467L45.6098 13.1426L62.0281 22.6324C60.6411 28.1018 64.9174 30.8297 67.2289 31.51V50.4897Z" stroke="#201036"/>
<path d="M42.4485 14.9793C41.2248 15.6324 39.3552 15.2514 38.5734 14.9793L17.0562 52.3264C18.0352 53.306 18.7922 54.9795 19.0484 55.6938H62.0281C62.1096 54.4693 63.3538 52.8706 63.9656 52.2244L42.4485 14.9793Z" stroke="#201036"/>
</svg>
