<svg width="91" height="102" viewBox="0 0 91 102" fill="none" xmlns="http://www.w3.org/2000/svg">
<path d="M45.1302 1C38.3552 1.00014 35.543 8.78058 37.0769 12.3521L16.3684 24.3416C9.46557 18.3466 2.51955 23.7038 1.41231 27.6579C-0.530708 34.5967 4.86372 38.2021 7.80381 39.1375V62.8621C-1.5278 66.1784 0.624001 75.2346 3.45758 77.6581C9.05858 82.4484 14.2805 79.7414 16.3684 77.6581L36.9491 89.5204C35.2873 97.301 41.9345 101 45.7694 101C52.9279 101 55.4845 93.0918 53.9505 89.2653L74.4034 77.5305C82.3288 84.5459 89.2316 77.2754 89.8708 73.1938C90.8368 67.0249 86.1637 63.755 83.2236 62.8621V39.1375C87.442 38.2447 89.8708 34.6732 89.9986 30.8467C89.9986 21.1528 78.8774 19.1119 74.659 24.3416L54.0783 12.4796C54.9732 10.1833 54.0783 0.999813 45.1302 1Z" stroke="#201036"/>
</svg>
