<svg width="88" height="102" viewBox="0 0 88 102" fill="none" xmlns="http://www.w3.org/2000/svg">
<path d="M70.618 12.9423C71.6079 9.97059 71.2367 4.89381 70.9274 2.72688C67.7101 -0.244833 62.9874 1.2823 61.0282 2.41733C60.0383 3.40778 60.4094 9.43393 60.7188 12.3232M70.618 12.9423L70.9274 14.4901C72.8866 14.1805 77.1762 14.4901 78.6611 18.2047C78.7642 18.5143 78.8467 19.3191 78.3518 20.062M70.618 12.9423C70.1024 13.6646 68.8237 15.1092 67.8338 15.1092C66.9058 15.1092 66.2871 15.1092 64.431 15.1092C62.9461 15.1092 61.3375 13.2519 60.7188 12.3232M78.3518 20.062C78.7642 19.9589 79.651 19.8763 79.8985 20.3716L80.8266 21.6098C82.6827 22.848 85.8999 26.2531 83.9201 29.9678C84.6419 30.8964 85.838 33.3109 84.8481 35.5397C86.6011 36.7779 88.9315 40.7402 84.2294 46.6837C83.9201 47.5091 82.9302 49.5316 81.4453 51.0174C81.0328 51.4302 79.4654 51.8842 76.4957 50.3983M78.3518 20.062C78.3518 20.5573 77.9393 21.3003 77.733 21.6098M76.4957 50.3983C77.4237 54.7321 78.4755 64.3901 75.2583 68.3524C75.4645 68.662 75.6914 70.024 74.9489 72.9957L74.3302 75.7817M76.4957 50.3983C76.019 49.6829 75.2853 47.9753 75.313 45.8701M74.3302 75.7817C74.8458 75.5753 75.8151 75.4103 75.5676 76.4008C75.2583 77.639 73.4022 86.6161 74.3302 91.2594C76.5988 92.704 81.6928 95.7789 83.9201 96.5218C85.3637 97.0377 87.1992 98.3172 82.992 99.3078C80.1048 99.1014 73.7115 98.6887 71.2367 98.6887C68.1432 98.7919 62.513 98.0696 64.7404 94.3549C65.4622 92.8072 66.5346 88.9068 65.0497 85.6874C63.1936 81.6632 62.5749 75.7817 62.8843 75.4722C62.976 75.3804 63.3938 75.5062 64.1217 75.6884M74.3302 75.7817C69.3241 76.8707 65.8494 76.1208 64.1217 75.6884M64.1217 75.6884C64.2248 74.7908 65.1116 72.6862 67.8339 71.448C67.937 70.7257 67.7101 68.2905 65.9778 64.3282M65.9778 64.3282C65.6684 65.4633 64.1835 68.2286 60.7188 70.2097C60.7188 70.6225 60.4095 71.8194 59.1721 73.3053C59.5845 74.5435 59.4814 78.5677 55.7692 84.7588C55.3567 85.8938 54.6555 88.8449 55.1505 91.569C55.2537 92.2912 55.3363 93.9216 54.8413 94.6645C55.6662 96.9346 56.6974 101.351 54.2226 100.856C51.2322 101.268 45.4989 101.041 46.4888 96.8314C46.9013 96.0059 47.788 94.3549 48.0355 94.3549C48.3448 93.2199 49.0254 90.8879 49.2729 90.6403C49.5822 90.3307 48.654 76.4008 51.4383 72.3766M65.9778 64.3282C66.2871 63.5027 67.0295 61.047 67.5245 57.8276C67.8338 56.4862 68.5144 53.6796 68.7619 53.1843M51.4383 72.3766C50.6134 72.1703 48.9016 71.448 48.6542 70.2097C48.3448 68.662 42.4672 63.3996 35.0428 64.9473C30.6087 64.9473 21.6788 62.5328 21.4314 52.8747C21.3282 50.5015 20.3796 45.074 17.4098 42.3499M51.4383 72.3766C52.057 71.2416 53.5418 68.8477 54.5318 68.3524C53.81 66.3919 53.0469 60.1802 55.7692 51.0174M17.4098 42.3499C13.9038 43.7945 5.71637 48.2314 1.01425 54.4225C0.601779 46.3741 8.99548 28.2343 45.87 20.062M17.4098 42.3499C22.3594 39.3834 33.8053 32.9782 39.9923 31.0899M45.87 20.062C46.6949 19.2366 48.8397 17.6475 50.8196 17.8952M45.87 20.062C45.3544 21.0939 44.3851 23.3433 44.6326 24.0862C43.7045 24.2926 41.7865 25.0768 41.5391 26.5627C41.3969 27.5581 40.9219 29.4454 39.9923 31.0899M50.8196 17.8952C51.232 17.792 52.1807 17.3999 52.6757 16.657C52.8819 16.5538 53.6656 16.5331 55.1505 17.2761C55.5629 16.657 56.7591 15.5426 58.244 16.0378C58.7596 15.9347 59.8526 15.6664 60.1001 15.4187L60.7188 12.3232M50.8196 17.8952C51.9539 17.9983 54.4699 18.3905 55.4598 19.1334C56.4497 19.8763 58.9658 19.4429 60.1001 19.1334L59.4814 20.062L61.0281 20.6811V22.2289C61.9562 22.2289 63.936 22.3527 64.431 22.848C65.0497 23.4671 70.618 23.4671 72.4741 22.5385C73.7115 23.0544 76.4956 23.591 77.733 21.6098M55.7692 51.0174C53.7894 50.7698 53.7069 49.8824 53.9131 49.4696C52.1807 48.2314 51.7476 46.4773 51.7476 45.755C51.7476 45.2597 47.8292 43.2786 45.87 42.3499C38.6931 38.6353 37.93 34.6111 38.4456 33.0633C39.0611 32.5244 39.5729 31.8318 39.9923 31.0899M55.7692 51.0174C56.9035 50.2951 59.2958 48.6648 59.7907 47.9219C60.4094 46.9932 60.7188 46.6837 59.172 45.1359C58.9707 44.968 58.6514 44.7389 58.244 44.4977M52.6757 32.7537C51.6858 33.7443 50.2009 33.7856 49.5822 33.6824C50.0771 34.4253 51.232 37.0875 51.7476 38.3257C51.7476 39.0686 53.81 41.9372 54.8411 43.2786C56.1766 43.4456 57.3995 43.9977 58.244 44.4977M52.6757 32.7537C53.2944 33.7856 55.2123 36.0969 57.9346 37.0875C58.198 37.966 58.6856 39.8168 58.8247 41.1117M52.6757 32.7537C53.3975 32.0315 54.903 29.8439 55.1505 26.8722L55.7692 25.634C56.9035 26.769 59.6051 28.9772 61.3375 28.7295C65.2559 27.5945 74.2065 26.1293 78.6611 29.3487M58.244 44.4977C58.4915 44.2347 58.7596 42.5435 58.8627 41.7308C58.8627 41.5468 58.849 41.3377 58.8247 41.1117M75.5676 43.8977C75.5676 42.1435 75.8151 38.3876 76.805 37.3971M75.5676 43.8977C75.3971 44.58 75.3212 45.2427 75.313 45.8701M75.5676 43.8977C71.727 44.5168 63.0015 44.8263 58.8247 41.1117M76.805 37.3971C77.0112 37.6034 77.733 38.0781 78.9704 38.3257C78.4548 39.048 77.733 40.7402 78.9704 41.7308C79.486 42.3499 80.5791 43.7119 80.8265 44.2072C79.8985 44.4136 77.9186 44.7025 77.4237 44.2072C76.8415 44.3871 75.6043 44.9715 75.313 45.8701M76.805 37.3971C79.5273 32.6918 79.1767 30.0709 78.6611 29.3487M78.6611 29.3487C79.3829 29.6582 79.8985 29.9678 80.5172 28.1104C80.8265 27.1818 80.7028 25.3245 77.733 21.6098" stroke="#201036"/>
</svg>
