<svg width="80" height="82" viewBox="0 0 80 82" fill="none" xmlns="http://www.w3.org/2000/svg">
<path d="M61.0468 10.5538C61.8295 8.17647 61.536 4.11505 61.2914 2.38151C58.7475 0.00413355 55.0133 1.22584 53.4641 2.13386C52.6814 2.92623 52.9749 7.74714 53.2195 10.0586M61.0468 10.5538L61.2914 11.7921C62.8406 11.5444 66.2324 11.7921 67.4065 14.7638C67.488 15.0114 67.5532 15.6553 67.1619 16.2496M61.0468 10.5538C60.6391 11.1317 59.6281 12.2873 58.8454 12.2873C58.1115 12.2873 57.6223 12.2873 56.1547 12.2873C54.9806 12.2873 53.7087 10.8015 53.2195 10.0586M67.1619 16.2496C67.488 16.1671 68.1892 16.101 68.3849 16.4973L69.1187 17.4878C70.5863 18.4784 73.1302 21.2025 71.5647 24.1742C72.1355 24.9171 73.0812 26.8488 72.2985 28.6318C73.6846 29.6224 75.5273 32.7922 71.8093 37.5469C71.5647 38.2073 70.782 39.8252 69.6079 41.0139C69.2818 41.3441 68.0424 41.7073 65.6943 40.5186M67.1619 16.2496C67.1619 16.6459 66.8357 17.2402 66.6726 17.4878M65.6943 40.5186C66.4281 43.9856 67.2597 51.7121 64.7158 54.8819C64.8789 55.1296 65.0583 56.2192 64.4712 58.5966L63.982 60.8254M65.6943 40.5186C65.3173 39.9463 64.7372 38.5802 64.7591 36.896M63.982 60.8254C64.3897 60.6603 65.1561 60.5282 64.9604 61.3207C64.7158 62.3112 63.2482 69.4929 63.982 73.2075C65.7758 74.3632 69.8036 76.8231 71.5647 77.4175C72.7062 77.8302 74.1575 78.8538 70.8309 79.6462C68.5479 79.4811 63.4928 79.151 61.536 79.151C59.09 79.2335 54.6382 78.6557 56.3994 75.684C56.9701 74.4457 57.8181 71.3254 56.644 68.7499C55.1763 65.5306 54.6871 60.8254 54.9317 60.5777C55.0042 60.5043 55.3346 60.605 55.9102 60.7507M63.982 60.8254C60.0237 61.6966 57.2763 61.0966 55.9102 60.7507M55.9102 60.7507C55.9917 60.0327 56.6929 58.3489 58.8454 57.3584C58.9269 56.7805 58.7475 54.8324 57.3778 51.6626M57.3778 51.6626C57.1332 52.5706 55.9591 54.7829 53.2195 56.3678C53.2195 56.698 52.9749 57.6555 51.9965 58.8442C52.3227 59.8348 52.2411 63.0542 49.3059 68.007C48.9798 68.915 48.4253 71.2759 48.8167 73.4552C48.8983 74.033 48.9636 75.3373 48.5722 75.9316C49.2245 77.7476 50.0398 81.2807 48.083 80.8845C45.7185 81.2146 41.1852 81.033 41.9679 77.6651C42.294 77.0047 42.9952 75.684 43.1908 75.684C43.4354 74.7759 43.9736 72.9104 44.1692 72.7122C44.4138 72.4646 43.6799 61.3207 45.8815 58.1013M57.3778 51.6626C57.6224 51.0022 58.2094 49.0376 58.6008 46.4621C58.8454 45.389 59.3835 43.1437 59.5792 42.7474M45.8815 58.1013C45.2292 57.9362 43.8757 57.3584 43.68 56.3678C43.4354 55.1296 38.788 50.9197 32.9175 52.1579C29.4116 52.1579 22.3507 50.2263 22.155 42.4998C22.0735 40.6012 21.3234 36.2592 18.9752 34.0799M45.8815 58.1013C46.3706 57.1933 47.5447 55.2782 48.3274 54.8819C47.7567 53.3135 47.1534 48.3442 49.3059 41.0139M18.9752 34.0799C16.203 35.2356 9.72922 38.7851 6.01126 43.738C5.68513 37.2993 12.322 22.7874 41.4786 16.2496M18.9752 34.0799C22.8888 31.7067 31.9391 26.5826 36.8311 25.0719M41.4786 16.2496C42.1309 15.5893 43.8268 14.318 45.3922 14.5161M41.4786 16.2496C41.0709 17.0751 40.3045 18.8746 40.5002 19.469C39.7664 19.6341 38.2498 20.2614 38.0541 21.4501C37.9418 22.2465 37.5661 23.7563 36.8311 25.0719M45.3922 14.5161C45.7184 14.4336 46.4685 14.1199 46.8598 13.5256C47.0229 13.443 47.6426 13.4265 48.8167 14.0208C49.1428 13.5256 50.0886 12.634 51.2627 13.0303C51.6703 12.9477 52.5346 12.7331 52.7303 12.535L53.2195 10.0586M45.3922 14.5161C46.2891 14.5987 48.2785 14.9124 49.0613 15.5067C49.844 16.101 51.8334 15.7543 52.7303 15.5067L52.2411 16.2496L53.4641 16.7449V17.9831C54.1979 17.9831 55.7634 18.0822 56.1547 18.4784C56.6439 18.9737 61.0468 18.9737 62.5144 18.2308C63.4928 18.6435 65.6942 19.0728 66.6726 17.4878M49.3059 41.0139C47.7405 40.8158 47.6752 40.1059 47.8382 39.7757C46.4685 38.7851 46.126 37.3818 46.126 36.804C46.126 36.4078 43.0278 34.8229 41.4786 34.0799C35.8039 31.1082 35.2005 27.8889 35.6081 26.6506C36.0948 26.2195 36.4995 25.6655 36.8311 25.0719M49.3059 41.0139C50.2028 40.4361 52.0943 39.1318 52.4857 38.5375C52.9749 37.7946 53.2195 37.5469 51.9965 36.3087C51.8373 36.1744 51.5848 35.9911 51.2627 35.7981M46.8598 26.403C46.0771 27.1955 44.903 27.2285 44.4138 27.1459C44.8052 27.7403 45.7184 29.87 46.126 30.8606C46.126 31.4549 47.7567 33.7497 48.5721 34.8229C49.628 34.9565 50.595 35.3981 51.2627 35.7981M46.8598 26.403C47.349 27.2285 48.8656 29.0775 51.0181 29.87C51.2263 30.5728 51.6119 32.0535 51.7219 33.0894M46.8598 26.403C47.4306 25.8252 48.621 24.0752 48.8167 21.6978L49.3059 20.7072C50.2027 21.6152 52.3389 23.3818 53.7087 23.1836C56.807 22.2756 63.8842 21.1034 67.4065 23.6789M51.2627 35.7981C51.4584 35.5878 51.6703 34.2348 51.7519 33.5846C51.7519 33.4374 51.7411 33.2702 51.7219 33.0894M64.9604 35.3181C64.9604 33.9148 65.1561 30.9101 65.9388 30.1176M64.9604 35.3181C64.8256 35.864 64.7656 36.3941 64.7591 36.896M64.9604 35.3181C61.9236 35.8134 55.0245 36.0611 51.7219 33.0894M65.9388 30.1176C66.1019 30.2827 66.6726 30.6625 67.651 30.8606C67.2434 31.4384 66.6726 32.7922 67.651 33.5846C68.0587 34.0799 68.923 35.1696 69.1187 35.5658C68.3848 35.7309 66.8194 35.962 66.428 35.5658C65.9677 35.7097 64.9894 36.1772 64.7591 36.896M65.9388 30.1176C68.0913 26.3535 67.8141 24.2568 67.4065 23.6789M67.4065 23.6789C67.9772 23.9266 68.3848 24.1742 68.8741 22.6884C69.1187 21.9454 69.0208 20.4596 66.6726 17.4878" stroke="#201036"/>
</svg>
