<svg width="80" height="80" viewBox="0 0 80 80" fill="none" xmlns="http://www.w3.org/2000/svg">
<mask id="path-1-inside-1_615_1507" fill="white">
<path d="M57.9786 27.7621L57.9495 27.7498C57.9327 27.7433 57.9161 27.7376 57.9015 27.7226C57.8529 27.6706 57.8313 27.5989 57.843 27.5286L59.4576 17.6682L67.0292 25.2335L59.1547 28.5801C59.1333 28.589 59.1094 28.5934 59.0858 28.5924H59.0545C59.0441 28.5859 59.0337 28.5777 59.0127 28.5569C58.7197 28.231 58.3691 27.9616 57.9786 27.7621ZM68.9611 27.1612L77.057 35.2482C78.7384 36.9298 79.5802 37.7686 79.8872 38.7408C79.9332 38.8848 79.9707 39.0288 80 39.1769L60.6522 30.9919C60.6418 30.9875 60.6315 30.9832 60.6209 30.9796C60.5436 30.9483 60.4538 30.9129 60.4538 30.8336C60.4538 30.7543 60.5457 30.7167 60.6229 30.6855L60.648 30.6751L68.9611 27.1612ZM79.67 41.7724C79.2522 42.5569 78.4376 43.3706 77.0591 44.7497L67.9314 53.8653L56.1259 51.4096L56.0633 51.3974C55.9588 51.3805 55.8482 51.3619 55.8482 51.268C55.7575 50.2847 55.262 49.3831 54.48 48.7789C54.432 48.7309 54.4445 48.6558 54.4593 48.587C54.4593 48.5766 54.4593 48.5663 54.4635 48.5576L56.6838 34.9416L56.6919 34.8957C56.7042 34.7914 56.7232 34.6704 56.8172 34.6704C57.7784 34.5509 58.6513 34.0511 59.2402 33.2829C59.259 33.2622 59.2715 33.2391 59.2965 33.2266C59.3634 33.1953 59.4428 33.2266 59.5117 33.2559L79.6678 41.7727L79.67 41.7724ZM65.8322 55.9622L50.8227 70.9552L53.3918 55.1819L53.3959 55.1612C53.3981 55.1405 53.4025 55.1195 53.4082 55.1007C53.429 55.0506 53.4834 55.0297 53.5356 55.0089L53.5607 54.9985C54.1233 54.7587 54.6208 54.389 55.0124 53.9198C55.0625 53.8614 55.1231 53.8051 55.2004 53.7946C55.2204 53.7912 55.2409 53.7912 55.2609 53.7946L65.8298 55.9645L65.8322 55.9622ZM47.6457 74.1287L45.9539 75.8187L27.2494 48.8162C27.2426 48.8063 27.2357 48.7967 27.2287 48.7869C27.1996 48.7472 27.1681 48.7076 27.1744 48.6617C27.1744 48.6283 27.1975 48.5991 27.2203 48.574L27.2411 48.5469C27.2975 48.4634 27.3455 48.38 27.3977 48.2902L27.4395 48.2172L27.446 48.2107C27.4754 48.1606 27.5024 48.1126 27.5525 48.0855C27.5963 48.0648 27.657 48.0732 27.705 48.0834L48.4272 52.3522C48.4851 52.3611 48.5397 52.3849 48.5859 52.421C48.6131 52.4482 48.6194 52.4774 48.6256 52.5108C48.9186 53.6182 49.7129 54.5251 50.7728 54.9623C50.8313 54.9917 50.8063 55.0562 50.7793 55.1251C50.7658 55.1553 50.7551 55.1867 50.748 55.219C50.4869 56.8046 48.2473 70.4461 47.6457 74.1287ZM44.1116 77.6568C42.8647 78.8899 42.1294 79.5429 41.2981 79.8058C40.4785 80.0647 39.5988 80.0647 38.7791 79.8058C37.8058 79.497 36.964 78.6583 35.2826 76.9766L16.4988 58.2134L21.4052 50.6126C21.4283 50.575 21.4512 50.5416 21.4887 50.5145C21.5409 50.477 21.6161 50.4938 21.6788 50.5145C22.8049 50.8539 24.0141 50.7927 25.1001 50.3413C25.1565 50.3207 25.2129 50.3059 25.2568 50.3455C25.2789 50.3652 25.2983 50.3879 25.3152 50.4122L44.1116 77.6588L44.1116 77.6568ZM14.6879 56.4045L10.3788 52.1002L18.8883 48.474C18.91 48.4644 18.9335 48.4596 18.9572 48.4593C19.0282 48.4593 19.07 48.5303 19.1076 48.5949C19.1931 48.7264 19.2837 48.8544 19.3791 48.9788L19.4064 49.0122C19.4315 49.0477 19.4145 49.0832 19.3895 49.1166L14.6899 56.4044L14.6879 56.4045ZM8.47184 50.1953L3.02029 44.7497C2.0929 43.8234 1.42033 43.1515 0.952454 42.5736L17.5285 46.0079C17.5492 46.0117 17.5702 46.0154 17.5912 46.0182C17.6935 46.0351 17.8063 46.0537 17.8063 46.1497C17.8063 46.254 17.6831 46.302 17.5786 46.3416L17.5306 46.3623L8.47184 50.1953ZM0 39.7736C0.0189693 39.4228 0.0820603 39.0758 0.187971 38.7408C0.497102 37.7686 1.33677 36.9298 3.02027 35.2482L9.99659 28.2795C13.2087 32.9362 16.4295 37.5868 19.659 42.2314C19.7154 42.3065 19.778 42.39 19.7133 42.4526C19.4084 42.7885 19.1034 43.1557 18.8883 43.5542C18.8649 43.6054 18.829 43.65 18.7838 43.6836C18.7566 43.7004 18.7274 43.694 18.6961 43.6877H18.692L0 39.7715V39.7736ZM11.8639 26.4143L21.2402 17.0441C22.1237 17.4301 25.3341 18.7842 28.2019 19.9943C30.3741 20.9124 32.3542 21.7469 32.9767 22.0182C33.0393 22.0432 33.0957 22.0682 33.1229 22.1308C33.1398 22.1684 33.131 22.2164 33.1229 22.256C32.8213 23.63 33.2318 25.0633 34.2153 26.07C34.2779 26.1326 34.2153 26.2223 34.161 26.2995L34.1319 26.3434L24.6073 41.0798C24.5822 41.1215 24.5593 41.157 24.5175 41.1841C24.4674 41.2154 24.3963 41.2009 24.3379 41.1862C23.9674 41.0893 23.5866 41.0374 23.2037 41.0318C22.8611 41.0318 22.4893 41.0944 22.1134 41.1633H22.1112C22.0695 41.1698 22.0319 41.1779 21.9984 41.1529C21.9615 41.1227 21.9298 41.0869 21.9045 41.0465L11.8619 26.4144L11.8639 26.4143ZM23.1388 15.1517L35.2826 3.02128C36.964 1.34171 37.8058 0.500882 38.7791 0.194176C39.5988 -0.0647253 40.4785 -0.0647253 41.2981 0.194176C42.2715 0.500882 43.1132 1.34171 44.7946 3.02128L47.4264 5.65017L38.7896 19.0116C38.7684 19.0505 38.7391 19.0846 38.7039 19.1118C38.6517 19.1472 38.5786 19.1324 38.5159 19.1118C37.1335 18.6927 35.6331 18.9815 34.5056 19.8837C34.4492 19.9422 34.3657 19.9088 34.2947 19.8772C33.1667 19.3869 24.3941 15.6838 23.1388 15.1517ZM49.2603 7.48205L57.2351 15.448L55.3134 27.3365V27.3678C55.3118 27.3949 55.3059 27.4215 55.2966 27.447C55.2758 27.4888 55.2339 27.4971 55.1921 27.5096C54.7812 27.634 54.3943 27.8265 54.0475 28.0792C54.0325 28.0901 54.0187 28.1018 54.0057 28.1147C53.9826 28.1397 53.9597 28.1627 53.9222 28.1668C53.8916 28.1678 53.8611 28.163 53.8323 28.1522L41.6802 22.9945L41.657 22.9842C41.5798 22.9529 41.4879 22.9153 41.4879 22.8361C41.4164 22.1596 41.1953 21.5075 40.8404 20.927C40.7819 20.831 40.7171 20.7308 40.7672 20.6328L49.2603 7.48205ZM41.0475 25.4378L52.4394 30.2574C52.502 30.2868 52.571 30.3138 52.5981 30.3784C52.6091 30.4174 52.6091 30.4585 52.5981 30.4974C52.5646 30.6643 52.5354 30.8542 52.5354 31.0461V31.3653C52.5354 31.4446 52.454 31.478 52.3788 31.5093L52.3557 31.5175C50.551 32.2874 27.0195 42.3106 26.984 42.3106C26.9485 42.3106 26.9109 42.3106 26.8754 42.2751C26.8128 42.2125 26.8754 42.1249 26.9318 42.0456C26.942 42.0319 26.9513 42.0178 26.9609 42.0039L36.3225 27.5241L36.3394 27.4991C36.3937 27.4114 36.4564 27.3134 36.5566 27.3134L36.6506 27.328C36.8637 27.3574 37.0517 27.3843 37.2417 27.3843C38.6621 27.3843 39.978 26.6937 40.7717 25.5128C40.7907 25.4812 40.8145 25.4531 40.8427 25.4293C40.8991 25.3876 40.9827 25.409 41.0475 25.4378ZM28.0014 44.6016L53.6508 33.675C53.6508 33.675 53.6884 33.675 53.7239 33.7105C53.8638 33.8503 53.9829 33.9441 54.0978 34.0318L54.1542 34.0672C54.2064 34.0966 54.2587 34.1298 54.2628 34.1841C54.2628 34.2048 54.2628 34.2175 54.2584 34.2363L52.0611 47.7187L52.0529 47.773C52.0382 47.8773 52.0238 47.9963 51.9255 47.9963C50.7362 48.0765 49.6631 48.7377 49.0577 49.7635L49.0473 49.7803C49.0182 49.8283 48.9909 49.8742 48.9428 49.8992C48.899 49.9199 48.8426 49.9115 48.7966 49.9013L28.3418 45.6867C28.3211 45.6826 28.0243 44.6037 28.0014 44.6016Z"/>
</mask>
<path d="M57.9786 27.7621L57.9495 27.7498C57.9327 27.7433 57.9161 27.7376 57.9015 27.7226C57.8529 27.6706 57.8313 27.5989 57.843 27.5286L59.4576 17.6682L67.0292 25.2335L59.1547 28.5801C59.1333 28.589 59.1094 28.5934 59.0858 28.5924H59.0545C59.0441 28.5859 59.0337 28.5777 59.0127 28.5569C58.7197 28.231 58.3691 27.9616 57.9786 27.7621ZM68.9611 27.1612L77.057 35.2482C78.7384 36.9298 79.5802 37.7686 79.8872 38.7408C79.9332 38.8848 79.9707 39.0288 80 39.1769L60.6522 30.9919C60.6418 30.9875 60.6315 30.9832 60.6209 30.9796C60.5436 30.9483 60.4538 30.9129 60.4538 30.8336C60.4538 30.7543 60.5457 30.7167 60.6229 30.6855L60.648 30.6751L68.9611 27.1612ZM79.67 41.7724C79.2522 42.5569 78.4376 43.3706 77.0591 44.7497L67.9314 53.8653L56.1259 51.4096L56.0633 51.3974C55.9588 51.3805 55.8482 51.3619 55.8482 51.268C55.7575 50.2847 55.262 49.3831 54.48 48.7789C54.432 48.7309 54.4445 48.6558 54.4593 48.587C54.4593 48.5766 54.4593 48.5663 54.4635 48.5576L56.6838 34.9416L56.6919 34.8957C56.7042 34.7914 56.7232 34.6704 56.8172 34.6704C57.7784 34.5509 58.6513 34.0511 59.2402 33.2829C59.259 33.2622 59.2715 33.2391 59.2965 33.2266C59.3634 33.1953 59.4428 33.2266 59.5117 33.2559L79.6678 41.7727L79.67 41.7724ZM65.8322 55.9622L50.8227 70.9552L53.3918 55.1819L53.3959 55.1612C53.3981 55.1405 53.4025 55.1195 53.4082 55.1007C53.429 55.0506 53.4834 55.0297 53.5356 55.0089L53.5607 54.9985C54.1233 54.7587 54.6208 54.389 55.0124 53.9198C55.0625 53.8614 55.1231 53.8051 55.2004 53.7946C55.2204 53.7912 55.2409 53.7912 55.2609 53.7946L65.8298 55.9645L65.8322 55.9622ZM47.6457 74.1287L45.9539 75.8187L27.2494 48.8162C27.2426 48.8063 27.2357 48.7967 27.2287 48.7869C27.1996 48.7472 27.1681 48.7076 27.1744 48.6617C27.1744 48.6283 27.1975 48.5991 27.2203 48.574L27.2411 48.5469C27.2975 48.4634 27.3455 48.38 27.3977 48.2902L27.4395 48.2172L27.446 48.2107C27.4754 48.1606 27.5024 48.1126 27.5525 48.0855C27.5963 48.0648 27.657 48.0732 27.705 48.0834L48.4272 52.3522C48.4851 52.3611 48.5397 52.3849 48.5859 52.421C48.6131 52.4482 48.6194 52.4774 48.6256 52.5108C48.9186 53.6182 49.7129 54.5251 50.7728 54.9623C50.8313 54.9917 50.8063 55.0562 50.7793 55.1251C50.7658 55.1553 50.7551 55.1867 50.748 55.219C50.4869 56.8046 48.2473 70.4461 47.6457 74.1287ZM44.1116 77.6568C42.8647 78.8899 42.1294 79.5429 41.2981 79.8058C40.4785 80.0647 39.5988 80.0647 38.7791 79.8058C37.8058 79.497 36.964 78.6583 35.2826 76.9766L16.4988 58.2134L21.4052 50.6126C21.4283 50.575 21.4512 50.5416 21.4887 50.5145C21.5409 50.477 21.6161 50.4938 21.6788 50.5145C22.8049 50.8539 24.0141 50.7927 25.1001 50.3413C25.1565 50.3207 25.2129 50.3059 25.2568 50.3455C25.2789 50.3652 25.2983 50.3879 25.3152 50.4122L44.1116 77.6588L44.1116 77.6568ZM14.6879 56.4045L10.3788 52.1002L18.8883 48.474C18.91 48.4644 18.9335 48.4596 18.9572 48.4593C19.0282 48.4593 19.07 48.5303 19.1076 48.5949C19.1931 48.7264 19.2837 48.8544 19.3791 48.9788L19.4064 49.0122C19.4315 49.0477 19.4145 49.0832 19.3895 49.1166L14.6899 56.4044L14.6879 56.4045ZM8.47184 50.1953L3.02029 44.7497C2.0929 43.8234 1.42033 43.1515 0.952454 42.5736L17.5285 46.0079C17.5492 46.0117 17.5702 46.0154 17.5912 46.0182C17.6935 46.0351 17.8063 46.0537 17.8063 46.1497C17.8063 46.254 17.6831 46.302 17.5786 46.3416L17.5306 46.3623L8.47184 50.1953ZM0 39.7736C0.0189693 39.4228 0.0820603 39.0758 0.187971 38.7408C0.497102 37.7686 1.33677 36.9298 3.02027 35.2482L9.99659 28.2795C13.2087 32.9362 16.4295 37.5868 19.659 42.2314C19.7154 42.3065 19.778 42.39 19.7133 42.4526C19.4084 42.7885 19.1034 43.1557 18.8883 43.5542C18.8649 43.6054 18.829 43.65 18.7838 43.6836C18.7566 43.7004 18.7274 43.694 18.6961 43.6877H18.692L0 39.7715V39.7736ZM11.8639 26.4143L21.2402 17.0441C22.1237 17.4301 25.3341 18.7842 28.2019 19.9943C30.3741 20.9124 32.3542 21.7469 32.9767 22.0182C33.0393 22.0432 33.0957 22.0682 33.1229 22.1308C33.1398 22.1684 33.131 22.2164 33.1229 22.256C32.8213 23.63 33.2318 25.0633 34.2153 26.07C34.2779 26.1326 34.2153 26.2223 34.161 26.2995L34.1319 26.3434L24.6073 41.0798C24.5822 41.1215 24.5593 41.157 24.5175 41.1841C24.4674 41.2154 24.3963 41.2009 24.3379 41.1862C23.9674 41.0893 23.5866 41.0374 23.2037 41.0318C22.8611 41.0318 22.4893 41.0944 22.1134 41.1633H22.1112C22.0695 41.1698 22.0319 41.1779 21.9984 41.1529C21.9615 41.1227 21.9298 41.0869 21.9045 41.0465L11.8619 26.4144L11.8639 26.4143ZM23.1388 15.1517L35.2826 3.02128C36.964 1.34171 37.8058 0.500882 38.7791 0.194176C39.5988 -0.0647253 40.4785 -0.0647253 41.2981 0.194176C42.2715 0.500882 43.1132 1.34171 44.7946 3.02128L47.4264 5.65017L38.7896 19.0116C38.7684 19.0505 38.7391 19.0846 38.7039 19.1118C38.6517 19.1472 38.5786 19.1324 38.5159 19.1118C37.1335 18.6927 35.6331 18.9815 34.5056 19.8837C34.4492 19.9422 34.3657 19.9088 34.2947 19.8772C33.1667 19.3869 24.3941 15.6838 23.1388 15.1517ZM49.2603 7.48205L57.2351 15.448L55.3134 27.3365V27.3678C55.3118 27.3949 55.3059 27.4215 55.2966 27.447C55.2758 27.4888 55.2339 27.4971 55.1921 27.5096C54.7812 27.634 54.3943 27.8265 54.0475 28.0792C54.0325 28.0901 54.0187 28.1018 54.0057 28.1147C53.9826 28.1397 53.9597 28.1627 53.9222 28.1668C53.8916 28.1678 53.8611 28.163 53.8323 28.1522L41.6802 22.9945L41.657 22.9842C41.5798 22.9529 41.4879 22.9153 41.4879 22.8361C41.4164 22.1596 41.1953 21.5075 40.8404 20.927C40.7819 20.831 40.7171 20.7308 40.7672 20.6328L49.2603 7.48205ZM41.0475 25.4378L52.4394 30.2574C52.502 30.2868 52.571 30.3138 52.5981 30.3784C52.6091 30.4174 52.6091 30.4585 52.5981 30.4974C52.5646 30.6643 52.5354 30.8542 52.5354 31.0461V31.3653C52.5354 31.4446 52.454 31.478 52.3788 31.5093L52.3557 31.5175C50.551 32.2874 27.0195 42.3106 26.984 42.3106C26.9485 42.3106 26.9109 42.3106 26.8754 42.2751C26.8128 42.2125 26.8754 42.1249 26.9318 42.0456C26.942 42.0319 26.9513 42.0178 26.9609 42.0039L36.3225 27.5241L36.3394 27.4991C36.3937 27.4114 36.4564 27.3134 36.5566 27.3134L36.6506 27.328C36.8637 27.3574 37.0517 27.3843 37.2417 27.3843C38.6621 27.3843 39.978 26.6937 40.7717 25.5128C40.7907 25.4812 40.8145 25.4531 40.8427 25.4293C40.8991 25.3876 40.9827 25.409 41.0475 25.4378ZM28.0014 44.6016L53.6508 33.675C53.6508 33.675 53.6884 33.675 53.7239 33.7105C53.8638 33.8503 53.9829 33.9441 54.0978 34.0318L54.1542 34.0672C54.2064 34.0966 54.2587 34.1298 54.2628 34.1841C54.2628 34.2048 54.2628 34.2175 54.2584 34.2363L52.0611 47.7187L52.0529 47.773C52.0382 47.8773 52.0238 47.9963 51.9255 47.9963C50.7362 48.0765 49.6631 48.7377 49.0577 49.7635L49.0473 49.7803C49.0182 49.8283 48.9909 49.8742 48.9428 49.8992C48.899 49.9199 48.8426 49.9115 48.7966 49.9013L28.3418 45.6867C28.3211 45.6826 28.0243 44.6037 28.0014 44.6016Z" stroke="#201036" stroke-width="2" mask="url(#path-1-inside-1_615_1507)"/>
</svg>
