<svg width="100" height="100" viewBox="0 0 100 100" fill="none" xmlns="http://www.w3.org/2000/svg">
<mask id="path-1-inside-1_525_105" fill="white">
<path d="M72.4733 34.7026L72.4369 34.6873C72.4159 34.6792 72.3951 34.672 72.3769 34.6533C72.3161 34.5882 72.2892 34.4986 72.3038 34.4107L74.322 22.0852L83.7865 31.5419L73.9434 35.7252C73.9166 35.7363 73.8867 35.7417 73.8572 35.7405H73.8181C73.8051 35.7324 73.7922 35.7222 73.7659 35.6962C73.3996 35.2887 72.9613 34.9521 72.4733 34.7026ZM86.2014 33.9515L96.3212 44.0602C98.423 46.1623 99.4752 47.2107 99.859 48.4261C99.9165 48.606 99.9634 48.786 100 48.9711L75.8153 38.7398C75.8023 38.7344 75.7893 38.7291 75.7761 38.7245C75.6795 38.6854 75.5672 38.6411 75.5672 38.542C75.5672 38.4429 75.6821 38.3959 75.7787 38.3568L75.81 38.3438L86.2014 33.9515ZM99.5875 52.2155C99.0653 53.1961 98.047 54.2133 96.3239 55.9372L84.9142 67.3317L70.1574 64.262L70.0791 64.2467C69.9485 64.2257 69.8102 64.2024 69.8102 64.085C69.6969 62.8558 69.0775 61.7289 68.1001 60.9736C68.04 60.9137 68.0557 60.8198 68.0742 60.7337C68.0742 60.7207 68.0742 60.7079 68.0793 60.6971L70.8547 43.6771L70.8649 43.6196C70.8802 43.4892 70.9041 43.338 71.0216 43.338C72.223 43.1887 73.3141 42.5638 74.0502 41.6036C74.0737 41.5778 74.0893 41.5489 74.1207 41.5332C74.2042 41.4941 74.3034 41.5332 74.3896 41.5699L99.5848 52.2158L99.5875 52.2155ZM82.2903 69.9527L63.5284 88.694L66.7398 68.9773L66.7449 68.9515C66.7476 68.9256 66.7531 68.8993 66.7603 68.8758C66.7862 68.8132 66.8543 68.7872 66.9195 68.7611L66.9509 68.7481C67.6541 68.4484 68.276 67.9863 68.7655 67.3998C68.8282 67.3267 68.9039 67.2563 69.0005 67.2432C69.0255 67.239 69.0511 67.239 69.0762 67.2432L82.2873 69.9556L82.2903 69.9527ZM59.5572 92.6608L57.4424 94.7733L34.0618 61.0202C34.0533 61.0079 34.0446 60.9959 34.0359 60.9836C33.9995 60.934 33.9602 60.8845 33.968 60.8271C33.968 60.7853 33.9969 60.7488 34.0254 60.7175L34.0513 60.6836C34.1218 60.5792 34.1819 60.4749 34.2471 60.3628L34.2993 60.2715L34.3075 60.2634C34.3442 60.2008 34.378 60.1408 34.4406 60.1069C34.4954 60.081 34.5712 60.0915 34.6312 60.1042L60.5339 65.4402C60.6064 65.4513 60.6747 65.4811 60.7324 65.5263C60.7664 65.5603 60.7742 65.5967 60.782 65.6385C61.1482 67.0227 62.1412 68.1564 63.466 68.7029C63.5391 68.7396 63.5078 68.8203 63.4741 68.9063C63.4573 68.9441 63.4439 68.9834 63.435 69.0237C63.1086 71.0058 60.3091 88.0577 59.5572 92.6608ZM55.1395 97.071C53.5808 98.6124 52.6618 99.4287 51.6227 99.7573C50.5981 100.081 49.4985 100.081 48.4739 99.7573C47.2572 99.3713 46.2051 98.3229 44.1033 96.2208L20.6235 72.7668L26.7565 63.2657C26.7854 63.2188 26.8139 63.1771 26.8609 63.1431C26.9261 63.0962 27.0202 63.1173 27.0985 63.1431C28.5062 63.5674 30.0176 63.4909 31.3751 62.9267C31.4456 62.9008 31.5161 62.8823 31.5709 62.9318C31.5987 62.9565 31.6229 62.9848 31.644 63.0153L55.1395 97.0735L55.1395 97.071ZM18.3598 70.5056L12.9736 65.1253L23.6103 60.5925C23.6375 60.5805 23.6668 60.5745 23.6965 60.5742C23.7853 60.5742 23.8375 60.6629 23.8845 60.7437C23.9914 60.9079 24.1046 61.068 24.2239 61.2236L24.258 61.2653C24.2894 61.3096 24.2682 61.354 24.2369 61.3957L18.3624 70.5056L18.3598 70.5056ZM10.5898 62.7441L3.77536 55.9372C2.61612 54.7792 1.77541 53.9394 1.19057 53.217L21.9107 57.5098C21.9366 57.5147 21.9628 57.5192 21.989 57.5228C22.1169 57.5438 22.2579 57.5671 22.2579 57.6871C22.2579 57.8175 22.1038 57.8775 21.9733 57.927L21.9132 57.9529L10.5898 62.7441ZM0 49.717C0.0237116 49.2785 0.102575 48.8448 0.234964 48.4261C0.621378 47.2107 1.67096 46.1623 3.77534 44.0602L12.4957 35.3494C16.5109 41.1702 20.5369 46.9835 24.5738 52.7893C24.6443 52.8832 24.7226 52.9875 24.6417 53.0657C24.2605 53.4856 23.8793 53.9446 23.6103 54.4428C23.5811 54.5068 23.5363 54.5624 23.4798 54.6045C23.4457 54.6255 23.4093 54.6175 23.3701 54.6096H23.365L0 49.7144V49.717ZM14.8299 33.0178L26.5502 21.3052C27.6546 21.7877 31.6676 23.4803 35.2523 24.9929C37.9677 26.1405 40.4428 27.1837 41.2209 27.5227C41.2992 27.554 41.3697 27.5853 41.4036 27.6635C41.4247 27.7105 41.4138 27.7705 41.4036 27.82C41.0266 29.5375 41.5398 31.3292 42.7691 32.5875C42.8474 32.6658 42.7691 32.7779 42.7012 32.8744L42.6648 32.9292L30.7592 51.3497C30.7278 51.4019 30.6991 51.4462 30.6469 51.4801C30.5842 51.5193 30.4954 51.5012 30.4223 51.4828C29.9593 51.3616 29.4832 51.2968 29.0046 51.2898C28.5764 51.2898 28.1117 51.3681 27.6417 51.4541H27.6391C27.5868 51.4622 27.5398 51.4724 27.4981 51.4411C27.4519 51.4033 27.4122 51.3586 27.3806 51.3081L14.8274 33.018L14.8299 33.0178ZM28.9235 18.9397L44.1033 3.7766C46.2051 1.67714 47.2572 0.626103 48.4739 0.24272C49.4985 -0.0809067 50.5981 -0.0809067 51.6227 0.24272C52.8393 0.626103 53.8915 1.67714 55.9933 3.7766L59.283 7.06272L48.487 23.7645C48.4605 23.8132 48.4238 23.8557 48.3799 23.8897C48.3147 23.934 48.2233 23.9155 48.1449 23.8897C46.4169 23.3659 44.5414 23.7269 43.132 24.8547C43.0615 24.9277 42.9571 24.886 42.8683 24.8466C41.4584 24.2337 30.4927 19.6047 28.9235 18.9397ZM61.5754 9.35256L71.5438 19.31L69.1418 34.1706V34.2097C69.1398 34.2436 69.1324 34.2769 69.1207 34.3088C69.0948 34.3609 69.0424 34.3714 68.9901 34.3871C68.4766 34.5425 67.9929 34.7831 67.5593 35.099C67.5407 35.1126 67.5234 35.1273 67.5071 35.1434C67.4782 35.1747 67.4497 35.2033 67.4027 35.2086C67.3645 35.2097 67.3263 35.2037 67.2904 35.1902L52.1002 28.7432L52.0713 28.7302C51.9747 28.6911 51.8598 28.6441 51.8598 28.5451C51.7705 27.6995 51.4941 26.8844 51.0504 26.1587C50.9773 26.0387 50.8964 25.9135 50.959 25.791L61.5754 9.35256ZM51.3094 31.7973L65.5492 37.8218C65.6275 37.8585 65.7137 37.8922 65.7476 37.9731C65.7614 38.0217 65.7614 38.0731 65.7476 38.1217C65.7058 38.3304 65.6693 38.5677 65.6693 38.8076V39.2067C65.6693 39.3058 65.5675 39.3475 65.4735 39.3867L65.4446 39.3968C63.1888 40.3592 33.7744 52.8882 33.73 52.8882C33.6856 52.8882 33.6386 52.8882 33.5943 52.8439C33.516 52.7657 33.5943 52.6561 33.6648 52.557C33.6775 52.5398 33.6892 52.5222 33.7011 52.5048L45.4032 34.4051L45.4243 34.3738C45.4922 34.2643 45.5705 34.1417 45.6958 34.1417L45.8133 34.16C46.0796 34.1967 46.3146 34.2304 46.5522 34.2304C48.3276 34.2304 49.9724 33.3672 50.9646 31.891C50.9884 31.8516 51.0182 31.8163 51.0533 31.7866C51.1238 31.7345 51.2284 31.7613 51.3094 31.7973ZM35.0017 55.752L67.0635 42.0938C67.0635 42.0938 67.1105 42.0938 67.1549 42.1381C67.3298 42.3128 67.4786 42.4302 67.6222 42.5397L67.6927 42.5841C67.758 42.6207 67.8233 42.6623 67.8285 42.7301C67.8285 42.756 67.8285 42.7719 67.823 42.7953L65.0763 59.6484L65.0661 59.7162C65.0478 59.8467 65.0298 59.9953 64.9069 59.9953C63.4202 60.0956 62.0788 60.9221 61.3221 62.2043L61.3091 62.2254C61.2727 62.2854 61.2386 62.3427 61.1785 62.374C61.1237 62.3999 61.0532 62.3893 60.9958 62.3767L35.4273 57.1084C35.4014 57.1032 35.0304 55.7546 35.0017 55.752Z"/>
</mask>
<path d="M72.4733 34.7026L72.4369 34.6873C72.4159 34.6792 72.3951 34.672 72.3769 34.6533C72.3161 34.5882 72.2892 34.4986 72.3038 34.4107L74.322 22.0852L83.7865 31.5419L73.9434 35.7252C73.9166 35.7363 73.8867 35.7417 73.8572 35.7405H73.8181C73.8051 35.7324 73.7922 35.7222 73.7659 35.6962C73.3996 35.2887 72.9613 34.9521 72.4733 34.7026ZM86.2014 33.9515L96.3212 44.0602C98.423 46.1623 99.4752 47.2107 99.859 48.4261C99.9165 48.606 99.9634 48.786 100 48.9711L75.8153 38.7398C75.8023 38.7344 75.7893 38.7291 75.7761 38.7245C75.6795 38.6854 75.5672 38.6411 75.5672 38.542C75.5672 38.4429 75.6821 38.3959 75.7787 38.3568L75.81 38.3438L86.2014 33.9515ZM99.5875 52.2155C99.0653 53.1961 98.047 54.2133 96.3239 55.9372L84.9142 67.3317L70.1574 64.262L70.0791 64.2467C69.9485 64.2257 69.8102 64.2024 69.8102 64.085C69.6969 62.8558 69.0775 61.7289 68.1001 60.9736C68.04 60.9137 68.0557 60.8198 68.0742 60.7337C68.0742 60.7207 68.0742 60.7079 68.0793 60.6971L70.8547 43.6771L70.8649 43.6196C70.8802 43.4892 70.9041 43.338 71.0216 43.338C72.223 43.1887 73.3141 42.5638 74.0502 41.6036C74.0737 41.5778 74.0893 41.5489 74.1207 41.5332C74.2042 41.4941 74.3034 41.5332 74.3896 41.5699L99.5848 52.2158L99.5875 52.2155ZM82.2903 69.9527L63.5284 88.694L66.7398 68.9773L66.7449 68.9515C66.7476 68.9256 66.7531 68.8993 66.7603 68.8758C66.7862 68.8132 66.8543 68.7872 66.9195 68.7611L66.9509 68.7481C67.6541 68.4484 68.276 67.9863 68.7655 67.3998C68.8282 67.3267 68.9039 67.2563 69.0005 67.2432C69.0255 67.239 69.0511 67.239 69.0762 67.2432L82.2873 69.9556L82.2903 69.9527ZM59.5572 92.6608L57.4424 94.7733L34.0618 61.0202C34.0533 61.0079 34.0446 60.9959 34.0359 60.9836C33.9995 60.934 33.9602 60.8845 33.968 60.8271C33.968 60.7853 33.9969 60.7488 34.0254 60.7175L34.0513 60.6836C34.1218 60.5792 34.1819 60.4749 34.2471 60.3628L34.2993 60.2715L34.3075 60.2634C34.3442 60.2008 34.378 60.1408 34.4406 60.1069C34.4954 60.081 34.5712 60.0915 34.6312 60.1042L60.5339 65.4402C60.6064 65.4513 60.6747 65.4811 60.7324 65.5263C60.7664 65.5603 60.7742 65.5967 60.782 65.6385C61.1482 67.0227 62.1412 68.1564 63.466 68.7029C63.5391 68.7396 63.5078 68.8203 63.4741 68.9063C63.4573 68.9441 63.4439 68.9834 63.435 69.0237C63.1086 71.0058 60.3091 88.0577 59.5572 92.6608ZM55.1395 97.071C53.5808 98.6124 52.6618 99.4287 51.6227 99.7573C50.5981 100.081 49.4985 100.081 48.4739 99.7573C47.2572 99.3713 46.2051 98.3229 44.1033 96.2208L20.6235 72.7668L26.7565 63.2657C26.7854 63.2188 26.8139 63.1771 26.8609 63.1431C26.9261 63.0962 27.0202 63.1173 27.0985 63.1431C28.5062 63.5674 30.0176 63.4909 31.3751 62.9267C31.4456 62.9008 31.5161 62.8823 31.5709 62.9318C31.5987 62.9565 31.6229 62.9848 31.644 63.0153L55.1395 97.0735L55.1395 97.071ZM18.3598 70.5056L12.9736 65.1253L23.6103 60.5925C23.6375 60.5805 23.6668 60.5745 23.6965 60.5742C23.7853 60.5742 23.8375 60.6629 23.8845 60.7437C23.9914 60.9079 24.1046 61.068 24.2239 61.2236L24.258 61.2653C24.2894 61.3096 24.2682 61.354 24.2369 61.3957L18.3624 70.5056L18.3598 70.5056ZM10.5898 62.7441L3.77536 55.9372C2.61612 54.7792 1.77541 53.9394 1.19057 53.217L21.9107 57.5098C21.9366 57.5147 21.9628 57.5192 21.989 57.5228C22.1169 57.5438 22.2579 57.5671 22.2579 57.6871C22.2579 57.8175 22.1038 57.8775 21.9733 57.927L21.9132 57.9529L10.5898 62.7441ZM0 49.717C0.0237116 49.2785 0.102575 48.8448 0.234964 48.4261C0.621378 47.2107 1.67096 46.1623 3.77534 44.0602L12.4957 35.3494C16.5109 41.1702 20.5369 46.9835 24.5738 52.7893C24.6443 52.8832 24.7226 52.9875 24.6417 53.0657C24.2605 53.4856 23.8793 53.9446 23.6103 54.4428C23.5811 54.5068 23.5363 54.5624 23.4798 54.6045C23.4457 54.6255 23.4093 54.6175 23.3701 54.6096H23.365L0 49.7144V49.717ZM14.8299 33.0178L26.5502 21.3052C27.6546 21.7877 31.6676 23.4803 35.2523 24.9929C37.9677 26.1405 40.4428 27.1837 41.2209 27.5227C41.2992 27.554 41.3697 27.5853 41.4036 27.6635C41.4247 27.7105 41.4138 27.7705 41.4036 27.82C41.0266 29.5375 41.5398 31.3292 42.7691 32.5875C42.8474 32.6658 42.7691 32.7779 42.7012 32.8744L42.6648 32.9292L30.7592 51.3497C30.7278 51.4019 30.6991 51.4462 30.6469 51.4801C30.5842 51.5193 30.4954 51.5012 30.4223 51.4828C29.9593 51.3616 29.4832 51.2968 29.0046 51.2898C28.5764 51.2898 28.1117 51.3681 27.6417 51.4541H27.6391C27.5868 51.4622 27.5398 51.4724 27.4981 51.4411C27.4519 51.4033 27.4122 51.3586 27.3806 51.3081L14.8274 33.018L14.8299 33.0178ZM28.9235 18.9397L44.1033 3.7766C46.2051 1.67714 47.2572 0.626103 48.4739 0.24272C49.4985 -0.0809067 50.5981 -0.0809067 51.6227 0.24272C52.8393 0.626103 53.8915 1.67714 55.9933 3.7766L59.283 7.06272L48.487 23.7645C48.4605 23.8132 48.4238 23.8557 48.3799 23.8897C48.3147 23.934 48.2233 23.9155 48.1449 23.8897C46.4169 23.3659 44.5414 23.7269 43.132 24.8547C43.0615 24.9277 42.9571 24.886 42.8683 24.8466C41.4584 24.2337 30.4927 19.6047 28.9235 18.9397ZM61.5754 9.35256L71.5438 19.31L69.1418 34.1706V34.2097C69.1398 34.2436 69.1324 34.2769 69.1207 34.3088C69.0948 34.3609 69.0424 34.3714 68.9901 34.3871C68.4766 34.5425 67.9929 34.7831 67.5593 35.099C67.5407 35.1126 67.5234 35.1273 67.5071 35.1434C67.4782 35.1747 67.4497 35.2033 67.4027 35.2086C67.3645 35.2097 67.3263 35.2037 67.2904 35.1902L52.1002 28.7432L52.0713 28.7302C51.9747 28.6911 51.8598 28.6441 51.8598 28.5451C51.7705 27.6995 51.4941 26.8844 51.0504 26.1587C50.9773 26.0387 50.8964 25.9135 50.959 25.791L61.5754 9.35256ZM51.3094 31.7973L65.5492 37.8218C65.6275 37.8585 65.7137 37.8922 65.7476 37.9731C65.7614 38.0217 65.7614 38.0731 65.7476 38.1217C65.7058 38.3304 65.6693 38.5677 65.6693 38.8076V39.2067C65.6693 39.3058 65.5675 39.3475 65.4735 39.3867L65.4446 39.3968C63.1888 40.3592 33.7744 52.8882 33.73 52.8882C33.6856 52.8882 33.6386 52.8882 33.5943 52.8439C33.516 52.7657 33.5943 52.6561 33.6648 52.557C33.6775 52.5398 33.6892 52.5222 33.7011 52.5048L45.4032 34.4051L45.4243 34.3738C45.4922 34.2643 45.5705 34.1417 45.6958 34.1417L45.8133 34.16C46.0796 34.1967 46.3146 34.2304 46.5522 34.2304C48.3276 34.2304 49.9724 33.3672 50.9646 31.891C50.9884 31.8516 51.0182 31.8163 51.0533 31.7866C51.1238 31.7345 51.2284 31.7613 51.3094 31.7973ZM35.0017 55.752L67.0635 42.0938C67.0635 42.0938 67.1105 42.0938 67.1549 42.1381C67.3298 42.3128 67.4786 42.4302 67.6222 42.5397L67.6927 42.5841C67.758 42.6207 67.8233 42.6623 67.8285 42.7301C67.8285 42.756 67.8285 42.7719 67.823 42.7953L65.0763 59.6484L65.0661 59.7162C65.0478 59.8467 65.0298 59.9953 64.9069 59.9953C63.4202 60.0956 62.0788 60.9221 61.3221 62.2043L61.3091 62.2254C61.2727 62.2854 61.2386 62.3427 61.1785 62.374C61.1237 62.3999 61.0532 62.3893 60.9958 62.3767L35.4273 57.1084C35.4014 57.1032 35.0304 55.7546 35.0017 55.752Z" stroke="#201036" stroke-width="2" mask="url(#path-1-inside-1_525_105)"/>
</svg>
