<svg width="155" height="102" viewBox="0 0 155 102" fill="none" xmlns="http://www.w3.org/2000/svg">
<path d="M144.281 63.3955V70.3593C144.281 72.8663 141.227 74.5376 139.283 70.9164M154 65.3454C153.445 64.5097 152.334 63.3955 150.946 63.3955C149.002 63.3955 146.225 66.7382 149.835 67.8524C152.612 68.4095 154 68.9666 154 70.3593C154 72.2279 152.334 74.5376 147.613 71.195M1 73.9805V26.6267H4.6098L54.314 101L4.33212 31.0836L4.05445 73.9805H1ZM40.1524 26.6267V73.9805H72.0853V71.195H43.2069V50.5822H69.8639V48.0752H43.2069V29.4123H71.8076V26.6267H40.1524ZM73.196 73.9805H77.0835L92.6334 52.2535L108.461 73.7019H112.071L94.8548 49.7465L128.454 1L92.9111 46.961L77.9165 26.6267H74.3067L90.6897 49.7465L73.196 73.9805ZM129.564 73.7019H132.341L132.619 29.4123H149.002V26.6267H113.181V29.4123H129.564V73.7019ZM135.951 71.4735C135.507 71.4735 135.118 71.8887 135.118 72.3092C135.118 72.8663 135.545 73.1448 135.951 73.1448C136.357 73.1448 136.784 72.5877 136.784 72.3092C136.784 72.0306 136.395 71.4735 135.951 71.4735Z" stroke="#201036"/>
</svg>
