<svg width="82" height="80" viewBox="0 0 82 80" fill="none" xmlns="http://www.w3.org/2000/svg">
<path d="M78.6754 49.2412L78.6996 49.2486L78.7243 49.2536C79.4535 49.3991 79.9274 49.5326 80.215 49.6904C80.3511 49.7651 80.4172 49.8306 80.4503 49.8794C80.4791 49.9217 80.5 49.9755 80.5 50.0669C80.5 50.4366 80.3367 50.7325 80.0749 50.8342C79.7922 50.944 79.1465 50.9363 77.9485 50.0926L77.3727 50.9102C78.6429 51.8047 79.667 52.0655 80.4369 51.7664C81.2277 51.4592 81.5 50.6688 81.5 50.0669C81.5 49.7961 81.4301 49.542 81.2774 49.3173C81.1291 49.0991 80.9229 48.9382 80.6961 48.8137C80.263 48.5761 79.6574 48.4209 78.9461 48.2781C78.568 48.1578 78.4582 48.0129 78.4272 47.9462C78.3975 47.8822 78.3879 47.7762 78.4706 47.6112C78.5539 47.445 78.7096 47.2704 78.9017 47.138C79.0977 47.0029 79.2813 46.9457 79.4029 46.9457C79.8698 46.9457 80.32 47.3419 80.5843 47.7374L81.4157 47.1818C81.0993 46.7082 80.3879 45.9457 79.4029 45.9457C79.0164 45.9457 78.6373 46.1057 78.3342 46.3146C78.0273 46.5262 77.7474 46.8224 77.5766 47.1632C77.4052 47.5051 77.323 47.9423 77.5201 48.3672C77.7154 48.788 78.1282 49.0732 78.6754 49.2412ZM75.4183 46.4457V50.0669C75.4183 50.5262 75.1395 50.8477 74.8601 50.9246C74.6383 50.9856 74.1874 50.9389 73.7449 50.1191L72.8649 50.594C73.4387 51.6572 74.2945 52.1174 75.1254 51.8888C75.8986 51.676 76.4183 50.9111 76.4183 50.0669V46.4457H75.4183ZM0.5 51.9499V52.4499H1H2.5971H3.09385L3.09709 51.9531L3.23228 31.1817L28.4706 66.2918L29.2916 65.7211L3.30248 27.047L3.15389 26.8259H2.88748H1H0.5V27.3259V51.9499ZM21.4719 26.8259H20.9719V27.3259V51.9499V52.4499H21.4719H37.7688H38.1688H38.6688H38.7495H40.7822H41.0384L41.188 52.2419L48.9191 41.4992L56.7872 52.103L56.9371 52.305H57.1888H59.0762H60.0544L59.4815 51.5122L50.6869 39.3422L59.157 27.1211V27.3259V28.7744V29.2744H59.657H67.7232V51.805V52.305H68.2232H69.6751H70.172L70.1751 51.8082L70.3172 29.2744H78.3866H78.8866V28.7744V27.3259V26.8259H78.3866H59.657H59.3616L68.0534 14.2848L67.2478 13.6931L49.0675 37.073L41.6194 27.0281L41.4695 26.8259H41.2178H39.3303H38.5236H38.3601H38.0236H21.4719ZM47.2807 39.3455L38.6688 51.2099V50.5014V50.0014H38.1688H23.569V40.2827H37.0073H37.5073V39.7827V38.4791V37.9791H37.0073H23.569V29.2744H38.0236H38.5236V28.7744V27.3259V27.0554L38.9231 27.6161L47.2807 39.3455ZM71.5626 50.1462C71.2902 50.1462 71.0582 50.2711 70.901 50.4311C70.7452 50.5897 70.627 50.8193 70.627 51.0808C70.627 51.3659 70.7421 51.6125 70.9351 51.7822C71.1182 51.9432 71.3482 52.0153 71.5626 52.0153C71.8789 52.0153 72.1125 51.8178 72.2298 51.6889C72.2985 51.6134 72.3593 51.5273 72.4053 51.4371C72.4464 51.3565 72.4982 51.2294 72.4982 51.0808C72.4982 50.9415 72.4537 50.8195 72.414 50.7364C72.3706 50.6454 72.3118 50.557 72.2425 50.4784C72.1174 50.3366 71.8833 50.1462 71.5626 50.1462Z" stroke="#201036"/>
</svg>
