<svg width="90" height="100" viewBox="0 0 90 100" fill="none" xmlns="http://www.w3.org/2000/svg">
<path d="M28.9484 91.3003L28.9413 91.2961L28.934 91.2922C28.5106 91.0626 28.2778 90.8882 28.1598 90.7687C28.2468 90.725 28.3567 90.6852 28.4791 90.645C31.0251 89.8081 31.5209 89.6113 34.1585 88.1251L34.1734 88.1167L34.1877 88.1073C34.2032 88.0971 34.2366 88.0825 34.3091 88.0927C34.3853 88.1035 34.4794 88.1395 34.5701 88.1992L34.5802 88.2058L34.5907 88.212L44.0938 93.8161L44.11 93.8256L44.1267 93.8338C44.6084 94.0713 45.2612 94.1082 45.7255 93.8129L82.8756 72.6046C83.4491 72.3144 83.6988 71.7478 83.6988 71.153V28.8011C83.6988 28.2062 83.449 27.6394 82.8753 27.3493L45.7129 6.22586L45.7001 6.21859L45.6869 6.21209C45.2054 5.97469 44.5528 5.93778 44.0886 6.23276L6.93813 27.3494C6.34855 27.6492 6.11491 28.3203 6.11491 28.8011V71.153C6.11491 71.6337 6.34847 72.3046 6.93783 72.6045L17.0816 78.3857L17.0932 78.3923L17.1051 78.3983C19.963 79.8312 22.3784 79.7506 24.1056 78.7902C25.8194 77.8373 26.7733 76.0585 26.7733 74.2765V32.4759C26.7733 32.1803 27.0354 31.8734 27.3913 31.8734H32.1429C32.4598 31.8734 32.7609 32.1419 32.7609 32.4759V74.2765C32.7609 77.8161 31.785 80.549 30.0227 82.3947C28.2635 84.2371 25.6588 85.2602 22.2671 85.2602C21.198 85.2602 20.2915 85.2592 19.069 84.9852C17.842 84.7103 16.277 84.1551 13.9274 83.0202L4.16028 77.5167C4.16021 77.5167 4.16014 77.5166 4.16007 77.5166C1.89371 76.2272 0.5 73.8206 0.5 71.2448V28.893C0.5 26.3171 1.89379 23.9105 4.16028 22.6211L4.16093 22.6207L41.3287 1.40233C41.3297 1.40176 41.3307 1.40118 41.3318 1.40061C43.5093 0.199776 46.4909 0.199797 48.6683 1.40067C48.6693 1.40122 48.6703 1.40178 48.6713 1.40233L85.8391 22.6207L85.8397 22.6211C88.1062 23.9105 89.5 26.3171 89.5 28.893V71.2448C89.5 73.8207 88.1062 76.2273 85.8397 77.5167L85.8391 77.5171L48.6854 98.7274C47.5492 99.2404 46.2316 99.5 45 99.5C43.6971 99.5 42.4757 99.1591 41.3305 98.5526L28.9484 91.3003ZM28.0813 90.6717C28.0814 90.6717 28.0822 90.6731 28.0833 90.676C28.0817 90.6731 28.0812 90.6717 28.0813 90.6717ZM43.2888 57.0969V57.135L43.2946 57.1726C43.6758 59.6633 44.4349 61.6511 46.4753 62.9715C48.4687 64.2614 51.6015 64.8546 56.5528 64.8546C60.4815 64.8546 63.3801 64.4203 65.3099 63.4079C66.2862 62.8957 67.026 62.2297 67.5179 61.3906C68.009 60.5529 68.2329 59.5768 68.2329 58.475C68.2329 57.851 68.1741 57.1941 67.8372 56.5663C67.497 55.9321 66.9078 55.3897 65.9661 54.9162C64.1146 53.9852 60.7435 53.2457 54.6458 52.649C49.5712 52.144 45.5466 51.346 42.796 49.7297C41.4321 48.9283 40.3927 47.9316 39.6906 46.6755C38.9878 45.4182 38.6056 43.8697 38.6056 41.9384C38.6056 38.3806 40.1101 35.5711 42.8871 33.6323C45.6854 31.6788 49.8111 30.5873 55.0621 30.5873C60.9826 30.5873 65.3109 31.5933 68.2402 33.6219C71.1372 35.6281 72.7353 38.6838 73.1022 42.9674C73.0986 43.109 73.0527 43.2691 72.9366 43.4532C72.795 43.5814 72.6539 43.6433 72.5776 43.6433H67.7329C67.4963 43.6433 67.2423 43.4351 67.1981 43.2171L67.1982 43.2171L67.1963 43.2085C66.6187 40.5981 65.559 38.7733 63.58 37.635C61.6424 36.5205 58.8961 36.11 55.0621 36.11C50.7399 36.11 48.2057 36.8472 46.7469 37.9577C45.2486 39.0981 44.9658 40.5655 44.9658 41.7547C44.9658 42.4496 45.0421 43.1151 45.4104 43.7102C45.7809 44.3088 46.3993 44.7619 47.3242 45.145C49.1454 45.8993 52.4094 46.4791 58.1665 47.2116C63.9033 47.9475 68.0174 48.8357 70.6983 50.4727C72.0238 51.2821 72.9877 52.2688 73.6252 53.5074C74.2646 54.7497 74.5928 56.2785 74.5932 58.1962C74.5477 62.0789 72.9249 65.0932 69.897 67.1569C66.8439 69.2377 62.322 70.3774 56.4596 70.3774C48.3722 70.3774 43.6011 68.5534 40.8529 66.0519C38.1142 63.5591 37.3012 60.3167 37.3012 57.2807C37.3012 56.985 37.5633 56.6782 37.9193 56.6782H42.764C43.1186 56.6782 43.2888 56.8885 43.2888 57.0969Z" stroke="#201036"/>
</svg>
