<svg width="80" height="80" viewBox="0 0 80 80" fill="none" xmlns="http://www.w3.org/2000/svg">
<path d="M27.2092 72.9539L27.2021 72.9498L27.1949 72.9459C26.9701 72.8239 26.8169 72.7236 26.715 72.6451C26.7459 72.6339 26.7792 72.6226 26.8145 72.611C28.8574 71.9395 29.26 71.7794 31.3759 70.5872L31.3908 70.5788L31.4012 70.572C31.4058 70.5713 31.4158 70.5707 31.4334 70.5732C31.4769 70.5793 31.5384 70.6016 31.6011 70.6429L31.6113 70.6496L31.6218 70.6558L39.2243 75.139L39.2404 75.1485L39.2572 75.1568C39.6644 75.3575 40.224 75.3942 40.632 75.136L70.3479 58.1718C70.8466 57.9183 71.059 57.4254 71.059 56.9224V23.0409C71.059 22.5377 70.8465 22.0448 70.3476 21.7913L40.6197 4.89375L40.607 4.88648L40.5938 4.87998C40.1867 4.67927 39.6273 4.64254 39.2193 4.90048L9.50305 21.7915C8.98837 22.0544 8.79192 22.6335 8.79192 23.0409V56.9224C8.79192 57.3297 8.9883 57.9086 9.50278 58.1716L17.6158 62.7954L17.6273 62.802L17.6392 62.808C19.9475 63.9653 21.9156 63.9077 23.333 63.1196C24.7371 62.3389 25.5186 60.8817 25.5186 59.4212V25.9807C25.5186 25.7953 25.6875 25.5988 25.913 25.5988H29.7143C29.9195 25.5988 30.1087 25.7753 30.1087 25.9807V59.4212C30.1087 62.235 29.3331 64.3938 27.9458 65.8467C26.5617 67.2964 24.5067 68.1082 21.8137 68.1082C20.9589 68.1082 20.2433 68.1071 19.277 67.8906C18.3063 67.673 17.0627 67.2327 15.1882 66.3274L7.37767 61.9264C7.37736 61.9263 7.37706 61.9261 7.37675 61.9259C5.59528 60.912 4.5 59.0202 4.5 56.9959V23.1144C4.5 21.0897 5.59566 19.1976 7.37767 18.1838L7.37832 18.1834L37.1113 1.20941C37.1123 1.20884 37.1133 1.20827 37.1144 1.2077C38.826 0.264102 41.174 0.264102 42.8856 1.2077C42.8867 1.20827 42.8877 1.20884 42.8887 1.20941L72.6217 18.1834L72.6223 18.1838C74.4043 19.1976 75.5 21.0897 75.5 23.1144V56.9959C75.5 59.0205 74.4043 60.9127 72.6223 61.9264L72.6217 61.9268L42.9028 78.8927C42.0089 79.2955 40.9708 79.5 40 79.5C38.9766 79.5 38.016 79.2325 37.1131 78.7547L27.2092 72.9539ZM31.3984 70.5726C31.3987 70.5725 31.3992 70.5723 31.3999 70.5722L31.3984 70.5726ZM38.5311 45.6775V45.7156L38.5368 45.7532C38.8435 47.757 39.4582 49.3819 41.1259 50.4611C42.7466 51.5099 45.2785 51.9837 49.2422 51.9837C52.3883 51.9837 54.728 51.6367 56.2944 50.8148C57.089 50.398 57.6961 49.8531 58.1006 49.1631C58.5043 48.4744 58.6863 47.6751 58.6863 46.78C58.6863 46.2755 58.6391 45.7299 58.3579 45.2057C58.0733 44.6753 57.5837 44.2287 56.8178 43.8436C55.318 43.0895 52.6036 42.4969 47.7261 42.0196C43.6672 41.6157 40.4674 40.9785 38.2875 39.6975C37.2089 39.0638 36.3913 38.2784 35.8398 37.2916C35.2875 36.3036 34.9845 35.0823 34.9845 33.5508C34.9845 30.737 36.1722 28.5201 38.367 26.9878C40.5829 25.4408 43.8608 24.5698 48.0497 24.5698C52.7776 24.5698 56.2161 25.3738 58.5352 26.9797C60.8218 28.5632 62.0891 30.9756 62.3817 34.3767C62.3784 34.4651 62.3498 34.5704 62.2721 34.6972C62.2337 34.7308 62.1918 34.7607 62.1514 34.7824C62.0963 34.8121 62.0666 34.8146 62.0621 34.8146H58.1863C58.0429 34.8146 57.8821 34.6799 57.8565 34.5538L57.8566 34.5538L57.8546 34.5452C57.3889 32.44 56.5295 30.9506 54.9139 30.0213C53.3396 29.1158 51.1198 28.788 48.0497 28.788C44.5847 28.788 42.5303 29.3782 41.3369 30.2866C40.1042 31.2249 39.8727 32.435 39.8727 33.4038C39.8727 33.9654 39.9338 34.5207 40.2433 35.0208C40.5549 35.5243 41.0709 35.8977 41.8211 36.2084C43.2929 36.8179 45.9187 37.283 50.5205 37.8685C55.1114 38.4574 58.3823 39.1664 60.5065 40.4635C61.5537 41.1029 62.3108 41.8795 62.8113 42.8517C63.3136 43.8276 63.5742 45.0338 63.5745 46.5567C63.5383 49.6308 62.2556 52.011 59.8613 53.6429C57.4418 55.2919 53.8469 56.2019 49.1677 56.2019C42.7107 56.2019 38.9225 54.7454 36.7496 52.7676C34.5862 50.7984 33.941 48.2358 33.941 45.8245C33.941 45.6392 34.1099 45.4426 34.3354 45.4426H38.2112C38.3275 45.4426 38.413 45.4808 38.4622 45.5233C38.5058 45.5609 38.5311 45.6085 38.5311 45.6775Z" stroke="#201036"/>
</svg>
