<svg width="80" height="80" viewBox="0 0 80 80" fill="none" xmlns="http://www.w3.org/2000/svg">
<path d="M34.268 74L23.2536 69.9268M34.268 74V61.0263M34.268 74L45.4262 69.9268M78.5504 19.1974L67.536 14.9474M78.5504 19.1974L78.7007 32.0592M78.5504 19.1974L45.4945 31.0526M67.536 14.9474V10.0263M67.536 14.9474V61.8559M67.536 10.0263L56.7464 6L45.811 10.0263M67.536 10.0263L56.5216 14.0526M34.268 14.2763V18.9737M34.268 14.2763L45.2824 18.0789M34.268 14.2763L45.811 10.0263M34.268 26.8026L23.2536 23.2237M34.268 26.8026V18.9737M34.268 26.8026L23.2536 31.0526M34.268 26.8026L45.4945 31.0526M23.2536 23.2237L34.268 18.9737M23.2536 23.2237V28.1447M23.2536 69.9268L12.1268 65.8121M23.2536 69.9268V36.1974M23.2536 28.1447L12.2392 32.1711M23.2536 28.1447V31.0526M12.2392 32.1711L12.213 40M12.2392 32.1711L23.2536 36.1974M12.1268 65.8121L1 61.6974V49.1711M12.1268 65.8121L12.1962 45.0397M12.1962 45.0397L1 49.1711M12.1962 45.0397L12.213 40M1 49.1711L34.268 61.0263M34.268 35.0789V48.0526M34.268 35.0789L23.2536 31.0526M34.268 35.0789L45.4945 31.0526M34.268 61.0263L78.851 44.9211M34.268 61.0263V48.0526M78.851 44.9211L79 57.6711L67.536 61.8559M78.851 44.9211L78.7007 32.0592M78.7007 32.0592L34.268 48.0526M34.268 48.0526L12.213 40M12.213 40L23.2536 36.1974M23.2536 31.0526V36.1974M67.536 61.8559L56.5216 65.8766M45.2824 18.0789L45.4262 69.9268M45.2824 18.0789L56.5216 14.0526M45.4262 69.9268L56.5216 65.8766M56.5216 14.0526V65.8766M56.5216 14.0526L45.811 10.0263M49.5533 21.4342C50.902 21.4342 51.8012 22.1053 51.8012 23C51.8012 23.8947 50.6772 24.5658 49.5533 24.5658C48.4294 24.5658 47.3055 23.8947 47.3055 23C47.3055 22.0363 48.2046 21.4342 49.5533 21.4342ZM63.4899 55.4342C64.8386 55.4342 65.513 56.3289 65.513 57C65.513 57.6711 64.7233 58.5658 63.4899 58.5658C62.366 58.5658 61.2421 57.8947 61.2421 57C61.2421 56.3914 62.1412 55.4342 63.4899 55.4342Z" stroke="#201036"/>
</svg>
