<svg width="116" height="102" viewBox="0 0 116 102" fill="none" xmlns="http://www.w3.org/2000/svg">
<path d="M49.6225 101L33.5245 95.01M49.6225 101V81.9211M49.6225 101L65.9306 95.01M114.343 20.4079L98.245 14.1579M114.343 20.4079L114.563 39.3224M114.343 20.4079L66.0305 37.8421M98.245 14.1579V6.92105M98.245 14.1579V83.141M98.245 6.92105L82.4755 1L66.4929 6.92105M98.245 6.92105L82.147 12.8421M49.6225 13.1711V20.0789M49.6225 13.1711L65.7205 18.7632M49.6225 13.1711L66.4929 6.92105M49.6225 31.5921L33.5245 26.3289M49.6225 31.5921V20.0789M49.6225 31.5921L33.5245 37.8421M49.6225 31.5921L66.0305 37.8421M33.5245 26.3289L49.6225 20.0789M33.5245 26.3289V33.5658M33.5245 95.01L17.2622 88.959M33.5245 95.01V45.4079M33.5245 33.5658L17.4265 39.4868M33.5245 33.5658V37.8421M17.4265 39.4868L17.3883 51M17.4265 39.4868L33.5245 45.4079M17.2622 88.959L1 82.9079V64.4868M17.2622 88.959L17.3637 58.4114M17.3637 58.4114L1 64.4868M17.3637 58.4114L17.3883 51M1 64.4868L49.6225 81.9211M49.6225 43.7632V62.8421M49.6225 43.7632L33.5245 37.8421M49.6225 43.7632L66.0305 37.8421M49.6225 81.9211L114.782 58.2368M49.6225 81.9211V62.8421M114.782 58.2368L115 76.9868L98.245 83.141M114.782 58.2368L114.563 39.3224M114.563 39.3224L49.6225 62.8421M49.6225 62.8421L17.3883 51M17.3883 51L33.5245 45.4079M33.5245 37.8421V45.4079M98.245 83.141L82.147 89.0538M65.7205 18.7632L65.9306 95.01M65.7205 18.7632L82.147 12.8421M65.9306 95.01L82.147 89.0538M82.147 12.8421V89.0538M82.147 12.8421L66.4929 6.92105M71.9625 23.6974C73.9337 23.6974 75.2478 24.6842 75.2478 26C75.2478 27.3158 73.6052 28.3026 71.9625 28.3026C70.3199 28.3026 68.6772 27.3158 68.6772 26C68.6772 24.5829 69.9914 23.6974 71.9625 23.6974ZM92.3314 73.6974C94.3026 73.6974 95.2882 75.0132 95.2882 76C95.2882 76.9868 94.1341 78.3026 92.3314 78.3026C90.6888 78.3026 89.0461 77.3158 89.0461 76C89.0461 75.105 90.3602 73.6974 92.3314 73.6974Z" stroke="#201036"/>
</svg>
