<svg width="80" height="80" viewBox="0 0 80 80" fill="none" xmlns="http://www.w3.org/2000/svg">
<path d="M79 41.0074C79 17.6937 60.2971 1 40.4432 1C10.8058 1 0.447006 28.0553 1.02257 41.2952C1.0225 60.0037 17.4236 78.4244 40.4432 79C67.4899 79 79 54.2472 79 41.0074Z" stroke="#201036"/>
<path d="M19.961 58.6166L16.99 61.8399C17.2202 62.3004 21.4956 62.3583 23.7016 62.3583L19.961 58.6166Z" stroke="#201036"/>
<path d="M24.9047 61.7305L20.8764 57.701L32.9613 45.6124L39.0038 44.1733L41.8812 47.0515C39.5793 49.3541 25.7679 57.4132 25.4802 57.701C25.25 57.9313 25.0006 58.3726 24.9047 58.5645C25.0006 59.1401 25.25 60.4641 25.4802 61.1549C25.7103 61.8456 25.1924 61.8265 24.9047 61.7305Z" stroke="#201036"/>
<path d="M55.6401 30.07L40.39 43.8855L42.9466 46.0308C50.3126 40.9651 54.3932 33.4279 55.6401 30.07Z" stroke="#201036"/>
<path d="M34.9755 43.5977L36.7019 41.8707L37.8584 43.3098C37.2829 43.4058 36.184 43.9431 35.2632 44.1733C34.3425 44.4036 34.6877 43.8855 34.9755 43.5977Z" stroke="#201036"/>
<path d="M29.7962 41.5829L32.9613 38.4169C33.4217 38.4169 35.0714 40.1438 35.8387 41.0073L30.0839 42.4464C28.933 42.9069 29.4126 42.0626 29.7962 41.5829Z" stroke="#201036"/>
<path d="M38.83 42.7299L37.66 41.1699C41.5924 36.9485 49.6501 28.6309 51.3765 27.1918C53.4482 25.4648 54.2539 26.6161 54.5416 26.9039C55.2127 27.5753 55.1171 28.6309 54.5416 29.4944L38.83 42.7299Z" stroke="#201036"/>
<path d="M36.49 39.9999L33.8245 37.4541C35.4359 34.9212 44.279 27.9559 48.4991 24.7899C51.6643 23.3508 52.7677 25.177 52.48 25.177C52.2498 25.177 50.8114 26.4242 50.14 26.9039L42.9466 33.8117L36.49 39.9999Z" stroke="#201036"/>
<path d="M56.5558 15.9667C59.3181 14.8154 61.5432 16.0626 62.3105 16.8301L56.8435 22.5866L60.8718 26.6161C58.57 27.7674 54.8294 26.9039 53.3907 24.0257C51.952 21.1475 53.1029 17.4058 56.5558 15.9667Z" stroke="#201036"/>
<path d="M61.84 25.9599C66.13 22.8399 64.4487 19.5928 63.01 17.7699L58.72 22.5866L61.84 25.9599Z" stroke="#201036"/>
</svg>
