<svg width="82" height="82" viewBox="0 0 82 82" fill="none" xmlns="http://www.w3.org/2000/svg">
<path d="M81 1H1V81H81V1Z" stroke="#201036" stroke-linecap="round" stroke-linejoin="round"/>
<path d="M19.3726 58.9362V21.8631C20.3852 21.2126 24.8698 20.0619 31.2351 20.6623C33.6944 20.9625 36.2984 22.1632 37.0217 22.4634C37.5756 22.6933 47.5823 28.3171 43.9657 38.2233C41.0724 46.1482 31.0905 47.5291 26.4612 47.2289V58.9362H19.3726Z" stroke="#201036" stroke-linecap="round" stroke-linejoin="round"/>
<path d="M65.3762 32.2195V38.2233H64.3635C56.378 35.5816 54.478 37.4228 54.5263 38.6736C54.5263 40.4747 60.2948 41.9756 62.1935 43.3265C67.2568 46.9287 66.6782 49.4474 66.6782 50.8312C66.6782 52.3321 64.6528 58.4859 58.2876 59.0863C53.1953 59.5666 49.1254 57.8856 47.727 56.985L47.8717 50.6811C50.331 52.0319 54.3816 52.6323 56.4069 52.9325C58.4322 53.2327 60.3129 51.4315 59.1556 49.9306C57.9982 48.4297 55.5389 48.2796 51.4883 45.8781C48.2478 43.9569 47.6305 40.6748 47.727 39.2739C48.8843 28.8274 60.0236 29.2177 65.3762 32.2195Z" stroke="#201036" stroke-linecap="round" stroke-linejoin="round"/>
<path d="M26.4609 39.7243V28.167C29.2096 28.167 35.8642 27.8668 37.3108 33.5704C38.4682 38.1333 30.5598 39.5742 26.4609 39.7243Z" stroke="#201036" stroke-linecap="round" stroke-linejoin="round"/>
<path d="M73.7669 8.35461H8.2334V73.3452H73.7669V8.35461Z" stroke="#201036" stroke-linecap="round" stroke-linejoin="round"/>
</svg>
