<svg width="99" height="100" viewBox="0 0 99 100" fill="none" xmlns="http://www.w3.org/2000/svg">
<g clip-path="url(#clip0_525_22)">
<path d="M37.6413 1.46974L37.6415 1.46972C41.0462 0.866599 44.9217 0.519711 48.9839 0.500815C53.0461 0.48192 57.2801 0.791025 61.358 1.47057C67.6841 2.52607 72.8972 7.24918 72.8972 13.4216V36.2173C72.8972 42.6362 67.8029 47.8825 61.4402 47.8825H37.5543C29.1667 47.8825 22.1151 55.0779 22.1151 63.2542V73.6917H14.3929C11.053 73.6917 8.42952 72.4838 6.42728 70.4316C4.41379 68.3679 3.00632 65.426 2.16969 61.9378L2.16958 61.9373C1.0288 57.2005 0.488193 53.4395 0.500195 49.7398C0.512198 46.04 1.07691 42.379 2.16958 37.8411L2.16975 37.8404C4.01788 30.1165 9.8972 26.0868 16.6227 26.0868H25.5973H49.5112H50.0112V25.5868V22.5455V22.0455H49.5112H26.0973V13.4216C26.0973 9.99387 26.5583 7.48598 28.1615 5.60425C29.7707 3.7156 32.6158 2.35856 37.6413 1.46974ZM41.0365 11.9149C41.0365 9.12413 38.8043 6.83899 36.0492 6.83899C33.2846 6.83899 31.0619 9.12478 31.0619 11.9149C31.0619 14.6994 33.2879 16.9629 36.0492 16.9629C38.801 16.9629 41.0365 14.7001 41.0365 11.9149Z" stroke="#201036"/>
<path d="M61.3011 98.0419L61.3008 98.042C52.3426 100.644 45.1812 100.246 37.6955 98.0425C31.4156 96.1935 26.0974 92.4852 26.0974 86.357V63.5612C26.0974 57.2672 31.2983 51.8961 37.5543 51.8961H61.4403C69.6799 51.8961 76.8794 44.7312 76.8794 36.2175V26.0869H85.3541C88.6886 26.0869 91.1119 27.3268 92.9224 29.3882C94.7507 31.4698 95.9752 34.4148 96.8257 37.8445L96.8258 37.8448C99.201 47.4032 99.2948 54.5133 96.8366 61.8966L96.8365 61.8971C95.6287 65.5371 94.4015 68.487 92.6526 70.5296C90.9325 72.5387 88.688 73.6918 85.3541 73.6918H73.3972H49.5112H49.0112V74.1918V77.2331V77.7331H49.5112H72.8972V86.357C72.8972 89.646 71.4922 92.1202 69.3469 93.9998C67.1873 95.8919 64.2759 97.1797 61.3011 98.0419ZM67.9327 87.8637C67.9327 85.0792 65.7066 82.8157 62.9453 82.8157C60.1935 82.8157 57.958 85.0785 57.958 87.8637C57.958 90.6544 60.1902 92.9396 62.9453 92.9396C65.7099 92.9396 67.9327 90.6538 67.9327 87.8637Z" stroke="#201036"/>
</g>
<defs>
<clipPath id="clip0_525_22">
<rect width="99" height="100" fill="white"/>
</clipPath>
</defs>
</svg>
