<svg width="82" height="80" viewBox="0 0 82 80" fill="none" xmlns="http://www.w3.org/2000/svg">
<path d="M3.91971 22.02L1 41.16L17.9343 31.88M20.854 29.56L5.08759 18.54L23.7737 13.03M24.9416 29.56L27.8613 11L41.5839 24.63M38.3723 44.93L44.2117 27.24L25.8175 33.04M19.1022 53.05L22.0219 34.2L35.7445 47.83M37.4963 50.73L18.8102 56.53L34.8686 67.55M41.5839 50.15L38.6642 69L55.8905 60.01M71.365 11.58L70.489 23.18M70.489 23.18L66.4015 29.27M70.489 23.18L81 17.38M62.8978 27.24C56.2798 28.2067 43.6277 34.142 45.9635 50.15M70.781 32.46C71.9489 39.13 70.1387 53.108 53.5547 55.66M57.9343 35.07C57.0584 34.49 56.2039 34.4616 55.3066 35.65C54.4307 36.81 54.7226 37.97 55.0146 38.26C55.3066 38.84 56.8977 39.2027 57.6423 37.97C58.5182 36.52 58.5182 35.65 57.9343 35.07ZM64.3577 39.13C63.6163 38.3936 62.6642 38.782 61.7299 39.71C60.7956 40.638 60.854 41.74 61.438 42.32C61.9385 42.8172 63.1314 43.19 64.0657 42.03C65.2336 40.58 64.6496 39.42 64.3577 39.13Z" stroke="#201036"/>
</svg>
