<svg width="139" height="103" viewBox="0 0 139 103" fill="none" xmlns="http://www.w3.org/2000/svg">
<path d="M6 21L1 54L30 38M35 34L8 15L40 5.5M42 34L47 2L70.5 25.5M65 60.5L75 30L43.5 40M32 74.5L37 42L60.5 65.5M63.5 70.5L31.5 80.5L59 99.5M70.5 69.5L65.5 102L95 86.5M121.5 3L120 23M120 23L113 33.5M120 23L138 13M107 30C95.6667 31.6667 74 41.9 78 69.5M120.5 39C122.5 50.5 119.4 74.6 91 79M98.5 43.5C97 42.5 95.5367 42.451 94 44.5C92.5 46.5 93 48.5 93.5 49C94 50 96.7248 50.6253 98 48.5C99.5 46 99.5 44.5 98.5 43.5ZM109.5 50.5C108.23 49.2304 106.6 49.9 105 51.5C103.4 53.1 103.5 55 104.5 56C105.357 56.8572 107.4 57.5 109 55.5C111 53 110 51 109.5 50.5Z" stroke="#201036"/>
</svg>
