<svg width="80" height="80" viewBox="0 0 80 80" fill="none" xmlns="http://www.w3.org/2000/svg">
<g clip-path="url(#clip0_615_1490)">
<path d="M31.0548 1.27423L31.055 1.2742C33.7657 0.792813 36.8524 0.515743 40.0887 0.500651C43.3248 0.48556 46.6977 0.73245 49.9456 1.27506C54.9597 2.11378 59.0695 5.8615 59.0695 10.7373V28.9739C59.0695 34.057 55.0463 38.206 50.0281 38.206H30.9675C24.2171 38.206 18.5464 44.0086 18.5464 50.6033V58.8533H12.4853C9.84774 58.8533 7.78047 57.8983 6.20158 56.2759C4.61139 54.6419 3.49466 52.3068 2.82966 49.5272L2.82955 49.5267C1.01869 41.9885 1.09536 37.5164 2.82956 30.296L2.82972 30.2953C4.29359 24.1618 8.94404 20.9694 14.2646 20.9694H21.4262H40.5089H41.0089V20.4694V18.0364V17.5364H40.5089H21.9262V10.7373C21.9262 8.00022 22.2944 6.02481 23.5496 4.54778C24.8105 3.06411 27.0517 1.98401 31.0548 1.27423ZM33.8473 9.53191C33.8473 7.24707 32.0238 5.37119 29.7665 5.37119C27.5015 5.37119 25.6857 7.24772 25.6857 9.53191C25.6857 11.8123 27.5049 13.6703 29.7665 13.6703C32.0205 13.6703 33.8473 11.813 33.8473 9.53191Z" stroke="#201036"/>
<path d="M49.8887 78.3376L49.8884 78.3376C42.7601 80.4135 37.0655 80.0959 31.1092 78.3382C26.1072 76.8616 21.9263 73.9169 21.9263 69.0856V50.8489C21.9263 45.8656 26.0346 41.6168 30.9677 41.6168H50.0282C56.6611 41.6168 62.4494 35.8381 62.4494 28.9739V20.9695H69.111C71.742 20.9695 73.6481 21.9485 75.074 23.576C76.5177 25.2239 77.4899 27.5621 78.167 30.2994L78.167 30.2996C80.0594 37.9342 80.1318 43.6023 78.1778 49.486L78.1777 49.4865C77.214 52.3981 76.2396 54.7412 74.8579 56.3591C73.5049 57.9433 71.7424 58.8534 69.111 58.8534H59.5696H40.509H40.009V59.3534V61.7864V62.2864H40.509H59.0696V69.0856C59.0696 71.6842 57.964 73.6375 56.2705 75.125C54.5627 76.625 52.2553 77.6499 49.8887 78.3376ZM55.31 70.2909C55.31 68.0105 53.4909 66.1525 51.2292 66.1525C48.9752 66.1525 47.1484 68.0099 47.1484 70.2909C47.1484 72.5758 48.9719 74.4516 51.2292 74.4516C53.4942 74.4516 55.31 72.5751 55.31 70.2909Z" stroke="#201036"/>
</g>
<defs>
<clipPath id="clip0_615_1490">
<rect width="79" height="80" fill="white" transform="translate(1)"/>
</clipPath>
</defs>
</svg>
