<svg width="111" height="100" viewBox="0 0 111 100" fill="none" xmlns="http://www.w3.org/2000/svg">
<g clip-path="url(#clip0_532_438)">
<path d="M64.8934 50C64.8934 55.2625 60.6819 59.5179 55.4999 59.5179C50.3179 59.5179 46.1064 55.2625 46.1064 50C46.1064 44.7376 50.3179 40.4822 55.4999 40.4822C60.6819 40.4822 64.8934 44.7376 64.8934 50Z" stroke="#201036"/>
<path d="M55.5 70.5243C84.8192 70.5243 108.587 61.3352 108.587 50C108.587 38.6647 84.8192 29.4756 55.5 29.4756C26.1809 29.4756 2.41309 38.6647 2.41309 50C2.41309 61.3352 26.1809 70.5243 55.5 70.5243Z" stroke="#201036"/>
<path d="M37.9463 60.2623C52.6059 85.9725 72.349 102.22 82.0437 96.5527C91.7385 90.885 87.7138 65.4482 73.0542 39.7379C58.3947 14.0276 38.6516 -2.22016 28.9568 3.44749C19.262 9.11514 23.2867 34.552 37.9463 60.2623Z" stroke="#201036"/>
<path d="M37.9463 39.7379C23.2867 65.4482 19.262 90.8851 28.9567 96.5527C38.6515 102.22 58.3946 85.9726 73.0542 60.2623C87.7137 34.552 91.7385 9.11518 82.0437 3.44753C72.3489 -2.22012 52.6058 14.0277 37.9463 39.7379Z" stroke="#201036"/>
</g>
<defs>
<clipPath id="clip0_532_438">
<rect width="111" height="100" fill="white"/>
</clipPath>
</defs>
</svg>
