<svg width="80" height="80" viewBox="0 0 80 80" fill="none" xmlns="http://www.w3.org/2000/svg">
<path d="M40.261 54.4663C60.6955 54.4663 77.261 47.9968 77.261 40.0162C77.261 32.0357 60.6955 25.5662 40.261 25.5662C19.8265 25.5662 3.26099 32.0357 3.26099 40.0162C3.26099 47.9968 19.8265 54.4663 40.261 54.4663Z" stroke="#201036"/>
<path d="M28.029 47.2351C38.2489 65.3348 52.0118 76.7735 58.7693 72.7842C65.5269 68.795 62.7201 50.8883 52.5003 32.7887C42.2804 14.689 28.5175 3.2503 21.76 7.23958C15.0024 11.2289 17.8092 29.1355 28.029 47.2351Z" stroke="#201036"/>
<path d="M46.6566 40.0164C46.6566 43.6462 43.7827 46.5693 40.2612 46.5693C36.7397 46.5693 33.8657 43.6462 33.8657 40.0164C33.8657 36.3865 36.7397 33.4634 40.2612 33.4634C43.7827 33.4634 46.6566 36.3865 46.6566 40.0164Z" stroke="#201036"/>
<path d="M28.0265 32.7913C17.8092 50.8924 15.0041 68.801 21.761 72.7913C28.518 76.7815 42.2783 65.3424 52.4956 47.2413C62.7129 29.1402 65.518 11.2316 58.761 7.2413C52.0041 3.25104 38.2437 14.6902 28.0265 32.7913Z" stroke="#201036"/>
</svg>
