<svg width="80" height="80" viewBox="0 0 80 80" fill="none" xmlns="http://www.w3.org/2000/svg">
<path d="M50.8558 29.1837C57.9768 36.3022 63.5702 43.9367 66.8408 50.6391C70.7816 58.7149 71.3405 65.5436 68.5008 68.3821C65.5415 71.3404 58.294 70.7562 49.7025 66.4423C43.2069 63.1809 35.9427 57.6063 29.1831 50.8489C22.2526 43.9208 16.482 36.5687 13.235 29.952C9.12645 21.5787 8.74115 14.4465 11.6438 11.5448C14.4603 8.72915 21.1001 9.1451 29.091 13.0031C35.8428 16.2632 43.6654 21.9957 50.8558 29.1837Z" stroke="#201036" stroke-miterlimit="10"/>
<path d="M36.0457 25.2206C45.7718 22.6102 55.1817 21.5806 62.6241 22.0965C71.591 22.7183 77.7877 25.6458 78.829 29.5229C79.9143 33.5633 75.7872 39.5477 67.757 44.8328C61.6856 48.8283 53.2261 52.3339 43.9934 54.8121C34.5274 57.3526 25.2734 58.6769 17.9172 58.1829C8.60857 57.558 2.23576 54.3284 1.17123 50.3652C0.138546 46.5194 3.8158 40.9774 11.1512 35.985C17.3489 31.7666 26.2246 27.8564 36.0457 25.2206Z" stroke="#201036" stroke-miterlimit="10"/>
<path d="M25.2119 36.0686C27.807 26.3415 31.614 17.6774 35.7781 11.4898C40.7951 4.03439 46.4271 0.129585 50.3074 1.16415C54.3509 2.24206 57.4764 8.80502 58.0461 18.3992C58.4772 25.653 57.2904 34.7301 54.827 43.9638C52.3014 53.4308 48.8277 62.1067 44.7256 68.231C39.5352 75.9808 33.5536 79.8871 29.5872 78.8297C25.7383 77.8036 22.7718 71.8511 22.1085 63.0046C21.5479 55.5303 22.5917 45.8907 25.2119 36.0686Z" stroke="#201036" stroke-miterlimit="10"/>
<path d="M40 46C39.8839 46 39.7857 45.957 39.7054 45.8711L35.5268 41.5598C35.4821 41.5217 35.4207 41.4597 35.3426 41.3737C35.2644 41.2878 35.1406 41.1315 34.971 40.9045C34.8013 40.6779 34.6495 40.4451 34.5156 40.2064C34.3818 39.9677 34.2623 39.6788 34.1573 39.3399C34.0525 39.0009 34 38.6715 34 38.3517C34 37.3013 34.2834 36.4802 34.8504 35.8881C35.4174 35.2961 36.2009 35 37.2008 35C37.4776 35 37.76 35.0513 38.0479 35.154C38.3358 35.2567 38.6038 35.3951 38.8515 35.5695C39.0992 35.7437 39.3125 35.9072 39.491 36.06C39.6695 36.2127 39.8393 36.375 39.9999 36.5469C40.1606 36.375 40.3302 36.2127 40.5088 36.06C40.6874 35.9072 40.9004 35.7437 41.1483 35.5695C41.3961 35.3951 41.6639 35.2567 41.952 35.154C42.2398 35.0514 42.5223 35 42.799 35C43.799 35 44.5825 35.2961 45.1494 35.8881C45.7166 36.4801 46 37.3013 46 38.3517C46 39.4068 45.4888 40.481 44.4665 41.5743L40.2947 45.8712C40.2143 45.9571 40.1161 46 40 46Z" stroke="#201036"/>
</svg>
