<svg width="102" height="102" viewBox="0 0 102 102" fill="none" xmlns="http://www.w3.org/2000/svg">
<path d="M64.8956 37.1327C74.0219 46.259 81.1904 56.0467 85.382 64.6395C90.4326 74.9931 91.1489 83.7479 87.5095 87.3871C83.7169 91.1797 74.4285 90.4307 63.4175 84.9001C55.0927 80.7188 45.7828 73.5719 37.1197 64.9086C28.2375 56.0264 20.8419 46.6006 16.6806 38.1176C11.415 27.3827 10.9212 18.2387 14.6412 14.5187C18.2509 10.9089 26.7605 11.4421 37.0016 16.3883C45.6548 20.5678 55.6804 27.9173 64.8956 37.1327Z" stroke="#201036" stroke-miterlimit="10"/>
<path d="M45.9149 32.0519C58.3799 28.7053 70.4396 27.3853 79.9779 28.0467C91.4698 28.8439 99.4116 32.597 100.746 37.5678C102.137 42.7477 96.8477 50.42 86.5562 57.1958C78.7751 62.3182 67.9333 66.8126 56.1006 69.9898C43.969 73.2469 32.1089 74.9446 22.6812 74.3113C10.7512 73.5101 2.58375 69.3697 1.21945 64.2886C-0.104045 59.3581 4.60875 52.253 14.0098 45.8525C21.9529 40.4443 33.328 35.4312 45.9149 32.0519Z" stroke="#201036" stroke-miterlimit="10"/>
<path d="M32.0299 45.9597C35.3558 33.4891 40.2349 22.3813 45.5716 14.4484C52.0015 4.89025 59.2195 -0.115916 64.1925 1.21045C69.3748 2.59239 73.3803 11.0064 74.1106 23.3067C74.663 32.6064 73.1419 44.2438 69.9849 56.0818C66.7481 68.219 62.2961 79.3419 57.0389 87.1936C50.3868 97.1292 42.7208 102.137 37.6374 100.782C32.7046 99.4662 28.9028 91.8347 28.0526 80.4931C27.3342 70.9106 28.6719 58.5521 32.0299 45.9597Z" stroke="#201036" stroke-miterlimit="10"/>
<path d="M50.9598 59.9016L50.9598 59.9017C50.9989 59.9408 51.036 59.958 51.1017 59.958C51.1678 59.958 51.2049 59.9408 51.2441 59.9016L51.2505 59.8952L51.2506 59.8953L58.264 53.1407C59.931 51.4726 60.6936 49.9039 60.6936 48.4291C60.6936 46.8775 60.2491 45.7276 59.4137 44.9122L59.4137 44.9122C58.5763 44.0946 57.3969 43.6577 55.8095 43.6577C55.4029 43.6577 54.9812 43.7282 54.543 43.8743L50.9598 59.9016ZM50.9598 59.9016L50.9534 59.8954L43.9251 53.1149L43.9082 53.0986L43.8899 53.084C43.8401 53.0442 43.7544 52.965 43.6267 52.8335L43.6264 52.8332C43.5138 52.7174 43.3189 52.4888 43.0336 52.1318L43.0334 52.1315C42.7615 51.7919 42.519 51.4442 42.3059 51.0889C42.1041 50.7524 41.9172 50.3335 41.7492 49.8263L50.9598 59.9016ZM48.8953 44.4711L48.8952 44.471C48.5157 44.2213 48.1043 44.0224 47.6602 43.8742C47.2222 43.7281 46.8005 43.6577 46.3935 43.6577C44.8064 43.6577 43.6271 44.0946 42.7896 44.9121L48.8953 44.4711ZM48.8953 44.4711C49.3026 44.739 49.6481 44.987 49.9332 45.2152C50.2193 45.4441 50.491 45.687 50.7479 45.9441L51.1014 46.2979M48.8953 44.4711L51.1014 46.2979M51.1014 46.2979L51.4551 45.9442M51.1014 46.2979L51.4551 45.9442M51.4551 45.9442C51.7124 45.6869 51.9837 45.444 52.2698 45.2153C52.5553 44.9869 52.9004 44.7389 53.3078 44.4712L53.308 44.471M51.4551 45.9442L53.308 44.471M53.308 44.471C53.6876 44.2213 54.0986 44.0224 54.5429 43.8743L53.308 44.471ZM41.7492 49.8261C41.5877 49.3378 41.5099 48.8728 41.5099 48.4291C41.5099 46.8776 41.9543 45.7278 42.7896 44.9122L41.7492 49.8261Z" stroke="black"/>
</svg>
