<svg width="80" height="80" viewBox="0 0 80 80" fill="none" xmlns="http://www.w3.org/2000/svg">
<path d="M31.1484 39.8929C31.1484 43.6661 28.1205 46.7165 24.3956 46.7165C20.6707 46.7165 17.6429 43.6661 17.6429 39.8929C17.6429 36.1197 20.6707 33.0692 24.3956 33.0692C28.1205 33.0692 31.1484 36.1197 31.1484 39.8929ZM14.0055 54.5402C14.0055 58.3134 10.9776 61.3639 7.25275 61.3639C3.52788 61.3639 0.5 58.3134 0.5 54.5402C0.5 50.767 3.52788 47.7165 7.25275 47.7165C10.9776 47.7165 14.0055 50.767 14.0055 54.5402ZM79.5 54.5402C79.5 58.3134 76.4721 61.3639 72.7473 61.3639C69.0224 61.3639 65.9945 58.3134 65.9945 54.5402C65.9945 50.767 69.0224 47.7165 72.7473 47.7165C76.4721 47.7165 79.5 50.767 79.5 54.5402Z" stroke="#201036"/>
<path d="M49.4267 40.2015V40.1778L49.4245 40.1543C49.4133 40.0368 49.4025 39.9195 49.3916 39.8025C49.1824 37.5438 48.9839 35.4007 47.0258 33.8909C45.7228 32.8862 44.3359 32.7231 42.9518 32.6402C42.7767 32.6298 42.6017 32.6205 42.4264 32.6113C41.1993 32.5465 39.9585 32.481 38.5976 31.985L38.5718 31.9756L38.545 31.969C35.5384 31.2346 33.3125 28.5397 33.3125 25.3333C33.3125 21.5626 36.391 18.5 40.1957 18.5C43.0125 18.5 45.4332 20.1793 46.499 22.5834L46.5054 22.5978L46.5128 22.6119C47.2545 24.0346 47.448 25.4644 47.6343 26.8413C47.6556 26.9987 47.6768 27.1555 47.6987 27.3116C47.9062 28.7876 48.1844 30.2715 49.4601 31.2697C50.8989 32.3957 52.5817 32.5314 54.2557 32.653C54.2975 32.656 54.3392 32.659 54.3811 32.6621C56.0453 32.7825 57.7662 32.907 59.5796 33.8008L59.5795 33.8009L59.5902 33.8059C60.7638 34.3504 61.7573 35.2144 62.4572 36.2846C63.1565 37.354 63.5625 38.6293 63.5625 40C63.5625 43.2064 61.3366 45.9012 58.33 46.6357L58.3032 46.6422L58.2774 46.6516C56.9165 47.1477 55.6757 47.2132 54.4486 47.2779C54.2733 47.2872 54.0983 47.2964 53.9232 47.3069C52.5391 47.3898 51.1522 47.5529 49.8492 48.5575C48.3592 49.7064 48.0326 51.2516 47.7858 52.8145C47.7628 52.9601 47.7405 53.1063 47.718 53.253C47.4962 54.7026 47.2667 56.2026 46.3426 57.7477L46.3345 57.7613L46.3273 57.7753C45.1874 59.9863 42.87 61.5 40.1957 61.5C36.391 61.5 33.3125 58.4374 33.3125 54.6667C33.3125 51.9278 34.936 49.5624 37.2848 48.4725L37.2849 48.4727L37.2954 48.4675C39.1088 47.5737 40.8297 47.4492 42.4939 47.3287C42.5358 47.3257 42.5775 47.3227 42.6193 47.3196C44.2933 47.198 45.9761 47.0624 47.4149 45.9364C49.1173 44.6042 49.4267 42.5666 49.4267 40.2015Z" stroke="#201036"/>
</svg>
