<svg width="145" height="79" viewBox="0 0 145 79" fill="none" xmlns="http://www.w3.org/2000/svg">
<path d="M56.8626 39.2965C56.8626 46.2805 51.201 51.9421 44.217 51.9421C37.2331 51.9421 31.5714 46.2805 31.5714 39.2965C31.5714 32.3125 37.2331 26.6509 44.217 26.6509C51.201 26.6509 56.8626 32.3125 56.8626 39.2965ZM25.7912 65.5877C25.7912 72.5717 20.1296 78.2333 13.1456 78.2333C6.16163 78.2333 0.5 72.5717 0.5 65.5877C0.5 58.6037 6.16163 52.9421 13.1456 52.9421C20.1296 52.9421 25.7912 58.6037 25.7912 65.5877ZM144.5 65.5877C144.5 72.5717 138.838 78.2333 131.854 78.2333C124.87 78.2333 119.209 72.5717 119.209 65.5877C119.209 58.6037 124.87 52.9421 131.854 52.9421C138.838 52.9421 144.5 58.6037 144.5 65.5877Z" stroke="#201036"/>
<path d="M89.1797 39.8505V39.8267L89.1774 39.8029C89.1585 39.6056 89.14 39.4092 89.1217 39.2137C88.7368 35.1169 88.3911 31.4381 84.9843 28.8366C82.7266 27.1127 80.322 26.8232 77.8256 26.6753C77.5119 26.6567 77.1968 26.6403 76.8798 26.6238C74.6575 26.5081 72.3456 26.3877 69.8176 25.4752L69.7919 25.466L69.7654 25.4596C64.1374 24.0981 59.9727 19.104 59.9727 13.163C59.9727 6.17715 65.7324 0.5 72.8548 0.5C78.1281 0.5 82.6577 3.61373 84.6516 8.06747L84.6581 8.082L84.6655 8.09609C86.0441 10.7145 86.4034 13.3493 86.7397 15.8156C86.7784 16.0991 86.8167 16.3804 86.8563 16.6591C87.2339 19.3196 87.7283 21.825 89.8986 23.5069C92.395 25.4416 95.319 25.6855 98.3682 25.9049C98.45 25.9108 98.5319 25.9167 98.6139 25.9226C101.621 26.1379 104.81 26.3662 108.169 28.006L108.169 28.0061L108.18 28.011C110.377 29.0204 112.236 30.6214 113.545 32.6042C114.854 34.5863 115.613 36.9498 115.613 39.4889C115.613 45.4299 111.449 50.424 105.821 51.7855L105.794 51.7919L105.768 51.8012C103.24 52.7136 100.928 52.834 98.7061 52.9497C98.3892 52.9662 98.074 52.9826 97.7604 53.0012C95.2639 53.1492 92.8593 53.4386 90.6016 55.1626C88.0366 57.1212 87.46 59.7495 87.0132 62.5515C86.9716 62.8126 86.931 63.0756 86.8902 63.3404C86.4895 65.9379 86.0627 68.7042 84.3457 71.5473L84.3375 71.5609L84.3302 71.575C82.1979 75.671 77.8614 78.4778 72.8548 78.4778C65.7324 78.4778 59.9727 72.8006 59.9727 65.8148C59.9727 60.7399 63.0107 56.3567 67.406 54.3369L67.4061 54.337L67.4166 54.3319C70.776 52.6922 73.9652 52.4638 76.972 52.2485C77.0541 52.2426 77.136 52.2368 77.2177 52.2309C80.267 52.0115 83.1909 51.7675 85.6874 49.8328C88.6117 47.5665 89.1797 44.0865 89.1797 39.8505Z" stroke="#201036"/>
</svg>
