<svg width="127" height="96" viewBox="0 0 127 96" fill="none" xmlns="http://www.w3.org/2000/svg">
<mask id="path-1-inside-1_532_452" fill="white">
<path d="M109.339 54.7371C104.91 54.7624 101.057 55.8278 97.8356 57.4033C96.654 55.0603 95.4674 52.9748 95.2604 51.4398C95.0281 49.6522 94.7504 48.5615 95.0281 46.4306C95.3058 44.2947 96.5581 41.2599 96.5379 41.0276C96.5177 40.7953 96.2602 39.7046 93.7101 39.6844C91.1601 39.6642 88.9535 40.1692 88.701 40.8458C88.4485 41.5225 87.9587 43.0474 87.6355 44.6279C87.1962 46.9457 82.5305 55.2269 79.8643 59.5645C79.0059 57.8729 78.2636 56.3883 78.102 55.2017C77.8697 53.4141 77.592 52.3234 77.8697 50.1925C78.1474 48.0566 79.3997 45.0218 79.3795 44.7895C79.3593 44.5572 79.1018 43.4665 76.5518 43.4463C74.0018 43.4211 71.7951 43.9311 71.5426 44.6077C71.2902 45.2844 71.0074 46.8598 70.4772 48.3899C69.9419 49.9199 63.7512 63.7455 62.1252 67.3155C61.2921 69.1485 60.57 70.6079 60.06 71.6077C60.06 71.6077 60.0347 71.6784 59.9691 71.7945C59.5298 72.6529 59.2722 73.1175 59.2722 73.1175V73.1427C58.9238 73.7689 58.5552 74.3496 58.3684 74.3496C58.227 74.3496 57.9745 72.6782 58.4138 70.4059C59.3429 65.6037 61.5445 58.1355 61.5243 57.883C61.5243 57.7416 61.9434 56.4439 60.0852 55.7723C58.2775 55.1007 57.6261 56.2116 57.4645 56.2116C57.3029 56.2116 57.1868 56.6055 57.1868 56.6055C57.1868 56.6055 59.2066 48.2081 53.334 48.2081C49.668 48.2081 44.6134 52.2225 42.1088 55.8379C40.5334 56.6964 37.1704 58.5293 33.5751 60.4987C32.2067 61.2662 30.7928 62.0287 29.4698 62.7508C29.3789 62.6599 29.283 62.5437 29.1921 62.4478C22.0924 54.8634 8.96865 49.5058 9.5241 39.3209C9.73113 35.6094 11.0087 25.8689 34.7365 14.0378C54.2681 4.41334 69.8056 7.07951 72.497 12.9925C76.3498 21.4354 64.1703 37.1142 43.9923 39.3865C36.2918 40.2449 32.2572 37.2758 31.2372 36.1649C30.1717 35.0035 30.0101 34.9379 29.6112 35.1651C28.9598 35.5135 29.3789 36.5588 29.6112 37.1597C30.2121 38.7351 32.6965 41.5225 36.8926 42.8909C40.6041 44.0977 49.6276 44.7693 60.5498 40.5479C72.7747 35.8165 82.3285 22.6624 79.5209 11.6493C76.7134 0.469647 58.1563 -3.21652 40.599 3.01967C30.1616 6.73109 18.8405 12.5785 10.7006 20.1831C1.03077 29.2268 -0.504299 37.094 0.121845 40.3863C2.37394 52.076 18.4921 59.6857 24.9404 65.321C24.6172 65.5078 24.3142 65.6694 24.0567 65.8057C20.8351 67.4064 8.53944 73.8295 5.47941 80.6262C2.00028 88.3267 6.03486 93.8459 8.70102 94.5881C16.9823 96.8857 25.4958 92.7552 30.0657 85.9383C34.6355 79.1214 34.08 70.2594 31.9693 66.1996C31.9441 66.1541 31.9239 66.1087 31.8784 66.0582C32.7116 65.5735 33.57 65.0584 34.4083 64.5736C36.0544 63.5991 37.6804 62.6952 39.069 61.9529C38.2813 64.1091 37.7006 66.6843 37.4228 70.3958C37.0744 74.7586 38.862 80.4141 41.205 82.6409C42.2502 83.6155 43.4773 83.6407 44.265 83.6407C47.0018 83.6407 48.2289 81.3684 49.5973 78.677C51.2687 75.3847 52.7735 71.5572 52.7735 71.5572C52.7735 71.5572 50.895 81.9037 55.9951 81.9037C57.8483 81.9037 59.7317 79.49 60.5649 78.263V78.2882C60.5649 78.2882 60.6104 78.2175 60.7063 78.0559C60.8931 77.753 61.0093 77.5712 61.0093 77.5712V77.5257C61.7516 76.228 63.423 73.2791 65.9023 68.386C69.1037 62.0792 72.189 54.1918 72.189 54.1918C72.189 54.1918 72.4667 56.1157 73.416 59.3171C73.9715 61.1955 75.1329 63.2608 76.062 65.2553C75.3197 66.3006 74.8551 66.8813 74.8551 66.8813L74.8804 66.9065C74.2795 67.6943 73.6281 68.5527 72.9111 69.3909C70.3812 72.4055 67.3667 75.8644 66.9475 76.8592C66.4628 78.0408 66.5789 78.8992 67.503 79.596C68.1746 80.106 69.3814 80.1767 70.6135 80.1061C72.8858 79.9445 74.4865 79.389 75.2743 79.0406C76.5013 78.6013 77.9404 77.9297 79.2886 76.9299C81.773 75.0969 83.2778 72.4762 83.1415 69.0223C83.0708 67.1186 82.4446 65.22 81.6821 63.4324C81.9144 63.1093 82.1214 62.7811 82.3537 62.4579C86.2722 56.7267 89.312 50.445 89.312 50.445C89.312 50.445 89.5897 52.3689 90.539 55.5703C91.0036 57.1963 91.9529 58.9585 92.7911 60.6754C89.105 63.6698 86.8276 67.1489 86.0197 69.4212C84.5604 73.6426 85.6965 75.5463 87.8527 75.9856C88.8272 76.1927 90.2209 75.7281 91.2409 75.2888C92.5387 74.8697 94.0687 74.1526 95.533 73.0872C98.0174 71.2542 100.406 68.7042 100.264 65.2452C100.194 63.6698 99.7797 62.1145 99.199 60.6047C102.33 59.307 106.364 58.5849 111.515 59.1908C122.553 60.4886 124.735 67.3761 124.32 70.2796C123.906 73.1831 121.584 74.7586 120.816 75.2433C120.049 75.7281 119.796 75.8947 119.867 76.2431C119.958 76.7531 120.331 76.7279 120.978 76.637C121.882 76.4754 126.775 74.294 126.987 68.9617C127.335 62.1448 120.841 54.6967 109.359 54.7674L109.339 54.7371ZM24.1678 83.4539C20.5018 87.443 15.4018 88.9529 13.1951 87.6753C10.8269 86.3069 11.756 80.4141 16.2551 76.1927C18.992 73.6174 22.5166 71.2289 24.8596 69.7696C25.3948 69.4465 26.1826 68.9819 27.1319 68.4012C27.2935 68.3103 27.3894 68.2598 27.3894 68.2598L27.9448 67.9114C29.591 73.9405 28.0155 79.2527 24.1627 83.4539H24.1678ZM50.8395 65.3159C49.562 68.4264 46.8958 76.3795 45.2749 75.9402C43.8812 75.5716 43.0228 69.5373 44.9972 63.5789C45.997 60.5845 48.1077 57.0145 49.3347 55.6208C51.3293 53.3939 53.5309 52.6517 54.0662 53.5555C54.7377 54.7371 51.6323 63.3668 50.8445 65.3159H50.8395ZM72.8505 75.8442C72.3152 76.122 71.8052 76.3088 71.5729 76.1674C71.4114 76.0765 71.8052 75.7028 71.8052 75.7028C71.8052 75.7028 74.5673 72.7337 75.658 71.3905C76.2842 70.6028 77.0264 69.6737 77.8142 68.6284V68.9314C77.8142 72.4812 74.3805 74.8697 72.8505 75.8442ZM89.827 71.9712C89.4332 71.6935 89.5039 70.7644 90.8269 67.8659C91.3369 66.7298 92.5437 64.8261 94.609 62.9931C94.8412 63.7354 95.0028 64.4525 94.9776 65.1291C94.9523 69.608 91.756 71.2744 89.827 71.9712Z"/>
</mask>
<path d="M109.339 54.7371C104.91 54.7624 101.057 55.8278 97.8356 57.4033C96.654 55.0603 95.4674 52.9748 95.2604 51.4398C95.0281 49.6522 94.7504 48.5615 95.0281 46.4306C95.3058 44.2947 96.5581 41.2599 96.5379 41.0276C96.5177 40.7953 96.2602 39.7046 93.7101 39.6844C91.1601 39.6642 88.9535 40.1692 88.701 40.8458C88.4485 41.5225 87.9587 43.0474 87.6355 44.6279C87.1962 46.9457 82.5305 55.2269 79.8643 59.5645C79.0059 57.8729 78.2636 56.3883 78.102 55.2017C77.8697 53.4141 77.592 52.3234 77.8697 50.1925C78.1474 48.0566 79.3997 45.0218 79.3795 44.7895C79.3593 44.5572 79.1018 43.4665 76.5518 43.4463C74.0018 43.4211 71.7951 43.9311 71.5426 44.6077C71.2902 45.2844 71.0074 46.8598 70.4772 48.3899C69.9419 49.9199 63.7512 63.7455 62.1252 67.3155C61.2921 69.1485 60.57 70.6079 60.06 71.6077C60.06 71.6077 60.0347 71.6784 59.9691 71.7945C59.5298 72.6529 59.2722 73.1175 59.2722 73.1175V73.1427C58.9238 73.7689 58.5552 74.3496 58.3684 74.3496C58.227 74.3496 57.9745 72.6782 58.4138 70.4059C59.3429 65.6037 61.5445 58.1355 61.5243 57.883C61.5243 57.7416 61.9434 56.4439 60.0852 55.7723C58.2775 55.1007 57.6261 56.2116 57.4645 56.2116C57.3029 56.2116 57.1868 56.6055 57.1868 56.6055C57.1868 56.6055 59.2066 48.2081 53.334 48.2081C49.668 48.2081 44.6134 52.2225 42.1088 55.8379C40.5334 56.6964 37.1704 58.5293 33.5751 60.4987C32.2067 61.2662 30.7928 62.0287 29.4698 62.7508C29.3789 62.6599 29.283 62.5437 29.1921 62.4478C22.0924 54.8634 8.96865 49.5058 9.5241 39.3209C9.73113 35.6094 11.0087 25.8689 34.7365 14.0378C54.2681 4.41334 69.8056 7.07951 72.497 12.9925C76.3498 21.4354 64.1703 37.1142 43.9923 39.3865C36.2918 40.2449 32.2572 37.2758 31.2372 36.1649C30.1717 35.0035 30.0101 34.9379 29.6112 35.1651C28.9598 35.5135 29.3789 36.5588 29.6112 37.1597C30.2121 38.7351 32.6965 41.5225 36.8926 42.8909C40.6041 44.0977 49.6276 44.7693 60.5498 40.5479C72.7747 35.8165 82.3285 22.6624 79.5209 11.6493C76.7134 0.469647 58.1563 -3.21652 40.599 3.01967C30.1616 6.73109 18.8405 12.5785 10.7006 20.1831C1.03077 29.2268 -0.504299 37.094 0.121845 40.3863C2.37394 52.076 18.4921 59.6857 24.9404 65.321C24.6172 65.5078 24.3142 65.6694 24.0567 65.8057C20.8351 67.4064 8.53944 73.8295 5.47941 80.6262C2.00028 88.3267 6.03486 93.8459 8.70102 94.5881C16.9823 96.8857 25.4958 92.7552 30.0657 85.9383C34.6355 79.1214 34.08 70.2594 31.9693 66.1996C31.9441 66.1541 31.9239 66.1087 31.8784 66.0582C32.7116 65.5735 33.57 65.0584 34.4083 64.5736C36.0544 63.5991 37.6804 62.6952 39.069 61.9529C38.2813 64.1091 37.7006 66.6843 37.4228 70.3958C37.0744 74.7586 38.862 80.4141 41.205 82.6409C42.2502 83.6155 43.4773 83.6407 44.265 83.6407C47.0018 83.6407 48.2289 81.3684 49.5973 78.677C51.2687 75.3847 52.7735 71.5572 52.7735 71.5572C52.7735 71.5572 50.895 81.9037 55.9951 81.9037C57.8483 81.9037 59.7317 79.49 60.5649 78.263V78.2882C60.5649 78.2882 60.6104 78.2175 60.7063 78.0559C60.8931 77.753 61.0093 77.5712 61.0093 77.5712V77.5257C61.7516 76.228 63.423 73.2791 65.9023 68.386C69.1037 62.0792 72.189 54.1918 72.189 54.1918C72.189 54.1918 72.4667 56.1157 73.416 59.3171C73.9715 61.1955 75.1329 63.2608 76.062 65.2553C75.3197 66.3006 74.8551 66.8813 74.8551 66.8813L74.8804 66.9065C74.2795 67.6943 73.6281 68.5527 72.9111 69.3909C70.3812 72.4055 67.3667 75.8644 66.9475 76.8592C66.4628 78.0408 66.5789 78.8992 67.503 79.596C68.1746 80.106 69.3814 80.1767 70.6135 80.1061C72.8858 79.9445 74.4865 79.389 75.2743 79.0406C76.5013 78.6013 77.9404 77.9297 79.2886 76.9299C81.773 75.0969 83.2778 72.4762 83.1415 69.0223C83.0708 67.1186 82.4446 65.22 81.6821 63.4324C81.9144 63.1093 82.1214 62.7811 82.3537 62.4579C86.2722 56.7267 89.312 50.445 89.312 50.445C89.312 50.445 89.5897 52.3689 90.539 55.5703C91.0036 57.1963 91.9529 58.9585 92.7911 60.6754C89.105 63.6698 86.8276 67.1489 86.0197 69.4212C84.5604 73.6426 85.6965 75.5463 87.8527 75.9856C88.8272 76.1927 90.2209 75.7281 91.2409 75.2888C92.5387 74.8697 94.0687 74.1526 95.533 73.0872C98.0174 71.2542 100.406 68.7042 100.264 65.2452C100.194 63.6698 99.7797 62.1145 99.199 60.6047C102.33 59.307 106.364 58.5849 111.515 59.1908C122.553 60.4886 124.735 67.3761 124.32 70.2796C123.906 73.1831 121.584 74.7586 120.816 75.2433C120.049 75.7281 119.796 75.8947 119.867 76.2431C119.958 76.7531 120.331 76.7279 120.978 76.637C121.882 76.4754 126.775 74.294 126.987 68.9617C127.335 62.1448 120.841 54.6967 109.359 54.7674L109.339 54.7371ZM24.1678 83.4539C20.5018 87.443 15.4018 88.9529 13.1951 87.6753C10.8269 86.3069 11.756 80.4141 16.2551 76.1927C18.992 73.6174 22.5166 71.2289 24.8596 69.7696C25.3948 69.4465 26.1826 68.9819 27.1319 68.4012C27.2935 68.3103 27.3894 68.2598 27.3894 68.2598L27.9448 67.9114C29.591 73.9405 28.0155 79.2527 24.1627 83.4539H24.1678ZM50.8395 65.3159C49.562 68.4264 46.8958 76.3795 45.2749 75.9402C43.8812 75.5716 43.0228 69.5373 44.9972 63.5789C45.997 60.5845 48.1077 57.0145 49.3347 55.6208C51.3293 53.3939 53.5309 52.6517 54.0662 53.5555C54.7377 54.7371 51.6323 63.3668 50.8445 65.3159H50.8395ZM72.8505 75.8442C72.3152 76.122 71.8052 76.3088 71.5729 76.1674C71.4114 76.0765 71.8052 75.7028 71.8052 75.7028C71.8052 75.7028 74.5673 72.7337 75.658 71.3905C76.2842 70.6028 77.0264 69.6737 77.8142 68.6284V68.9314C77.8142 72.4812 74.3805 74.8697 72.8505 75.8442ZM89.827 71.9712C89.4332 71.6935 89.5039 70.7644 90.8269 67.8659C91.3369 66.7298 92.5437 64.8261 94.609 62.9931C94.8412 63.7354 95.0028 64.4525 94.9776 65.1291C94.9523 69.608 91.756 71.2744 89.827 71.9712Z" stroke="#201036" stroke-width="2" mask="url(#path-1-inside-1_532_452)"/>
</svg>
