<svg width="82" height="80" viewBox="0 0 82 80" fill="none" xmlns="http://www.w3.org/2000/svg">
<mask id="path-1-outside-1_615_1524" maskUnits="userSpaceOnUse" x="-1" y="9" width="84" height="63" fill="black">
<rect fill="white" x="-1" y="9" width="84" height="63"/>
<path d="M69.8746 44.4883C67.0851 44.5042 64.6581 45.1755 62.6287 46.1682C61.8844 44.6919 61.1369 43.3779 61.0065 42.4107C60.8602 41.2845 60.6853 40.5972 60.8602 39.2546C61.0352 37.9088 61.824 35.9967 61.8113 35.8503C61.7986 35.704 61.6363 35.0168 60.03 35.004C58.4237 34.9913 57.0337 35.3095 56.8746 35.7358C56.7156 36.1621 56.4071 37.123 56.2035 38.1188C55.9268 39.5791 52.9877 44.7969 51.3082 47.5299C50.7675 46.4641 50.2999 45.5287 50.1981 44.781C50.0518 43.6547 49.8768 42.9675 50.0518 41.6249C50.2267 40.2791 51.0156 38.367 51.0029 38.2206C50.9901 38.0743 50.8279 37.387 49.2216 37.3743C47.6153 37.3584 46.2253 37.6797 46.0662 38.1061C45.9072 38.5324 45.7291 39.5251 45.3951 40.4891C45.0579 41.4531 41.1582 50.1642 40.134 52.4136C39.6092 53.5685 39.1543 54.488 38.833 55.118C38.833 55.118 38.8171 55.1625 38.7758 55.2357C38.4991 55.7765 38.3368 56.0692 38.3368 56.0692V56.0852C38.1174 56.4797 37.8852 56.8455 37.7675 56.8455C37.6784 56.8455 37.5194 55.7924 37.7961 54.3607C38.3814 51.3351 39.7682 46.6295 39.7555 46.4704C39.7555 46.3813 40.0195 45.5637 38.849 45.1405C37.7102 44.7174 37.2999 45.4173 37.1981 45.4173C37.0963 45.4173 37.0232 45.6655 37.0232 45.6655C37.0232 45.6655 38.2955 40.3745 34.5962 40.3745C32.2869 40.3745 29.1029 42.9039 27.5252 45.1819C26.5328 45.7228 24.4144 46.8777 22.1497 48.1185C21.2877 48.6021 20.397 49.0825 19.5637 49.5375C19.5064 49.4802 19.446 49.407 19.3887 49.3466C14.9165 44.5679 6.64955 41.1922 6.99943 34.775C7.12985 32.4365 7.93459 26.2992 22.8813 18.8448C35.1847 12.7807 44.972 14.4606 46.6674 18.1862C49.0944 23.5058 41.4222 33.3846 28.7117 34.8163C23.8609 35.3572 21.3195 33.4864 20.6769 32.7865C20.0058 32.0547 19.904 32.0134 19.6527 32.1565C19.2424 32.3761 19.5064 33.0346 19.6527 33.4132C20.0312 34.4059 21.5962 36.1621 24.2395 37.0243C26.5774 37.7847 32.2615 38.2079 39.1416 35.5481C46.8423 32.5669 52.8605 24.2789 51.0919 17.3399C49.3234 10.2959 37.6339 7.97336 26.5742 11.9026C19.9994 14.2411 12.868 17.9253 7.74057 22.7168C1.6493 28.415 0.682331 33.3719 1.07675 35.4463C2.4954 42.8116 12.6486 47.6063 16.7105 51.1569C16.5069 51.2746 16.316 51.3764 16.1538 51.4623C14.1245 52.4709 6.37917 56.5178 4.4516 60.8002C2.26002 65.6522 4.80149 69.1296 6.48096 69.5973C11.6975 71.0449 17.0604 68.4424 19.939 64.1473C22.8176 59.8521 22.4677 54.2685 21.1382 51.7105C21.1223 51.6819 21.1095 51.6532 21.0809 51.6214C21.6057 51.316 22.1465 50.9915 22.6745 50.686C23.7114 50.072 24.7357 49.5025 25.6104 49.0348C25.1142 50.3933 24.7484 52.0159 24.5734 54.3544C24.354 57.1033 25.48 60.6666 26.9559 62.0697C27.6143 62.6837 28.3872 62.6997 28.8835 62.6997C30.6075 62.6997 31.3804 61.2679 32.2424 59.5722C33.2952 57.4978 34.2431 55.0861 34.2431 55.0861C34.2431 55.0861 33.0599 61.6052 36.2725 61.6052C37.4399 61.6052 38.6263 60.0844 39.1511 59.3113V59.3272C39.1511 59.3272 39.1798 59.2826 39.2402 59.1808C39.3579 58.9899 39.431 58.8754 39.431 58.8754V58.8468C39.8986 58.0291 40.9515 56.1711 42.5133 53.0881C44.5299 49.1143 46.4734 44.1447 46.4734 44.1447C46.4734 44.1447 46.6483 45.3569 47.2463 47.374C47.5962 48.5575 48.3278 49.8588 48.9131 51.1155C48.4455 51.7741 48.1528 52.14 48.1528 52.14L48.1688 52.1559C47.7902 52.6522 47.3799 53.1931 46.9282 53.7212C45.3346 55.6206 43.4357 57.8 43.1717 58.4268C42.8663 59.1713 42.9395 59.7121 43.5216 60.1512C43.9446 60.4725 44.7048 60.5171 45.481 60.4725C46.9123 60.3707 47.9206 60.0208 48.4169 59.8012C49.1898 59.5244 50.0963 59.1013 50.9456 58.4713C52.5106 57.3164 53.4585 55.6652 53.3726 53.489C53.328 52.2895 52.9336 51.0933 52.4533 49.967C52.5996 49.7634 52.73 49.5566 52.8764 49.3529C55.3447 45.7419 57.2595 41.784 57.2595 41.784C57.2595 41.784 57.4345 42.9962 58.0325 45.0133C58.3251 46.0377 58.9231 47.1481 59.4511 48.2298C57.1291 50.1165 55.6946 52.3086 55.1856 53.7403C54.2664 56.4001 54.9821 57.5996 56.3403 57.8764C56.9542 58.0068 57.8321 57.7141 58.4746 57.4373C59.2921 57.1733 60.2559 56.7215 61.1783 56.0502C62.7433 54.8952 64.2478 53.2885 64.1587 51.1092C64.1142 50.1165 63.8534 49.1366 63.4876 48.1853C65.4597 47.3676 68.0011 46.9127 71.2456 47.2945C78.1988 48.1121 79.573 52.4518 79.3121 54.2812C79.0513 56.1106 77.5881 57.1033 77.1046 57.4087C76.6212 57.7141 76.4621 57.8191 76.5067 58.0386C76.5639 58.36 76.7993 58.3441 77.2064 58.2868C77.7758 58.185 80.858 56.8106 80.9916 53.4508C81.2111 49.1557 77.1205 44.4629 69.8874 44.5074L69.8746 44.4883ZM16.2238 62.5819C13.9145 65.0954 10.7019 66.0467 9.31189 65.2417C7.82008 64.3795 8.40536 60.6666 11.2395 58.0068C12.9635 56.3842 15.1837 54.8793 16.6596 53.9599C16.9967 53.7562 17.4929 53.4635 18.0909 53.0977C18.1927 53.0404 18.2532 53.0086 18.2532 53.0086L18.6031 52.789C19.64 56.5878 18.6476 59.9349 16.2206 62.5819H16.2238ZM33.0249 51.1537C32.2201 53.1136 30.5407 58.1245 29.5196 57.8477C28.6417 57.6155 28.101 53.8135 29.3447 50.0592C29.9745 48.1726 31.3041 45.9232 32.077 45.0451C33.3334 43.642 34.7203 43.1743 35.0574 43.7438C35.4805 44.4883 33.5243 49.9256 33.0281 51.1537H33.0249ZM46.8901 57.7873C46.5529 57.9623 46.2316 58.08 46.0853 57.9909C45.9835 57.9336 46.2316 57.6982 46.2316 57.6982C46.2316 57.6982 47.9715 55.8274 48.6586 54.9811C49.053 54.4848 49.5206 53.8994 50.0168 53.2408V53.4317C50.0168 55.6684 47.8538 57.1733 46.8901 57.7873ZM57.584 55.347C57.3359 55.172 57.3804 54.5866 58.2138 52.7604C58.535 52.0446 59.2952 50.8451 60.5962 49.6902C60.7425 50.1579 60.8443 50.6097 60.8284 51.036C60.8125 53.858 58.799 54.908 57.584 55.347Z"/>
</mask>
<path d="M69.8746 44.4883C67.0851 44.5042 64.6581 45.1755 62.6287 46.1682C61.8844 44.6919 61.1369 43.3779 61.0065 42.4107C60.8602 41.2845 60.6853 40.5972 60.8602 39.2546C61.0352 37.9088 61.824 35.9967 61.8113 35.8503C61.7986 35.704 61.6363 35.0168 60.03 35.004C58.4237 34.9913 57.0337 35.3095 56.8746 35.7358C56.7156 36.1621 56.4071 37.123 56.2035 38.1188C55.9268 39.5791 52.9877 44.7969 51.3082 47.5299C50.7675 46.4641 50.2999 45.5287 50.1981 44.781C50.0518 43.6547 49.8768 42.9675 50.0518 41.6249C50.2267 40.2791 51.0156 38.367 51.0029 38.2206C50.9901 38.0743 50.8279 37.387 49.2216 37.3743C47.6153 37.3584 46.2253 37.6797 46.0662 38.1061C45.9072 38.5324 45.7291 39.5251 45.3951 40.4891C45.0579 41.4531 41.1582 50.1642 40.134 52.4136C39.6092 53.5685 39.1543 54.488 38.833 55.118C38.833 55.118 38.8171 55.1625 38.7758 55.2357C38.4991 55.7765 38.3368 56.0692 38.3368 56.0692V56.0852C38.1174 56.4797 37.8852 56.8455 37.7675 56.8455C37.6784 56.8455 37.5194 55.7924 37.7961 54.3607C38.3814 51.3351 39.7682 46.6295 39.7555 46.4704C39.7555 46.3813 40.0195 45.5637 38.849 45.1405C37.7102 44.7174 37.2999 45.4173 37.1981 45.4173C37.0963 45.4173 37.0232 45.6655 37.0232 45.6655C37.0232 45.6655 38.2955 40.3745 34.5962 40.3745C32.2869 40.3745 29.1029 42.9039 27.5252 45.1819C26.5328 45.7228 24.4144 46.8777 22.1497 48.1185C21.2877 48.6021 20.397 49.0825 19.5637 49.5375C19.5064 49.4802 19.446 49.407 19.3887 49.3466C14.9165 44.5679 6.64955 41.1922 6.99943 34.775C7.12985 32.4365 7.93459 26.2992 22.8813 18.8448C35.1847 12.7807 44.972 14.4606 46.6674 18.1862C49.0944 23.5058 41.4222 33.3846 28.7117 34.8163C23.8609 35.3572 21.3195 33.4864 20.6769 32.7865C20.0058 32.0547 19.904 32.0134 19.6527 32.1565C19.2424 32.3761 19.5064 33.0346 19.6527 33.4132C20.0312 34.4059 21.5962 36.1621 24.2395 37.0243C26.5774 37.7847 32.2615 38.2079 39.1416 35.5481C46.8423 32.5669 52.8605 24.2789 51.0919 17.3399C49.3234 10.2959 37.6339 7.97336 26.5742 11.9026C19.9994 14.2411 12.868 17.9253 7.74057 22.7168C1.6493 28.415 0.682331 33.3719 1.07675 35.4463C2.4954 42.8116 12.6486 47.6063 16.7105 51.1569C16.5069 51.2746 16.316 51.3764 16.1538 51.4623C14.1245 52.4709 6.37917 56.5178 4.4516 60.8002C2.26002 65.6522 4.80149 69.1296 6.48096 69.5973C11.6975 71.0449 17.0604 68.4424 19.939 64.1473C22.8176 59.8521 22.4677 54.2685 21.1382 51.7105C21.1223 51.6819 21.1095 51.6532 21.0809 51.6214C21.6057 51.316 22.1465 50.9915 22.6745 50.686C23.7114 50.072 24.7357 49.5025 25.6104 49.0348C25.1142 50.3933 24.7484 52.0159 24.5734 54.3544C24.354 57.1033 25.48 60.6666 26.9559 62.0697C27.6143 62.6837 28.3872 62.6997 28.8835 62.6997C30.6075 62.6997 31.3804 61.2679 32.2424 59.5722C33.2952 57.4978 34.2431 55.0861 34.2431 55.0861C34.2431 55.0861 33.0599 61.6052 36.2725 61.6052C37.4399 61.6052 38.6263 60.0844 39.1511 59.3113V59.3272C39.1511 59.3272 39.1798 59.2826 39.2402 59.1808C39.3579 58.9899 39.431 58.8754 39.431 58.8754V58.8468C39.8986 58.0291 40.9515 56.1711 42.5133 53.0881C44.5299 49.1143 46.4734 44.1447 46.4734 44.1447C46.4734 44.1447 46.6483 45.3569 47.2463 47.374C47.5962 48.5575 48.3278 49.8588 48.9131 51.1155C48.4455 51.7741 48.1528 52.14 48.1528 52.14L48.1688 52.1559C47.7902 52.6522 47.3799 53.1931 46.9282 53.7212C45.3346 55.6206 43.4357 57.8 43.1717 58.4268C42.8663 59.1713 42.9395 59.7121 43.5216 60.1512C43.9446 60.4725 44.7048 60.5171 45.481 60.4725C46.9123 60.3707 47.9206 60.0208 48.4169 59.8012C49.1898 59.5244 50.0963 59.1013 50.9456 58.4713C52.5106 57.3164 53.4585 55.6652 53.3726 53.489C53.328 52.2895 52.9336 51.0933 52.4533 49.967C52.5996 49.7634 52.73 49.5566 52.8764 49.3529C55.3447 45.7419 57.2595 41.784 57.2595 41.784C57.2595 41.784 57.4345 42.9962 58.0325 45.0133C58.3251 46.0377 58.9231 47.1481 59.4511 48.2298C57.1291 50.1165 55.6946 52.3086 55.1856 53.7403C54.2664 56.4001 54.9821 57.5996 56.3403 57.8764C56.9542 58.0068 57.8321 57.7141 58.4746 57.4373C59.2921 57.1733 60.2559 56.7215 61.1783 56.0502C62.7433 54.8952 64.2478 53.2885 64.1587 51.1092C64.1142 50.1165 63.8534 49.1366 63.4876 48.1853C65.4597 47.3676 68.0011 46.9127 71.2456 47.2945C78.1988 48.1121 79.573 52.4518 79.3121 54.2812C79.0513 56.1106 77.5881 57.1033 77.1046 57.4087C76.6212 57.7141 76.4621 57.8191 76.5067 58.0386C76.5639 58.36 76.7993 58.3441 77.2064 58.2868C77.7758 58.185 80.858 56.8106 80.9916 53.4508C81.2111 49.1557 77.1205 44.4629 69.8874 44.5074L69.8746 44.4883ZM16.2238 62.5819C13.9145 65.0954 10.7019 66.0467 9.31189 65.2417C7.82008 64.3795 8.40536 60.6666 11.2395 58.0068C12.9635 56.3842 15.1837 54.8793 16.6596 53.9599C16.9967 53.7562 17.4929 53.4635 18.0909 53.0977C18.1927 53.0404 18.2532 53.0086 18.2532 53.0086L18.6031 52.789C19.64 56.5878 18.6476 59.9349 16.2206 62.5819H16.2238ZM33.0249 51.1537C32.2201 53.1136 30.5407 58.1245 29.5196 57.8477C28.6417 57.6155 28.101 53.8135 29.3447 50.0592C29.9745 48.1726 31.3041 45.9232 32.077 45.0451C33.3334 43.642 34.7203 43.1743 35.0574 43.7438C35.4805 44.4883 33.5243 49.9256 33.0281 51.1537H33.0249ZM46.8901 57.7873C46.5529 57.9623 46.2316 58.08 46.0853 57.9909C45.9835 57.9336 46.2316 57.6982 46.2316 57.6982C46.2316 57.6982 47.9715 55.8274 48.6586 54.9811C49.053 54.4848 49.5206 53.8994 50.0168 53.2408V53.4317C50.0168 55.6684 47.8538 57.1733 46.8901 57.7873ZM57.584 55.347C57.3359 55.172 57.3804 54.5866 58.2138 52.7604C58.535 52.0446 59.2952 50.8451 60.5962 49.6902C60.7425 50.1579 60.8443 50.6097 60.8284 51.036C60.8125 53.858 58.799 54.908 57.584 55.347Z" stroke="#201036" stroke-width="2" mask="url(#path-1-outside-1_615_1524)"/>
</svg>
