<svg width="90" height="100" viewBox="0 0 90 100" fill="none" xmlns="http://www.w3.org/2000/svg">
<path d="M49.5165 77.1234C49.4718 76.557 49.4451 76.189 49.4451 76.189M49.8233 61.098C50.327 62.5198 50.4329 62.9272 50.4329 62.9272M51.7424 53.7762C51.8233 54.0061 51.8915 54.2015 51.9527 54.3804C51.9723 54.2729 51.9919 54.1654 52.0116 54.0579M71.0686 4.41642H8.61091C4.42493 4.41642 1 7.84197 1 12.0278V80.907C1 85.0926 4.42493 88.5176 8.61091 88.5176H49.7472" stroke="#201036"/>
<path d="M52.4982 53.9433C52.4037 53.5406 52.2858 53.0691 52.1558 52.5687L52.1557 52.5685C51.6609 50.6668 50.9092 48.1637 49.9395 46.1495C52.482 33.126 60.5303 16.1383 69.1634 6.97995C69.909 6.18932 70.6555 5.45238 71.4007 4.79038C73.9229 2.552 76.4154 1.09836 78.7598 0.648834C81.0755 0.204826 83.2817 0.731987 85.3042 2.53555C90.2891 6.98243 90.3861 14.3585 87.9194 22.6866C85.4799 30.9231 80.5894 39.8794 75.8695 47.3298C72.4188 48.4576 68.72 50.2223 65.8778 51.7078C64.4306 52.4642 63.2006 53.1507 62.3321 53.6484C61.8977 53.8972 61.5536 54.099 61.3177 54.2387C61.1998 54.3086 61.1088 54.3629 61.0472 54.4L60.977 54.4423L60.9589 54.4533L60.9542 54.4561L60.953 54.4569L60.9526 54.4571C60.9525 54.4571 60.9525 54.4572 61.2125 54.8842L60.9525 54.4572L61.4452 55.3227C61.4469 55.3259 61.4469 55.3259 61.4469 55.3259L61.447 55.3258L61.4509 55.3238L61.4725 55.3127C61.4933 55.3022 61.5269 55.2854 61.5757 55.2615C61.6733 55.2139 61.8312 55.1385 62.0675 55.0301C62.5403 54.8133 63.3252 54.4654 64.5663 53.9448L64.5666 53.9447C65.3705 53.6068 67.0151 53.1385 68.8768 52.6609C70.2641 52.305 71.7495 51.9495 73.0522 51.6465C70.7662 55.0455 68.6664 57.9389 67.0936 60.0378C66.2278 61.1932 65.5219 62.1076 65.0328 62.7326C64.7883 63.0451 64.598 63.2853 64.469 63.4471C64.4209 63.5074 64.3814 63.5568 64.3507 63.595C64.2815 63.6251 64.1841 63.6684 64.0619 63.7251C63.8042 63.8446 63.4355 64.0237 62.9857 64.265C62.0865 64.7472 60.8597 65.4791 59.5446 66.4803C57.7366 67.8568 55.7465 69.754 54.2172 72.2245C55.8435 64.4514 58.2428 56.3628 61.4399 47.8192C63.1067 43.3658 66.7332 35.1039 70.9752 27.024C75.2288 18.9221 80.0578 11.0894 84.1174 7.42311L83.4706 6.66104C74.2987 13.9713 64.3449 29.2069 57.1852 48.1182L57.182 48.1265L57.1792 48.135C52.9378 60.6728 50.6376 72.7148 50.2628 82.7172C50.1803 84.8955 50.1878 86.9815 50.2866 88.9567C50.2725 88.7975 50.2588 88.6374 50.2455 88.4765C49.9506 84.9057 49.8523 80.9544 50.0161 77.1451L50.0174 77.1146L50.015 77.0842C49.9927 76.8017 49.9749 76.5687 49.9627 76.4064L49.9486 76.2187L49.945 76.1696L49.9441 76.1571L49.9439 76.154L49.9438 76.1532L49.9438 76.153L49.9438 76.153L49.9425 76.1343L49.9397 76.1157L49.4451 76.1891C49.9397 76.1157 49.9397 76.1156 49.9397 76.1156L49.9397 76.1153L49.9395 76.1145L49.9391 76.1113L49.9372 76.0989L49.9299 76.0508C49.9235 76.0085 49.914 75.9461 49.9015 75.8651C49.8765 75.7033 49.8395 75.4673 49.7913 75.1701C49.6951 74.5757 49.5544 73.7357 49.3766 72.7528C49.0212 70.7887 48.5159 68.2456 47.9181 65.9468C47.3935 63.9236 46.7816 62.0302 46.1142 60.9015M52.4982 53.9433C52.6102 54.418 52.6963 54.8095 52.7545 55.0829C52.7836 55.2196 52.8058 55.3268 52.8207 55.4001L52.8376 55.4842L52.842 55.5061L52.8431 55.5119L52.8434 55.5135L52.8435 55.5139L52.8436 55.514L52.8436 55.5141L52.3529 55.61L52.8436 55.5141L51.8719 55.7373C51.8695 55.7379 51.8695 55.7379 51.8695 55.7379L51.8695 55.7378L51.8694 55.7377L51.8673 55.7299C51.8651 55.722 51.8613 55.7087 51.8556 55.6893C51.8443 55.6504 51.8254 55.5873 51.7963 55.4947C51.7382 55.3093 51.6397 55.0065 51.48 54.5435L51.4796 54.5424C51.4194 54.3662 51.352 54.1733 51.2717 53.9449C51.2423 53.8644 51.1996 53.7611 51.1479 53.6399C50.7106 52.6236 49.6547 50.6978 48.8822 49.3225C48.4598 50.5967 48.0783 51.8015 47.7447 52.9188C48.7295 54.7844 49.5137 57.222 50.0538 59.1939C50.3342 60.2177 50.5514 61.1256 50.6985 61.7778C50.7721 62.104 50.8282 62.3666 50.866 62.548C50.8849 62.6388 50.8993 62.7092 50.9089 62.7573L50.9199 62.8122L50.9227 62.8266L50.9235 62.8304L50.9237 62.8314L50.9237 62.8317C50.9237 62.8318 50.9238 62.8319 50.4329 62.9273L50.9238 62.8319L49.9523 63.0524C49.9491 63.0532 49.9491 63.0533 49.9491 63.0533L49.949 63.0531L49.9489 63.0526L49.9458 63.0413C49.9426 63.0299 49.9372 63.0108 49.9289 62.9828C49.9124 62.9266 49.8845 62.835 49.8408 62.6983C49.7533 62.4248 49.6027 61.9727 49.3522 61.2657C49.1446 60.682 48.4982 59.4301 47.8131 58.1715C47.4552 57.5138 47.0942 56.8679 46.7949 56.3384C46.5099 57.4755 46.3052 58.4431 46.1864 59.2108C46.1072 59.7226 46.0683 60.1324 46.0663 60.438C46.0653 60.5906 46.0736 60.707 46.0872 60.7915C46.1002 60.872 46.1145 60.9016 46.1143 60.9017C46.1143 60.9017 46.1143 60.9016 46.1142 60.9015M52.4982 53.9433C52.4982 53.9435 52.4983 53.9436 52.4983 53.9438L52.3435 53.9802L52.4982 53.9433ZM46.1142 60.9015C46.1139 60.9011 46.1137 60.9007 46.1135 60.9003L45.6831 61.1549M46.1142 60.9015C46.1141 60.9013 46.1139 60.901 46.1137 60.9007L45.6831 61.1549M45.6831 61.1549C45.3825 60.6457 45.6713 58.6654 46.4388 55.7119L47.4342 66.0727C46.9091 64.0475 46.3111 62.2162 45.6831 61.1549Z" stroke="#201036"/>
</svg>
