<svg width="80" height="80" viewBox="0 0 80 80" fill="none" xmlns="http://www.w3.org/2000/svg">
<path d="M43.2493 61.9848C43.2131 61.5295 43.1915 61.2337 43.1915 61.2337M43.4975 49.105C43.905 50.2477 43.9907 50.5751 43.9907 50.5751M45.05 43.2205C45.1154 43.4052 45.1706 43.5622 45.2201 43.706C45.236 43.6196 45.2519 43.5332 45.2678 43.4468M60.6847 3.54961H10.1571C6.77073 3.54961 4 6.30275 4 9.66693V65.0256C4 68.3896 6.77073 71.1423 10.1571 71.1423H43.4359" stroke="#201036"/>
<path d="M45.7544 43.3313C45.6777 43.0066 45.5821 42.6269 45.4768 42.2243L45.4768 42.2241C45.0785 40.7036 44.4735 38.6997 43.6918 37.0771C45.7526 26.6301 52.2498 13.0158 59.2119 5.67828C59.8136 5.0444 60.4154 4.4542 61.0157 3.92445C63.0495 2.13129 65.0508 0.9748 66.9243 0.617905C68.7697 0.26638 70.5251 0.682343 72.1389 2.11208C76.1252 5.64492 76.2191 11.518 74.2256 18.2046C72.2593 24.8002 68.3184 31.9765 64.5075 37.9562C61.7179 38.8655 58.7346 40.2801 56.4425 41.4702C55.2704 42.0788 54.2743 42.6312 53.5708 43.0316C53.219 43.2319 52.9402 43.3943 52.749 43.5068C52.6534 43.5631 52.5797 43.6069 52.5297 43.6367L52.4727 43.6709L52.4579 43.6798L52.4541 43.6821L52.453 43.6827L52.4527 43.6829C52.4526 43.6829 52.4526 43.683 52.7114 44.1108L52.4526 43.683L52.9429 44.5499C52.9446 44.5531 52.9446 44.5531 52.9445 44.5531L52.9447 44.553L52.947 44.5518L52.9638 44.5433C52.9801 44.5351 53.0068 44.5217 53.0459 44.5028C53.1241 44.4649 53.2512 44.4046 53.4418 44.3177C53.8231 44.144 54.4571 43.8648 55.4604 43.4467L55.4607 43.4466C56.1036 43.1782 57.4271 42.8033 58.9346 42.4191C59.9718 42.1548 61.0769 41.8907 62.0705 41.6599C60.2769 44.3005 58.6329 46.5496 57.3936 48.1926C56.6936 49.1207 56.123 49.855 55.7277 50.3569C55.5301 50.6078 55.3763 50.8006 55.2722 50.9304C55.2407 50.9696 55.2138 51.003 55.1915 51.0306C55.1369 51.0544 55.065 51.0863 54.9774 51.1267C54.7675 51.2234 54.4676 51.3682 54.1019 51.563C53.371 51.9524 52.3742 52.5433 51.3054 53.3516C49.9456 54.3801 48.4562 55.7709 47.2542 57.5583C48.566 51.4729 50.4698 45.144 52.9844 38.468C54.3311 34.8932 57.2631 28.2569 60.6932 21.7662C64.1349 15.2535 68.0344 8.97339 71.3039 6.03986L70.6596 5.27571C63.2204 11.1663 55.1597 23.4297 49.3644 38.6371L49.3612 38.6455L49.3583 38.654C45.9246 48.738 44.0615 58.4259 43.7578 66.4763L45.7544 43.3313ZM45.7544 43.3313C45.7544 43.3315 45.7545 43.3316 45.7545 43.3318L45.6299 43.3613L45.7544 43.3313ZM55.0754 42.5238C55.0755 42.5238 55.0756 42.5237 55.0757 42.5237L55.1575 42.7204L55.0754 42.5238ZM43.1917 61.2337L43.6862 61.1598L43.689 61.1785L43.6904 61.1973L43.6904 61.1973L43.6904 61.1975L43.6904 61.1981L43.6906 61.2006L43.6914 61.2106L43.6943 61.25L43.7056 61.4007C43.7155 61.531 43.7299 61.7182 43.7479 61.9451L43.7503 61.9757L43.749 62.0063C43.6702 63.8278 43.6665 65.6899 43.7268 67.5037C43.7343 67.1643 43.7446 66.8218 43.7578 66.4765L43.1917 61.2337Z" stroke="#201036"/>
</svg>
