<svg width="120" height="72" viewBox="0 0 120 72" fill="none" xmlns="http://www.w3.org/2000/svg">
<path d="M118.874 14.2037C116.826 20.9662 113.589 26.0883 109.188 29.6096C104.297 33.5224 97.9155 35.5 90 35.5C82.649 35.5 77.3155 33.7937 73.0976 31.3648C68.8681 28.9291 65.7392 25.7566 62.794 22.7669L62.7939 22.7668L62.7314 22.7034C59.1656 19.0848 55.8185 15.6881 51.1213 14.5149C47.0246 13.4908 43.162 13.7437 39.553 15.2904C36.5456 16.5793 33.7384 18.7561 31.1261 21.7963C33.174 15.0338 36.4108 9.91168 40.8124 6.39043C45.7034 2.47756 52.0846 0.5 60 0.5C67.351 0.5 72.6845 2.20626 76.9024 4.63523C81.1319 7.07085 84.2608 10.2434 87.206 13.2331L87.2061 13.2332L87.2686 13.2966C90.8344 16.9152 94.1815 20.3119 98.8787 21.4851L118.874 14.2037ZM118.874 14.2037C116.262 17.2439 113.454 19.4207 110.447 20.7096C106.838 22.2562 102.975 22.5092 98.8788 21.4851L118.874 14.2037ZM21.1214 50.515L21.1213 50.5149C17.0246 49.4908 13.162 49.7437 9.55304 51.2904C6.54559 52.5793 3.73839 54.7561 1.12612 57.7963C3.174 51.0338 6.41079 45.9117 10.8123 42.3904C15.7034 38.4776 22.0846 36.5 30 36.5C37.351 36.5 42.6845 38.2063 46.9024 40.6352C51.1319 43.0709 54.2608 46.2434 57.206 49.2331L57.2061 49.2332L57.2686 49.2966C60.8344 52.9152 64.1815 56.3119 68.8787 57.4851C72.9754 58.5092 76.838 58.2563 80.447 56.7096C83.4544 55.4207 86.2616 53.2439 88.8739 50.2037C86.826 56.9662 83.5892 62.0883 79.1877 65.6096C74.2966 69.5224 67.9154 71.5 60 71.5C52.649 71.5 47.3155 69.7937 43.0976 67.3648C38.8681 64.9291 35.7392 61.7566 32.794 58.7669L32.7939 58.7668L32.7381 58.7102C29.1696 55.0889 25.8214 51.6911 21.1214 50.515Z" stroke="#201036"/>
</svg>
