<svg width="80" height="80" viewBox="0 0 80 80" fill="none" xmlns="http://www.w3.org/2000/svg">
<path d="M26.303 26.0404C24.4696 26.8262 22.7517 28.0977 21.1455 29.837C22.5101 25.72 24.5725 22.5823 27.3123 20.3904C30.5368 17.8109 34.7512 16.5 40 16.5C44.8725 16.5 48.3993 17.6303 51.1851 19.2346C53.9824 20.8455 56.0538 22.9445 58.0186 24.939L58.0187 24.9391L58.0769 24.9981C60.4413 27.3976 62.7017 29.6916 65.8788 30.4851C68.6422 31.1759 71.2547 31.0062 73.697 29.9596C75.5304 29.1738 77.2483 27.9023 78.8545 26.163C77.4899 30.28 75.4275 33.4177 72.6877 35.6096C69.4632 38.1891 65.2488 39.5 60 39.5C55.1275 39.5 51.6007 38.3697 48.8149 36.7654C46.0176 35.1545 43.9462 33.0555 41.9814 31.061L41.9813 31.0609L41.9231 31.0019C39.5587 28.6024 37.2983 26.3084 34.1212 25.5149C31.3578 24.8241 28.7453 24.9938 26.303 26.0404ZM58.8545 50.163C57.4899 54.28 55.4275 57.4177 52.6877 59.6096C49.4632 62.1891 45.2488 63.5 40 63.5C35.1275 63.5 31.6007 62.3697 28.8149 60.7654C26.0176 59.1545 23.9462 57.0555 21.9814 55.061L21.9813 55.0609L21.9275 55.0063C19.5614 52.6051 17.3003 50.3105 14.1214 49.515L14.1213 49.5149C11.3579 48.8241 8.7453 48.9937 6.30304 50.0404C4.46957 50.8262 2.7517 52.0977 1.14549 53.837C2.51014 49.72 4.57252 46.5823 7.31235 44.3904C10.5368 41.8109 14.7512 40.5 20 40.5C24.8725 40.5 28.3993 41.6303 31.1851 43.2346C33.9824 44.8455 36.0538 46.9445 38.0186 48.939L38.0187 48.9391L38.0769 48.9982C40.4412 51.3976 42.7016 53.6915 45.8787 54.4851C48.6421 55.1759 51.2547 55.0063 53.697 53.9596C55.5304 53.1738 57.2483 51.9023 58.8545 50.163Z" stroke="#201036"/>
</svg>
