<svg width="102" height="102" viewBox="0 0 102 102" fill="none" xmlns="http://www.w3.org/2000/svg">
<path d="M101 51C101 14.4375 71.0116 1 50.0625 1C26 1 0.999987 21.9106 1 51C1.00001 83.5 29.4375 101 50.0625 101C71.625 101 101 83.5097 101 51Z" stroke="#201036"/>
<path d="M49.1249 14.4376L25.3749 49.7501C21.5077 55.5001 26.2636 57.3543 29.1249 57.5626H42.5624L39.7499 83.8126C39.7499 93.5001 45.9999 91.0001 49.4374 85.3751L74.1249 50.0626C80.0624 41.9376 74.1249 40.6876 70.0624 40.6876H55.0624L57.2499 16.9376C58.1874 9.75011 51.6249 10.0626 49.1249 14.4376Z" stroke="#201036"/>
</svg>
