<svg width="80" height="80" viewBox="0 0 80 80" fill="none" xmlns="http://www.w3.org/2000/svg">
<path d="M79 40C79 11.4812 55.609 1 39.2687 1C20.5 1 0.99999 17.3103 1 40C1.00001 65.35 23.1813 79 39.2687 79C56.0875 79 79 65.3575 79 40Z" stroke="#201036"/>
<path d="M38.5378 11.4813L20.0128 39.025C16.9963 43.51 20.7059 44.9563 22.9378 45.1188H33.419L31.2253 65.5938C31.2253 73.15 36.1003 71.2 38.7815 66.8125L58.0378 39.2688C62.669 32.9313 58.0378 31.9563 54.869 31.9563H43.169L44.8753 13.4313C45.6065 7.82504 40.4878 8.06879 38.5378 11.4813Z" stroke="#201036"/>
</svg>
