<svg width="80" height="80" viewBox="0 0 80 80" fill="none" xmlns="http://www.w3.org/2000/svg">
<path d="M69.2933 1H10.7562C8.1687 1 5.68717 2.02707 3.85753 3.85526C2.95011 4.76196 2.23062 5.83863 1.74028 7.0236C1.24994 8.20857 0.998381 9.47856 1.00001 10.7608V69.2515C1.00001 71.837 2.02789 74.3165 3.85753 76.1447C5.68717 77.9729 8.16869 79 10.7562 79H69.2933C71.8722 78.9869 74.3411 77.9541 76.16 76.1273C77.9789 74.3005 79 71.8284 79 69.2515V10.7732C79 8.1963 77.9789 5.72421 76.16 3.89743C74.3411 2.07066 71.8722 1.03782 69.2933 1.02474" stroke="#201036"/>
<path d="M15.8571 64.2113L15.8544 64.2113C14.7495 64.2173 13.6873 63.7858 12.8999 63.0115C12.1131 62.2377 11.6647 61.1845 11.6524 60.0818L11.6524 15.8454L11.6524 15.844C11.6509 15.2929 11.7586 14.7468 11.9694 14.2374C12.1802 13.7281 12.4898 13.2654 12.8804 12.8761C13.271 12.4868 13.7349 12.1786 14.2454 11.9693C14.7558 11.76 15.3027 11.6538 15.8545 11.6567H15.8571H30.2685C31.3773 11.6567 32.4405 12.0968 33.2244 12.88C34.0083 13.6633 34.4485 14.7255 34.4485 15.833V60.0819C34.4362 61.1807 33.9909 62.2306 33.2089 63.0037C32.4263 63.7774 31.3697 64.2114 30.2686 64.2113L15.8571 64.2113ZM45.6009 15.8454V15.844C45.5995 15.2947 45.7065 14.7505 45.9159 14.2426C46.1253 13.7346 46.4329 13.2729 46.8212 12.884C47.2094 12.495 47.6707 12.1863 48.1786 11.9757C48.6865 11.7651 49.231 11.6567 49.7809 11.6567H64.2295C65.3382 11.6567 66.4015 12.0968 67.1853 12.88C67.9692 13.6633 68.4095 14.7255 68.4095 15.833V40.5876C68.4095 41.6951 67.9692 42.7573 67.1853 43.5406C66.4015 44.3238 65.3382 44.7639 64.2295 44.7639H49.7809C48.6722 44.7639 47.6089 44.3238 46.8251 43.5406C46.0412 42.7573 45.6009 41.6951 45.6009 40.5876V15.8454Z" stroke="#201036"/>
</svg>
