<svg width="100" height="100" viewBox="0 0 100 100" fill="none" xmlns="http://www.w3.org/2000/svg">
<g clip-path="url(#clip0_525_80)">
<path d="M87.0312 -0.015625V0.0161006V0.484375H87.5288H87.5312L87.0312 -0.015625ZM87.0312 -0.015625H87.5312V0.0153488L87.0312 -0.015625ZM44.0276 75.7453V75.7506C44.0095 77.4615 43.3171 79.0963 42.1008 80.2997C40.8845 81.5031 39.2425 82.1781 37.5314 82.178L19.0698 82.178C19.0693 82.178 19.0688 82.178 19.0683 82.178C17.3519 82.1868 15.7017 81.5159 14.4783 80.3118C13.2546 79.1074 12.5574 77.4675 12.5393 75.7506L12.5392 75.7453L12.5393 19.0204V19.0198H13.0393C13.0372 18.2283 13.1917 17.4443 13.4941 16.7129C13.7965 15.9815 14.2407 15.3172 14.8011 14.7583C15.3614 14.1994 16.0269 13.757 16.7591 13.4566C17.4913 13.1561 18.2757 13.0036 19.0671 13.0078L44.0276 75.7453ZM44.0276 75.7453V19.0039C44.0276 17.281 43.3432 15.6287 42.125 14.4104C40.9067 13.1922 39.2544 12.5078 37.5315 12.5078H19.0683L44.0276 75.7453ZM87.5301 99.4996C87.5296 99.4996 87.5291 99.4996 87.5286 99.4996L87.5312 99.9996V99.4996H87.5301ZM85.6367 55.3389C86.855 54.1207 87.5394 52.4683 87.5394 50.7455L56.5352 19.0198H56.0352V19.0211V50.7455C56.0352 52.4683 56.7196 54.1207 57.9378 55.3389C59.1561 56.5572 60.8084 57.2416 62.5313 57.2416H81.0433C82.7661 57.2416 84.4185 56.5572 85.6367 55.3389Z" stroke="#201036"/>
</g>
<defs>
<clipPath id="clip0_525_80">
<rect width="100" height="100" fill="white"/>
</clipPath>
</defs>
</svg>
