<svg width="80" height="80" viewBox="0 0 80 80" fill="none" xmlns="http://www.w3.org/2000/svg">
<path d="M1.02762 10.7258C1.02757 1.93509 5.50448 1.00008 9.42178 1H69.3001C78.8135 1 79 6.42399 79 10.1647V70.3896C79 77.5718 73.6526 79.1179 70.9789 78.9932H7.74298C2.14682 78.8062 1.02762 73.5692 1.02762 68.8934C0.965444 52.9955 1.02768 19.1062 1.02762 10.7258Z" stroke="#201036"/>
<path d="M28.6349 72.2599V44.3918H19.0134V38.0985H46.2539V44.3918H36.4694V72.2599H28.6349Z" stroke="#201036"/>
<path d="M71.1653 38.6819V45.7011C68.1807 43.7559 64.5743 43.3943 63.1442 43.4567C61.5275 43.519 58.145 44.0552 57.5481 45.7011C56.8019 47.7585 58.2942 49.2547 59.2269 50.0029C60.1596 50.751 65.1961 52.8084 67.6211 54.1176C70.046 55.4269 72.8441 58.6064 72.6576 62.1601C72.471 65.7137 71.3518 68.3322 69.2999 70.0155C67.248 71.6988 62.9576 72.821 57.9212 72.821C53.892 72.821 50.5219 71.5741 49.3405 70.9507V63.2823C50.3851 64.18 52.5737 65.2773 53.4442 65.7137L53.4443 65.7137C58.6673 67.397 62.025 66.6489 63.7038 65.3397C65.3826 63.0952 64.2634 61.786 63.8903 61.4119C63.6265 61.1474 61.6519 59.5416 57.175 57.4842C53.5935 55.8383 51.3302 53.6812 50.6462 52.8084C48.7062 50.4143 49.0918 46.4492 49.527 44.7659C51.3924 39.529 56.4289 37.2845 61.8384 37.2845C66.1661 37.2845 69.8595 38.2161 71.1653 38.6819Z" stroke="#201036"/>
</svg>
