<svg width="102" height="101" viewBox="0 0 102 101" fill="none" xmlns="http://www.w3.org/2000/svg">
<path d="M38 17.5L4.00856 11.2719C1.87733 10.8925 0.269096 13.1617 1.34157 15.0351L49.248 98.7168C50.2325 100.436 52.7242 100.426 53.6941 98.6983L100.669 15.027C101.723 13.1499 100.107 10.8983 97.9828 11.2839L70 17" stroke="#201036"/>
<path d="M73.4575 0.515625C74.0135 0.405956 74.5004 0.92795 74.3394 1.49023L67.894 23.9854C67.5314 25.2521 68.6252 26.4699 69.9253 26.2178L79.8013 24.2988C80.4173 24.1792 80.9181 24.8258 80.6294 25.4062L52.5581 81.8018L52.0688 82.5645C51.6165 83.2683 50.5018 82.8397 50.6772 81.9854L55.2075 59.9131C55.4765 58.6012 54.2517 57.465 52.9644 57.8584L47.0386 59.6709C46.4898 59.8387 45.9492 59.355 46.0669 58.7744L48.9175 44.7227C49.1732 43.4628 48.0481 42.348 46.7905 42.6396H46.7896L37.1958 44.8691C36.7029 44.9834 36.2297 44.5886 36.2603 44.0684L38.3804 8.02637C38.4013 7.67192 38.657 7.37982 38.9976 7.3125L73.4575 0.515625Z" stroke="#201036"/>
</svg>
