<svg width="100" height="100" viewBox="0 0 100 100" fill="none" xmlns="http://www.w3.org/2000/svg">
<path d="M9.40254 31.5399L8.97923 30.3801L8.47622 31.5076C5.95996 37.1478 4.54405 43.4164 4.54405 50C4.54405 67.977 14.9932 83.5245 30.159 90.9157L31.2725 91.4583L30.8478 90.2948L9.40254 31.5399ZM36.8164 92.9495L36.6466 93.4432L37.1471 93.5916C41.2356 94.804 45.5281 95.4559 50 95.4559C55.3006 95.4559 60.3806 94.5356 65.0774 92.8717L65.6805 92.658L65.3274 92.1244C65.2413 91.9944 65.1794 91.8683 65.0971 91.7011C65.0786 91.6634 65.0591 91.6236 65.0379 91.5812L51.2487 53.7409L50.7654 52.4148L50.3061 53.7494L36.8164 92.9495ZM55.6993 28.934V29.4594L55.8469 29.4521L71.9486 77.3575L72.451 78.8523L72.9017 77.3411L77.366 62.3705C77.3663 62.3694 77.3667 62.3682 77.3671 62.3671C77.4675 62.0474 77.5667 61.7322 77.6646 61.4211C79.4609 55.7133 80.811 51.4233 80.811 47.6866C80.811 41.9992 78.7595 38.0407 77.0336 35.0387L77.0294 35.0314L77.025 35.0243C76.8691 34.773 76.7145 34.5251 76.5617 34.2802C74.4409 30.8792 72.6775 28.0515 72.6775 24.7535C72.6775 20.845 75.6117 17.2746 79.71 17.2746C79.8781 17.2746 80.0254 17.2913 80.2301 17.315L81.7631 17.4928L80.6255 16.4498C72.5375 9.0343 61.7523 4.5178 49.9329 4.5178C34.0474 4.5178 20.0921 12.6751 11.9608 25.0092L11.4739 25.7478L12.3577 25.784C13.4304 25.828 14.4381 25.8515 15.2897 25.8515C17.6503 25.8515 20.6568 25.7122 23.0668 25.5736C24.2732 25.5042 25.3326 25.4347 26.0905 25.3827C26.4695 25.3566 26.7732 25.3349 26.9822 25.3197L27.2224 25.3021L27.2847 25.2974L27.3006 25.2962L27.3007 25.2962C27.7715 25.2713 28.1039 25.4226 28.3277 25.6392C28.5601 25.864 28.7026 26.1864 28.7302 26.5337C28.7578 26.8808 28.6683 27.2253 28.4722 27.4899C28.2823 27.7461 27.9729 27.9549 27.4979 28.0116C27.4979 28.0116 27.4978 28.0116 27.4978 28.0116L27.4976 28.0116L27.4964 28.0118L27.4915 28.0124L27.4712 28.0147L27.3909 28.024C27.3203 28.032 27.2159 28.0437 27.0821 28.0582C26.8145 28.0872 26.4291 28.1272 25.9592 28.1715C25.0191 28.26 23.7433 28.3651 22.3978 28.4317L21.738 28.4644L21.9486 29.0905L38.3265 77.7806L38.8022 79.1949L39.2747 77.7795L49.1177 48.2912L49.173 48.1257L49.1132 47.9617L42.1145 28.7628L42.0016 28.453L41.6725 28.4348C40.472 28.3682 39.3022 28.2633 38.4316 28.1747C37.9966 28.1305 37.637 28.0905 37.3864 28.0615C37.2611 28.0471 37.1631 28.0354 37.0966 28.0273L37.021 28.0181L37.0019 28.0157L36.9973 28.0151L36.9961 28.015L36.9959 28.0149L36.9959 28.0149L36.9785 28.0127L36.961 28.0118C36.4953 27.986 36.1981 27.796 36.0153 27.5542C35.824 27.3011 35.7321 26.9546 35.7602 26.5937C35.7882 26.2332 35.9335 25.894 36.1693 25.6573C36.3955 25.4302 36.7262 25.2746 37.19 25.2992L37.1905 25.2992L37.2067 25.3004L37.27 25.3051L37.5139 25.3227C37.7261 25.3379 38.0339 25.3596 38.417 25.3856C39.1831 25.4377 40.2508 25.5071 41.4571 25.5765C43.8665 25.7151 46.8397 25.8545 49.0665 25.8545C51.427 25.8545 54.4335 25.7152 56.8436 25.5765C58.05 25.5071 59.1094 25.4377 59.8673 25.3856C60.2463 25.3596 60.5499 25.3379 60.759 25.3227L60.9991 25.305L61.0615 25.3003L61.0774 25.2991C61.5482 25.2742 61.8807 25.4255 62.1045 25.6421C62.3368 25.8669 62.4794 26.1893 62.507 26.5366C62.5346 26.8837 62.445 27.2282 62.249 27.4928C62.0591 27.749 61.7497 27.9578 61.2747 28.0145L61.2746 28.0145L61.2746 28.0145L61.2744 28.0145L61.2732 28.0147L61.2682 28.0153L61.248 28.0176L61.1677 28.0269C61.097 28.0349 60.9927 28.0466 60.8589 28.0611C60.5912 28.0901 60.2058 28.1301 59.736 28.1744C58.7959 28.2629 57.52 28.368 56.1746 28.4346L56.1952 28.85L55.6993 28.9311V28.934ZM72.1005 88.8471L72.6565 88.9406L72.8518 89.2764C86.3784 81.4129 95.4559 66.7847 95.4559 50C95.4559 42.0922 93.4352 34.6758 89.8838 28.1835L88.9499 28.4925C89.148 29.9133 89.2573 31.4218 89.2573 33.0445C89.2573 37.5548 88.4054 42.6033 85.8707 48.972L85.8665 48.9826L85.8628 48.9934L72.19 88.5045L72.1005 88.5565V88.8442V88.8471ZM0.5 50C0.5 22.6988 22.7219 0.5 50 0.5C77.278 0.5 99.5 22.722 99.5 50C99.5 77.278 77.278 99.5 50 99.5C22.7219 99.5 0.5 77.3012 0.5 50Z" stroke="black"/>
</svg>
