<svg width="81" height="80" viewBox="0 0 81 80" fill="none" xmlns="http://www.w3.org/2000/svg">
<path d="M41 1C19.5078 1 2 18.4896 2 40C2 61.5104 19.5078 79 41 79C62.4922 79 80 61.4922 80 40C80 18.5078 62.4922 1 41 1ZM5.93436 40C5.93436 34.9211 7.02661 30.0856 8.96762 25.7348L25.6949 71.5636C13.9942 65.8612 5.93436 53.867 5.93436 40ZM41 75.0656C37.5503 75.0656 34.2395 74.5628 31.0856 73.6275L41.6076 43.0515L52.3707 72.5876C52.4572 72.7605 52.5277 72.9176 52.6301 73.0723C49.0075 74.3557 45.0891 75.0656 41 75.0656ZM58.6284 70.3007L69.3415 39.3424C71.3349 34.334 72.0107 30.3473 72.0107 26.7747C72.0107 25.4913 71.9242 24.2967 71.7672 23.1703C74.5069 28.1787 76.0656 33.8994 76.0656 40C76.0656 52.9477 68.9355 64.4335 58.5 70.5L58.6284 70.3007Z" stroke="#201036"/>
<path d="M48.8404 23.2386C48.8404 23.2386 46.5 23.5685 44.8355 23.5685L54 71.5636L55 71L57.4896 61.2146L60.9734 49.5321C62.498 44.6785 63.6426 41.1946 63.6426 38.1955C63.6426 33.8629 62.0839 30.8479 60.7482 28.5246C58.9619 25.6461 57.2985 23.2022 57.2985 20.3077C57.2985 17.0833 59.7242 14.0842 63.1739 14.0842C63.33 14.0842 63.4659 14.0999 63.6218 14.118L63.6244 14.1183C57.3849 8.39769 49.0657 4.91388 39.9477 4.91388C27.6941 4.91388 16.9286 11.2057 10.655 20.7219C11.4879 20.756 12.2684 20.7742 12.926 20.7742C16.585 20.7742 22.2692 20.3419 22.2692 20.3419C24.1579 20.2372 24.3832 23.011 22.4945 23.2363C22.4945 23.2363 20.6036 23.4616 18.4896 23.5663L31.2643 61.5446L38.9419 38.5437L33.483 23.5685C31.5943 23.4639 29.808 23.2386 29.808 23.2386C27.9193 23.1339 28.1446 20.2395 30.0333 20.3441C30.0333 20.3441 35.8222 20.7765 39.2719 20.7765C42.9309 20.7765 48.6151 20.3441 48.6151 20.3441C50.5038 20.2395 50.7291 23.0133 48.8404 23.2386Z" stroke="#201036"/>
</svg>
