<svg width="82" height="80" viewBox="0 0 82 80" fill="none" xmlns="http://www.w3.org/2000/svg">
<path d="M42.4584 40.9149C35.5647 50.1502 38.6311 59.8202 40.2816 64.5L34.2865 58.9548C30.7065 62.5472 23.4063 69.8257 22.8459 70.2005C22.1455 70.6691 20.5111 73.012 17.9428 71.1377C15.8881 69.6383 17.398 67.0767 18.4098 65.9834L29.6169 54.0348L18.1763 42.7891C14.7519 46.1472 7.66957 53.0977 6.73565 54.0348C5.56823 55.2062 3.46689 56.8462 1.59904 54.7377C0.10475 53.0508 1.75469 50.4424 2.76645 49.3491L13.5066 38.3377L8.37002 32.4805L31.9517 8.81767C34.0064 6.75595 35.9209 7.33386 36.6214 7.88053L46.8946 17.4862C49.852 14.5186 56.0938 8.3023 57.4013 7.17772C59.0356 5.77201 60.4365 4.36629 62.0709 5.30344C63.7053 6.24058 65.5731 8.34915 66.7406 10.2234C67.6745 11.7229 66.0401 14.1282 65.1062 15.1434L54.833 26.1549L60.203 31.7777C50.677 32.5274 45.5631 36.7556 42.4584 40.9149Z" stroke="#201036"/>
<path d="M44.5733 44.0322C48.6924 37.9553 55.9311 34.7243 60.9385 34.894C66.6319 35.0869 70.9761 37.2624 74.1413 40.1811M44.5733 44.0322C46.3046 44.0322 50.0209 43.7719 50.7827 43.7783C51.8295 43.7872 53.3216 45.2949 51.0366 45.5552H49.0054L56.1146 67.1312L60.6847 54.1856L57.384 45.809C57.384 45.809 56.8762 45.8026 55.8607 45.5552C54.3805 45.1946 53.8294 43.7783 56.1145 43.7719C59.3305 43.8565 65.3085 43.7783 65.7627 43.7783C67.0321 43.7783 68.8094 45.2949 66.0166 45.5552H63.9854L71.0945 66.8774L74.1413 56.7239C74.4798 55.3701 74.8522 52.0534 73.6335 49.6165C72.1101 46.5705 71.41 45.809 71.0945 44.5398C70.8406 43.518 70.8406 41.4068 74.1413 40.1811M44.5733 44.0322C43.9819 44.9048 43.4547 45.836 43.0077 46.8243M74.1413 40.1811C76.1492 42.0327 77.6827 44.1834 78.7851 46.3167M78.7851 46.3167C80.3621 49.3687 81.0569 52.3851 80.9965 54.4393C80.9965 63.3149 76.5421 69.1227 71.0945 72.2334M78.7851 46.3167C78.7605 48.1781 77.9497 52.4023 77.1881 54.6932L71.0945 72.2334M71.0945 72.2334C70.0239 72.8448 68.9149 73.352 67.7938 73.7578M67.7938 73.7578C65.4834 74.5941 63.1217 75 60.9385 75C58.8863 75 57.0294 74.7665 55.3529 74.3427M67.7938 73.7578L61.7003 56.9778L55.3529 74.3427M55.3529 74.3427C54.4301 74.1094 53.5621 73.8185 52.7461 73.4771M52.7461 73.4771C44.2235 69.9109 41.3884 60.8367 41.3884 54.4393C41.3884 51.6185 41.9905 49.0737 43.0077 46.8243M52.7461 73.4771L43.0077 46.8243" stroke="#201036"/>
</svg>
