<svg width="106" height="92" viewBox="0 0 106 92" fill="none" xmlns="http://www.w3.org/2000/svg">
<path d="M54.9774 47.1762C46.002 59.0502 49.9944 71.4831 52.1433 77.5L44.3379 70.3705C39.6768 74.9892 30.1722 84.3473 29.4426 84.8292C28.5307 85.4317 26.4028 88.4439 23.0589 86.0341C20.3839 84.1063 22.3496 80.8129 23.6669 79.4072L38.2582 64.0447L23.3629 49.586C18.9045 53.9035 9.68356 62.8398 8.46762 64.0447C6.94769 65.5509 4.21181 67.6594 1.77992 64.9484C-0.165585 62.7796 1.98258 59.426 3.29985 58.0203L17.2832 43.8627L10.5955 36.3321L41.2981 5.90843C43.9732 3.25765 46.4658 4.00067 47.3778 4.70353L60.7532 17.0537C64.6037 13.2382 72.7302 5.24581 74.4325 3.79993C76.5604 1.99258 78.3844 0.185236 80.5123 1.39013C82.6402 2.59503 85.0721 5.30605 86.592 7.71585C87.8079 9.64368 85.68 12.7363 84.4641 14.0416L71.0887 28.1991L78.0804 35.4285C65.6777 36.3924 59.0197 41.8286 54.9774 47.1762Z" stroke="#201036"/>
<path d="M57.7309 51.184C63.0938 43.3709 72.5184 39.2168 79.0379 39.4349C86.4504 39.6829 92.1064 42.48 96.2274 46.2327M57.7309 51.184C59.985 51.184 64.8235 50.8494 65.8153 50.8576C67.1782 50.869 69.1209 52.8075 66.1459 53.1422H63.5014L72.7572 80.8827L78.7074 64.2384L74.41 53.4685C74.41 53.4685 73.7488 53.4602 72.4266 53.1422C70.4995 52.6785 69.782 50.8576 72.7571 50.8494C76.9443 50.9581 84.7274 50.8576 85.3187 50.8576C86.9715 50.8576 89.2854 52.8075 85.6493 53.1422H83.0048L92.2606 80.5564L96.2274 67.502C96.6682 65.7614 97.153 61.497 95.5663 58.3639C93.5829 54.4476 92.6713 53.4685 92.2606 51.8367C91.93 50.523 91.93 47.8085 96.2274 46.2327M57.7309 51.184C56.9609 52.3059 56.2745 53.5033 55.6926 54.774M96.2274 46.2327C98.8417 48.6133 100.838 51.3784 102.273 54.1212M102.273 54.1212C104.327 58.0452 105.231 61.9235 105.153 64.5646C105.153 75.9761 99.3532 83.4433 92.2606 87.4428M102.273 54.1212C102.241 56.5145 101.186 61.9456 100.194 64.8911L92.2606 87.4428M92.2606 87.4428C90.8667 88.2288 89.4228 88.8809 87.9633 89.4026M87.9633 89.4026C84.9552 90.478 81.8803 90.9998 79.0379 90.9998C76.3659 90.9998 73.9483 90.6996 71.7655 90.1547M87.9633 89.4026L80.0297 67.8284L71.7655 90.1547M71.7655 90.1547C70.5642 89.8548 69.434 89.4807 68.3716 89.0417M68.3716 89.0417C57.2754 84.4566 53.5843 72.7899 53.5843 64.5646C53.5843 60.9378 54.3681 57.666 55.6926 54.774M68.3716 89.0417L55.6926 54.774" stroke="#201036"/>
</svg>
