<svg width="82" height="80" viewBox="0 0 82 80" fill="none" xmlns="http://www.w3.org/2000/svg">
<path d="M19.0773 51.7273H12.449V40.2045L1 21H8.53222L15.4619 34.2955L22.9941 21H30.5263L19.0773 40.2045V51.7273Z" stroke="#201036"/>
<path d="M32.0327 45.2273V28.6818H38.3598V42.2727C38.6611 49.3636 46.7959 45.8182 46.7959 42.2727V28.6818H53.123V51.7273H46.7959V47.8864C44.8677 51.4318 40.7728 52.0227 38.6611 52.0227C34.4431 52.0227 32.2336 47.5909 32.0327 45.2273Z" stroke="#201036"/>
<path d="M58.2449 60V28.6818H64.8732V32.2273C65.6767 30.75 68.2477 27.9136 72.1042 28.3864C75.9607 28.8591 77.8287 30.4545 78.7325 31.9318C80.239 34.2955 81.4441 37.8409 80.8415 44.3409C80.3595 49.5409 74.6463 52.0227 71.8029 52.0227C69.0913 52.0227 66.0784 49.3636 64.8732 47.8864V60H58.2449Z" stroke="#201036"/>
<path d="M74.5145 39.9091C74.5145 35.4773 72.4055 33.4091 69.6939 33.4091C65.7772 33.4091 64.8733 37.8409 64.8733 39.9091C64.8733 44.9318 67.2836 46.7046 69.6939 46.7046C73.6107 46.4091 74.5145 42.2728 74.5145 39.9091Z" stroke="#201036"/>
</svg>
