<svg width="123" height="62" viewBox="0 0 123 62" fill="none" xmlns="http://www.w3.org/2000/svg">
<path d="M28.342 48.2727H18.3166V30.5455L1 1H12.3925L22.8736 21.4545L34.266 1H45.6585L28.342 30.5455V48.2727Z" stroke="#201036"/>
<path d="M47.937 38.2727V12.8182H57.5067V33.7273C57.9624 44.6364 70.2663 39.1818 70.2663 33.7273V12.8182H79.836V48.2727H70.2663V42.3636C67.3498 47.8182 61.1563 48.7273 57.9624 48.7273C51.5826 48.7273 48.2408 41.9091 47.937 38.2727Z" stroke="#201036"/>
<path d="M87.5829 61V12.8182H97.6083V18.2727C98.8234 16 102.712 11.6364 108.545 12.3636C114.378 13.0909 117.203 15.5455 118.57 17.8182C120.849 21.4545 122.672 26.9091 121.76 36.9091C121.031 44.9091 112.39 48.7273 108.089 48.7273C103.988 48.7273 99.431 44.6364 97.6083 42.3636V61H87.5829Z" stroke="#201036"/>
</svg>
